<mxfile host="app.diagrams.net" modified="2021-09-10T07:39:30.306Z" agent="5.0 (Windows)" etag="StGmJCKdRPx7YOPaWSW8" version="15.1.2" type="github" pages="8">
  <diagram id="ck6fiAleNKxSNtINmjir" name="Overview">
    <mxGraphModel dx="969" dy="-200" grid="1" gridSize="10" guides="1" tooltips="1" connect="1" arrows="1" fold="1" page="1" pageScale="1" pageWidth="1410" pageHeight="710" math="0" shadow="0">
      <root>
        <mxCell id="5XhvWTHa4kCGjs2N_sCD-0" />
        <mxCell id="5XhvWTHa4kCGjs2N_sCD-1" parent="5XhvWTHa4kCGjs2N_sCD-0" />
        <mxCell id="5XhvWTHa4kCGjs2N_sCD-8" value="" style="group" parent="5XhvWTHa4kCGjs2N_sCD-1" vertex="1" connectable="0">
          <mxGeometry x="760" y="925.75" width="115" height="100" as="geometry" />
        </mxCell>
        <mxCell id="5XhvWTHa4kCGjs2N_sCD-9" value="" style="strokeWidth=1;html=1;shape=mxgraph.lean_mapping.buffer_or_safety_stock;" parent="5XhvWTHa4kCGjs2N_sCD-8" vertex="1">
          <mxGeometry width="40" height="100" as="geometry" />
        </mxCell>
        <mxCell id="5XhvWTHa4kCGjs2N_sCD-10" value="" style="strokeWidth=1;html=1;shape=mxgraph.lean_mapping.buffer_or_safety_stock;" parent="5XhvWTHa4kCGjs2N_sCD-8" vertex="1">
          <mxGeometry x="75" width="40" height="100" as="geometry" />
        </mxCell>
        <mxCell id="5XhvWTHa4kCGjs2N_sCD-11" value="" style="curved=1;endArrow=classic;html=1;entryX=0;entryY=0.17;entryDx=0;entryDy=0;entryPerimeter=0;exitX=1;exitY=0.5;exitDx=0;exitDy=0;" parent="5XhvWTHa4kCGjs2N_sCD-8" source="5XhvWTHa4kCGjs2N_sCD-9" target="5XhvWTHa4kCGjs2N_sCD-10" edge="1">
          <mxGeometry width="50" height="50" relative="1" as="geometry">
            <mxPoint x="40" y="42" as="sourcePoint" />
            <mxPoint x="75" y="11" as="targetPoint" />
            <Array as="points">
              <mxPoint x="55" y="41" />
              <mxPoint x="55" y="17" />
            </Array>
          </mxGeometry>
        </mxCell>
        <mxCell id="5XhvWTHa4kCGjs2N_sCD-12" value="" style="curved=1;endArrow=classic;html=1;entryX=0;entryY=0.5;entryDx=0;entryDy=0;exitX=0.975;exitY=0.83;exitDx=0;exitDy=0;exitPerimeter=0;" parent="5XhvWTHa4kCGjs2N_sCD-8" source="5XhvWTHa4kCGjs2N_sCD-9" target="5XhvWTHa4kCGjs2N_sCD-10" edge="1">
          <mxGeometry width="50" height="50" relative="1" as="geometry">
            <mxPoint x="40" y="84" as="sourcePoint" />
            <mxPoint x="75" y="51" as="targetPoint" />
            <Array as="points">
              <mxPoint x="55" y="75" />
              <mxPoint x="55" y="51" />
            </Array>
          </mxGeometry>
        </mxCell>
        <mxCell id="5XhvWTHa4kCGjs2N_sCD-13" value="" style="group" parent="5XhvWTHa4kCGjs2N_sCD-1" vertex="1" connectable="0">
          <mxGeometry x="1074" y="889.0000000000001" width="130" height="172.11" as="geometry" />
        </mxCell>
        <mxCell id="5XhvWTHa4kCGjs2N_sCD-14" value="" style="whiteSpace=wrap;html=1;aspect=fixed;" parent="5XhvWTHa4kCGjs2N_sCD-13" vertex="1">
          <mxGeometry y="142.11" width="30" height="30" as="geometry" />
        </mxCell>
        <mxCell id="5XhvWTHa4kCGjs2N_sCD-15" value="" style="group" parent="5XhvWTHa4kCGjs2N_sCD-13" vertex="1" connectable="0">
          <mxGeometry x="10" width="110" height="96" as="geometry" />
        </mxCell>
        <mxCell id="5XhvWTHa4kCGjs2N_sCD-16" value="" style="ellipse;whiteSpace=wrap;html=1;aspect=fixed;" parent="5XhvWTHa4kCGjs2N_sCD-15" vertex="1">
          <mxGeometry x="14.75" width="80" height="80" as="geometry" />
        </mxCell>
        <mxCell id="5XhvWTHa4kCGjs2N_sCD-17" value="" style="ellipse;whiteSpace=wrap;html=1;aspect=fixed;" parent="5XhvWTHa4kCGjs2N_sCD-15" vertex="1">
          <mxGeometry x="39.75" y="66" width="30" height="30" as="geometry" />
        </mxCell>
        <mxCell id="5XhvWTHa4kCGjs2N_sCD-18" value="" style="ellipse;whiteSpace=wrap;html=1;aspect=fixed;" parent="5XhvWTHa4kCGjs2N_sCD-15" vertex="1">
          <mxGeometry x="80" y="6" width="30" height="30" as="geometry" />
        </mxCell>
        <mxCell id="5XhvWTHa4kCGjs2N_sCD-19" value="" style="ellipse;whiteSpace=wrap;html=1;aspect=fixed;" parent="5XhvWTHa4kCGjs2N_sCD-15" vertex="1">
          <mxGeometry y="6" width="30" height="30" as="geometry" />
        </mxCell>
        <mxCell id="5XhvWTHa4kCGjs2N_sCD-20" style="edgeStyle=orthogonalEdgeStyle;rounded=0;orthogonalLoop=1;jettySize=auto;html=1;exitX=0.5;exitY=0;exitDx=0;exitDy=0;entryX=0.5;entryY=1;entryDx=0;entryDy=0;" parent="5XhvWTHa4kCGjs2N_sCD-13" source="5XhvWTHa4kCGjs2N_sCD-14" target="5XhvWTHa4kCGjs2N_sCD-17" edge="1">
          <mxGeometry relative="1" as="geometry">
            <Array as="points">
              <mxPoint x="15" y="120" />
              <mxPoint x="65" y="120" />
            </Array>
          </mxGeometry>
        </mxCell>
        <mxCell id="5XhvWTHa4kCGjs2N_sCD-21" style="edgeStyle=orthogonalEdgeStyle;rounded=0;orthogonalLoop=1;jettySize=auto;html=1;exitX=0.5;exitY=0;exitDx=0;exitDy=0;" parent="5XhvWTHa4kCGjs2N_sCD-13" source="5XhvWTHa4kCGjs2N_sCD-22" target="5XhvWTHa4kCGjs2N_sCD-17" edge="1">
          <mxGeometry relative="1" as="geometry" />
        </mxCell>
        <mxCell id="5XhvWTHa4kCGjs2N_sCD-22" value="" style="whiteSpace=wrap;html=1;aspect=fixed;" parent="5XhvWTHa4kCGjs2N_sCD-13" vertex="1">
          <mxGeometry x="50" y="142.11" width="30" height="30" as="geometry" />
        </mxCell>
        <mxCell id="5XhvWTHa4kCGjs2N_sCD-23" style="edgeStyle=orthogonalEdgeStyle;rounded=0;orthogonalLoop=1;jettySize=auto;html=1;entryX=0.5;entryY=1;entryDx=0;entryDy=0;" parent="5XhvWTHa4kCGjs2N_sCD-13" source="5XhvWTHa4kCGjs2N_sCD-24" target="5XhvWTHa4kCGjs2N_sCD-17" edge="1">
          <mxGeometry relative="1" as="geometry">
            <Array as="points">
              <mxPoint x="115" y="120" />
              <mxPoint x="65" y="120" />
            </Array>
          </mxGeometry>
        </mxCell>
        <mxCell id="5XhvWTHa4kCGjs2N_sCD-24" value="" style="whiteSpace=wrap;html=1;aspect=fixed;" parent="5XhvWTHa4kCGjs2N_sCD-13" vertex="1">
          <mxGeometry x="100" y="142.11" width="30" height="30" as="geometry" />
        </mxCell>
        <mxCell id="5XhvWTHa4kCGjs2N_sCD-25" value="" style="html=1;verticalLabelPosition=bottom;align=center;labelBackgroundColor=#ffffff;verticalAlign=top;strokeWidth=1;shadow=0;dashed=0;shape=mxgraph.ios7.icons.cloud;sketch=0;" parent="5XhvWTHa4kCGjs2N_sCD-1" vertex="1">
          <mxGeometry x="418" y="875.75" width="150" height="80" as="geometry" />
        </mxCell>
        <mxCell id="5XhvWTHa4kCGjs2N_sCD-26" value="" style="html=1;verticalLabelPosition=bottom;align=center;labelBackgroundColor=#ffffff;verticalAlign=top;strokeWidth=1;shadow=0;dashed=0;shape=mxgraph.ios7.icons.window;sketch=0;" parent="5XhvWTHa4kCGjs2N_sCD-1" vertex="1">
          <mxGeometry x="436" y="967.8600000000001" width="114" height="90" as="geometry" />
        </mxCell>
        <mxCell id="5XhvWTHa4kCGjs2N_sCD-27" value="" style="html=1;verticalLabelPosition=bottom;align=center;labelBackgroundColor=#ffffff;verticalAlign=top;strokeWidth=1;shadow=0;dashed=0;shape=mxgraph.ios7.icons.most_viewed;pointerEvents=1;sketch=0;" parent="5XhvWTHa4kCGjs2N_sCD-1" vertex="1">
          <mxGeometry x="488" y="988.75" width="51" height="57.89" as="geometry" />
        </mxCell>
        <mxCell id="5XhvWTHa4kCGjs2N_sCD-28" value="" style="html=1;verticalLabelPosition=bottom;align=center;labelBackgroundColor=#ffffff;verticalAlign=top;strokeWidth=1;shadow=0;dashed=0;shape=mxgraph.ios7.icons.lightbulb;sketch=0;" parent="5XhvWTHa4kCGjs2N_sCD-1" vertex="1">
          <mxGeometry x="448" y="992.19" width="40" height="51" as="geometry" />
        </mxCell>
        <mxCell id="5XhvWTHa4kCGjs2N_sCD-29" value="" style="group" parent="5XhvWTHa4kCGjs2N_sCD-1" vertex="1" connectable="0">
          <mxGeometry x="109" y="920" width="140" height="120" as="geometry" />
        </mxCell>
        <mxCell id="5XhvWTHa4kCGjs2N_sCD-30" value="" style="ellipse;whiteSpace=wrap;html=1;aspect=fixed;" parent="5XhvWTHa4kCGjs2N_sCD-29" vertex="1">
          <mxGeometry x="18.772727272727273" width="100" height="100" as="geometry" />
        </mxCell>
        <mxCell id="5XhvWTHa4kCGjs2N_sCD-31" value="" style="ellipse;whiteSpace=wrap;html=1;aspect=fixed;" parent="5XhvWTHa4kCGjs2N_sCD-29" vertex="1">
          <mxGeometry x="50.59090909090909" y="82.5" width="37.5" height="37.5" as="geometry" />
        </mxCell>
        <mxCell id="5XhvWTHa4kCGjs2N_sCD-32" value="" style="ellipse;whiteSpace=wrap;html=1;aspect=fixed;" parent="5XhvWTHa4kCGjs2N_sCD-29" vertex="1">
          <mxGeometry x="101.81818181818181" y="7.5" width="37.5" height="37.5" as="geometry" />
        </mxCell>
        <mxCell id="5XhvWTHa4kCGjs2N_sCD-33" value="" style="ellipse;whiteSpace=wrap;html=1;aspect=fixed;" parent="5XhvWTHa4kCGjs2N_sCD-29" vertex="1">
          <mxGeometry y="7.5" width="37.5" height="37.5" as="geometry" />
        </mxCell>
        <mxCell id="5XhvWTHa4kCGjs2N_sCD-34" value="" style="group" parent="5XhvWTHa4kCGjs2N_sCD-1" vertex="1" connectable="0">
          <mxGeometry x="597" y="955.75" width="120" height="40" as="geometry" />
        </mxCell>
        <mxCell id="5XhvWTHa4kCGjs2N_sCD-35" value="" style="endArrow=none;html=1;" parent="5XhvWTHa4kCGjs2N_sCD-34" edge="1">
          <mxGeometry width="50" height="50" relative="1" as="geometry">
            <mxPoint y="20" as="sourcePoint" />
            <mxPoint x="120" y="20" as="targetPoint" />
          </mxGeometry>
        </mxCell>
        <mxCell id="5XhvWTHa4kCGjs2N_sCD-36" value="" style="endArrow=none;html=1;" parent="5XhvWTHa4kCGjs2N_sCD-34" edge="1">
          <mxGeometry width="50" height="50" relative="1" as="geometry">
            <mxPoint x="100" y="40" as="sourcePoint" />
            <mxPoint x="120" y="20" as="targetPoint" />
          </mxGeometry>
        </mxCell>
        <mxCell id="5XhvWTHa4kCGjs2N_sCD-37" value="" style="endArrow=none;html=1;" parent="5XhvWTHa4kCGjs2N_sCD-34" edge="1">
          <mxGeometry width="50" height="50" relative="1" as="geometry">
            <mxPoint x="120" y="20" as="sourcePoint" />
            <mxPoint x="100" as="targetPoint" />
          </mxGeometry>
        </mxCell>
        <mxCell id="5XhvWTHa4kCGjs2N_sCD-38" value="" style="group" parent="5XhvWTHa4kCGjs2N_sCD-34" vertex="1" connectable="0">
          <mxGeometry x="-331" width="120" height="40" as="geometry" />
        </mxCell>
        <mxCell id="5XhvWTHa4kCGjs2N_sCD-39" value="" style="endArrow=none;html=1;" parent="5XhvWTHa4kCGjs2N_sCD-38" edge="1">
          <mxGeometry width="50" height="50" relative="1" as="geometry">
            <mxPoint y="20" as="sourcePoint" />
            <mxPoint x="120" y="20" as="targetPoint" />
          </mxGeometry>
        </mxCell>
        <mxCell id="5XhvWTHa4kCGjs2N_sCD-40" value="" style="endArrow=none;html=1;" parent="5XhvWTHa4kCGjs2N_sCD-38" edge="1">
          <mxGeometry width="50" height="50" relative="1" as="geometry">
            <mxPoint x="100" y="40" as="sourcePoint" />
            <mxPoint x="120" y="20" as="targetPoint" />
          </mxGeometry>
        </mxCell>
        <mxCell id="5XhvWTHa4kCGjs2N_sCD-41" value="" style="endArrow=none;html=1;" parent="5XhvWTHa4kCGjs2N_sCD-38" edge="1">
          <mxGeometry width="50" height="50" relative="1" as="geometry">
            <mxPoint x="120" y="20" as="sourcePoint" />
            <mxPoint x="100" as="targetPoint" />
          </mxGeometry>
        </mxCell>
        <mxCell id="5XhvWTHa4kCGjs2N_sCD-42" value="" style="group" parent="5XhvWTHa4kCGjs2N_sCD-1" vertex="1" connectable="0">
          <mxGeometry x="917" y="955.75" width="120" height="40" as="geometry" />
        </mxCell>
        <mxCell id="5XhvWTHa4kCGjs2N_sCD-43" value="" style="endArrow=none;html=1;" parent="5XhvWTHa4kCGjs2N_sCD-42" edge="1">
          <mxGeometry width="50" height="50" relative="1" as="geometry">
            <mxPoint y="20" as="sourcePoint" />
            <mxPoint x="120" y="20" as="targetPoint" />
          </mxGeometry>
        </mxCell>
        <mxCell id="5XhvWTHa4kCGjs2N_sCD-44" value="" style="endArrow=none;html=1;" parent="5XhvWTHa4kCGjs2N_sCD-42" edge="1">
          <mxGeometry width="50" height="50" relative="1" as="geometry">
            <mxPoint x="100" y="40" as="sourcePoint" />
            <mxPoint x="120" y="20" as="targetPoint" />
          </mxGeometry>
        </mxCell>
        <mxCell id="5XhvWTHa4kCGjs2N_sCD-45" value="" style="endArrow=none;html=1;" parent="5XhvWTHa4kCGjs2N_sCD-42" edge="1">
          <mxGeometry width="50" height="50" relative="1" as="geometry">
            <mxPoint x="120" y="20" as="sourcePoint" />
            <mxPoint x="100" as="targetPoint" />
          </mxGeometry>
        </mxCell>
        <mxCell id="5XhvWTHa4kCGjs2N_sCD-47" value="" style="group" parent="5XhvWTHa4kCGjs2N_sCD-1" vertex="1" connectable="0">
          <mxGeometry x="484" y="917" width="20" height="30" as="geometry" />
        </mxCell>
        <mxCell id="5XhvWTHa4kCGjs2N_sCD-48" value="" style="endArrow=none;html=1;" parent="5XhvWTHa4kCGjs2N_sCD-47" edge="1">
          <mxGeometry x="-20" y="-18" width="25" height="30" as="geometry">
            <mxPoint x="10" as="sourcePoint" />
            <mxPoint x="10" y="30" as="targetPoint" />
          </mxGeometry>
        </mxCell>
        <mxCell id="5XhvWTHa4kCGjs2N_sCD-49" value="" style="endArrow=none;html=1;" parent="5XhvWTHa4kCGjs2N_sCD-47" edge="1">
          <mxGeometry x="-20" y="-18" width="25" height="30" as="geometry">
            <mxPoint y="18" as="sourcePoint" />
            <mxPoint x="10" y="30" as="targetPoint" />
          </mxGeometry>
        </mxCell>
        <mxCell id="5XhvWTHa4kCGjs2N_sCD-50" value="" style="endArrow=none;html=1;" parent="5XhvWTHa4kCGjs2N_sCD-47" edge="1">
          <mxGeometry x="-20" y="-18" width="25" height="30" as="geometry">
            <mxPoint x="10" y="30" as="sourcePoint" />
            <mxPoint x="20" y="18" as="targetPoint" />
          </mxGeometry>
        </mxCell>
        <mxCell id="5XhvWTHa4kCGjs2N_sCD-51" value="Ontology Design" style="text;html=1;strokeColor=none;fillColor=none;align=center;verticalAlign=middle;whiteSpace=wrap;rounded=0;labelBackgroundColor=#FFFFFF;sketch=0;fontSize=24;" parent="5XhvWTHa4kCGjs2N_sCD-1" vertex="1">
          <mxGeometry x="58.5" y="797" width="241" height="70" as="geometry" />
        </mxCell>
        <mxCell id="5XhvWTHa4kCGjs2N_sCD-52" value="Web Scraping Agent" style="text;html=1;strokeColor=none;fillColor=none;align=center;verticalAlign=middle;whiteSpace=wrap;rounded=0;labelBackgroundColor=#FFFFFF;sketch=0;fontSize=24;" parent="5XhvWTHa4kCGjs2N_sCD-1" vertex="1">
          <mxGeometry x="362" y="797" width="264" height="70" as="geometry" />
        </mxCell>
        <mxCell id="5XhvWTHa4kCGjs2N_sCD-53" value="&lt;font style=&quot;font-size: 24px&quot;&gt;Mapping Algorithm&lt;br&gt;&lt;/font&gt;" style="text;html=1;strokeColor=none;fillColor=none;align=center;verticalAlign=middle;whiteSpace=wrap;rounded=0;labelBackgroundColor=#FFFFFF;sketch=0;fontSize=24;" parent="5XhvWTHa4kCGjs2N_sCD-1" vertex="1">
          <mxGeometry x="702.5" y="797" width="230" height="70" as="geometry" />
        </mxCell>
        <mxCell id="5XhvWTHa4kCGjs2N_sCD-54" value="Instance Creation" style="text;html=1;strokeColor=none;fillColor=none;align=center;verticalAlign=middle;whiteSpace=wrap;rounded=0;labelBackgroundColor=#FFFFFF;sketch=0;fontSize=24;" parent="5XhvWTHa4kCGjs2N_sCD-1" vertex="1">
          <mxGeometry x="1024" y="797" width="230" height="70" as="geometry" />
        </mxCell>
      </root>
    </mxGraphModel>
  </diagram>
  <diagram id="C5RBs43oDa-KdzZeNtuy" name="Main Process">
    <mxGraphModel dx="969" dy="510" grid="1" gridSize="10" guides="1" tooltips="1" connect="1" arrows="1" fold="1" page="1" pageScale="1" pageWidth="827" pageHeight="1169" math="0" shadow="0">
      <root>
        <mxCell id="WIyWlLk6GJQsqaUBKTNV-0" />
        <mxCell id="WIyWlLk6GJQsqaUBKTNV-1" parent="WIyWlLk6GJQsqaUBKTNV-0" />
        <mxCell id="MY45ahjLPXIU39Dc3k0F-3" style="edgeStyle=orthogonalEdgeStyle;rounded=0;orthogonalLoop=1;jettySize=auto;html=1;exitX=0.5;exitY=1;exitDx=0;exitDy=0;entryX=0.5;entryY=0;entryDx=0;entryDy=0;fontSize=12;" parent="WIyWlLk6GJQsqaUBKTNV-1" source="WIyWlLk6GJQsqaUBKTNV-3" target="R_WaBA2uqh7EueeXJ1At-0" edge="1">
          <mxGeometry relative="1" as="geometry" />
        </mxCell>
        <mxCell id="WIyWlLk6GJQsqaUBKTNV-3" value="START" style="rounded=1;whiteSpace=wrap;html=1;fontSize=12;glass=0;strokeWidth=1;shadow=0;fillColor=#d5e8d4;strokeColor=#82b366;" parent="WIyWlLk6GJQsqaUBKTNV-1" vertex="1">
          <mxGeometry x="382" y="170" width="64" height="50" as="geometry" />
        </mxCell>
        <mxCell id="BV0zTZhIKzKz3aYKpmIw-39" style="edgeStyle=orthogonalEdgeStyle;rounded=0;orthogonalLoop=1;jettySize=auto;html=1;exitX=0.5;exitY=1;exitDx=0;exitDy=0;entryX=0.5;entryY=0;entryDx=0;entryDy=0;" parent="WIyWlLk6GJQsqaUBKTNV-1" source="sb5MXrGshWedOeffpbGY-7" target="sb5MXrGshWedOeffpbGY-8" edge="1">
          <mxGeometry relative="1" as="geometry">
            <mxPoint x="870" y="70" as="sourcePoint" />
            <mxPoint x="414" y="560" as="targetPoint" />
          </mxGeometry>
        </mxCell>
        <mxCell id="BV0zTZhIKzKz3aYKpmIw-62" style="edgeStyle=orthogonalEdgeStyle;rounded=0;orthogonalLoop=1;jettySize=auto;html=1;exitX=0.5;exitY=1;exitDx=0;exitDy=0;entryX=0.5;entryY=0;entryDx=0;entryDy=0;" parent="WIyWlLk6GJQsqaUBKTNV-1" source="sb5MXrGshWedOeffpbGY-8" target="BV0zTZhIKzKz3aYKpmIw-61" edge="1">
          <mxGeometry relative="1" as="geometry">
            <mxPoint x="1061" y="70" as="sourcePoint" />
          </mxGeometry>
        </mxCell>
        <mxCell id="BV0zTZhIKzKz3aYKpmIw-61" value="END" style="rounded=1;whiteSpace=wrap;html=1;fontSize=12;glass=0;strokeWidth=1;shadow=0;fillColor=#f8cecc;strokeColor=#b85450;" parent="WIyWlLk6GJQsqaUBKTNV-1" vertex="1">
          <mxGeometry x="387" y="610" width="54" height="50" as="geometry" />
        </mxCell>
        <mxCell id="xpp0dOsvClgLhX08VQeV-2" style="edgeStyle=orthogonalEdgeStyle;rounded=0;orthogonalLoop=1;jettySize=auto;html=1;exitX=0.5;exitY=1;exitDx=0;exitDy=0;entryX=0.5;entryY=0;entryDx=0;entryDy=0;fontSize=12;" parent="WIyWlLk6GJQsqaUBKTNV-1" source="sb5MXrGshWedOeffpbGY-6" target="sb5MXrGshWedOeffpbGY-7" edge="1">
          <mxGeometry relative="1" as="geometry" />
        </mxCell>
        <mxCell id="sb5MXrGshWedOeffpbGY-6" value="Map products to classes in the ontology" style="rounded=0;whiteSpace=wrap;html=1;fontSize=12;align=center;fillColor=#f5f5f5;strokeColor=#666666;fontColor=#333333;" parent="WIyWlLk6GJQsqaUBKTNV-1" vertex="1">
          <mxGeometry x="344" y="340" width="140" height="60" as="geometry" />
        </mxCell>
        <mxCell id="sb5MXrGshWedOeffpbGY-7" value="Map product specifications to properties in the ontology" style="rounded=0;whiteSpace=wrap;html=1;fontSize=12;align=center;fillColor=#f5f5f5;strokeColor=#666666;fontColor=#333333;" parent="WIyWlLk6GJQsqaUBKTNV-1" vertex="1">
          <mxGeometry x="344" y="430" width="140" height="60" as="geometry" />
        </mxCell>
        <mxCell id="sb5MXrGshWedOeffpbGY-8" value="Generate instances in the ontology" style="rounded=0;whiteSpace=wrap;html=1;fontSize=12;align=center;fillColor=#f5f5f5;strokeColor=#666666;fontColor=#333333;" parent="WIyWlLk6GJQsqaUBKTNV-1" vertex="1">
          <mxGeometry x="344" y="520" width="140" height="60" as="geometry" />
        </mxCell>
        <mxCell id="MY45ahjLPXIU39Dc3k0F-0" style="edgeStyle=orthogonalEdgeStyle;rounded=0;orthogonalLoop=1;jettySize=auto;html=1;exitX=0.5;exitY=1;exitDx=0;exitDy=0;entryX=0.5;entryY=0;entryDx=0;entryDy=0;fontSize=12;" parent="WIyWlLk6GJQsqaUBKTNV-1" source="R_WaBA2uqh7EueeXJ1At-0" target="sb5MXrGshWedOeffpbGY-6" edge="1">
          <mxGeometry relative="1" as="geometry">
            <mxPoint x="544" y="190" as="targetPoint" />
          </mxGeometry>
        </mxCell>
        <mxCell id="R_WaBA2uqh7EueeXJ1At-0" value="Build a web scraping agent for each target website" style="rounded=0;whiteSpace=wrap;html=1;fontSize=12;align=center;fillColor=#f5f5f5;strokeColor=#666666;fontColor=#333333;" parent="WIyWlLk6GJQsqaUBKTNV-1" vertex="1">
          <mxGeometry x="344" y="250" width="140" height="60" as="geometry" />
        </mxCell>
        <mxCell id="xpp0dOsvClgLhX08VQeV-0" value="&lt;font style=&quot;font-size: 22px&quot;&gt;&lt;b&gt;&lt;font style=&quot;font-size: 22px&quot;&gt;MAIN PROCESS&lt;br&gt;&lt;/font&gt;&lt;/b&gt;&lt;/font&gt;" style="text;html=1;align=center;verticalAlign=middle;resizable=0;points=[];autosize=1;strokeColor=none;fontSize=12;" parent="WIyWlLk6GJQsqaUBKTNV-1" vertex="1">
          <mxGeometry x="110" y="55" width="190" height="20" as="geometry" />
        </mxCell>
      </root>
    </mxGraphModel>
  </diagram>
  <diagram id="rmoUtogqIKaF25FMxWkl" name="Web Scraping">
    <mxGraphModel dx="3755" dy="1898" grid="1" gridSize="10" guides="1" tooltips="1" connect="1" arrows="1" fold="1" page="1" pageScale="1" pageWidth="1200" pageHeight="1600" math="0" shadow="0">
      <root>
        <mxCell id="bBVs3xt9xhwID2CrAJai-0" />
        <mxCell id="bBVs3xt9xhwID2CrAJai-1" parent="bBVs3xt9xhwID2CrAJai-0" />
        <mxCell id="pAXd3pz14lu3LsYsq82b-1" value="" style="rounded=0;whiteSpace=wrap;html=1;fillColor=none;dashed=1;" parent="bBVs3xt9xhwID2CrAJai-1" vertex="1">
          <mxGeometry x="205" y="704" width="790" height="652" as="geometry" />
        </mxCell>
        <mxCell id="W8yKc3MEfRFuijHFqTto-1" style="edgeStyle=orthogonalEdgeStyle;rounded=0;orthogonalLoop=1;jettySize=auto;html=1;exitX=0.5;exitY=1;exitDx=0;exitDy=0;entryX=0.5;entryY=0;entryDx=0;entryDy=0;" parent="bBVs3xt9xhwID2CrAJai-1" source="LFLx8wW5Kx8hPZZE6uJq-1" target="W8yKc3MEfRFuijHFqTto-0" edge="1">
          <mxGeometry relative="1" as="geometry" />
        </mxCell>
        <mxCell id="LFLx8wW5Kx8hPZZE6uJq-1" value="START" style="rounded=1;whiteSpace=wrap;html=1;fontSize=12;glass=0;strokeWidth=1;shadow=0;fillColor=#d5e8d4;strokeColor=#82b366;" parent="bBVs3xt9xhwID2CrAJai-1" vertex="1">
          <mxGeometry x="573" y="80" width="64" height="50" as="geometry" />
        </mxCell>
        <mxCell id="LFLx8wW5Kx8hPZZE6uJq-2" value="Yes" style="edgeStyle=orthogonalEdgeStyle;rounded=0;orthogonalLoop=1;jettySize=auto;html=1;exitX=0;exitY=0.5;exitDx=0;exitDy=0;entryX=1;entryY=0.5;entryDx=0;entryDy=0;" parent="bBVs3xt9xhwID2CrAJai-1" source="LFLx8wW5Kx8hPZZE6uJq-4" target="LFLx8wW5Kx8hPZZE6uJq-8" edge="1">
          <mxGeometry x="-0.1321" relative="1" as="geometry">
            <mxPoint as="offset" />
            <mxPoint x="472" y="454" as="sourcePoint" />
          </mxGeometry>
        </mxCell>
        <mxCell id="LFLx8wW5Kx8hPZZE6uJq-3" value="No" style="edgeStyle=orthogonalEdgeStyle;rounded=0;orthogonalLoop=1;jettySize=auto;html=1;exitX=1;exitY=0.5;exitDx=0;exitDy=0;entryX=0.5;entryY=0;entryDx=0;entryDy=0;" parent="bBVs3xt9xhwID2CrAJai-1" source="LFLx8wW5Kx8hPZZE6uJq-4" target="n8-rmFNZyjq69NH7jy1r-1" edge="1">
          <mxGeometry x="-0.6746" relative="1" as="geometry">
            <mxPoint x="916" y="334" as="targetPoint" />
            <Array as="points" />
            <mxPoint as="offset" />
          </mxGeometry>
        </mxCell>
        <mxCell id="LFLx8wW5Kx8hPZZE6uJq-4" value="&lt;div&gt;Does the target &lt;br&gt;&lt;/div&gt;&lt;div&gt;website have a sitemap?&lt;/div&gt;" style="rhombus;whiteSpace=wrap;html=1;shadow=0;fontFamily=Helvetica;fontSize=12;align=center;strokeWidth=1;spacing=6;spacingTop=-4;fillColor=#fff2cc;strokeColor=#d6b656;" parent="bBVs3xt9xhwID2CrAJai-1" vertex="1">
          <mxGeometry x="535" y="250" width="140" height="120" as="geometry" />
        </mxCell>
        <mxCell id="LFLx8wW5Kx8hPZZE6uJq-6" value="No" style="edgeStyle=orthogonalEdgeStyle;rounded=0;orthogonalLoop=1;jettySize=auto;html=1;exitX=0.5;exitY=1;exitDx=0;exitDy=0;entryX=0;entryY=0.5;entryDx=0;entryDy=0;" parent="bBVs3xt9xhwID2CrAJai-1" source="LFLx8wW5Kx8hPZZE6uJq-8" target="n8-rmFNZyjq69NH7jy1r-1" edge="1">
          <mxGeometry x="0.1414" relative="1" as="geometry">
            <mxPoint x="916" y="334" as="targetPoint" />
            <mxPoint as="offset" />
            <Array as="points">
              <mxPoint x="406" y="439" />
            </Array>
          </mxGeometry>
        </mxCell>
        <mxCell id="LFLx8wW5Kx8hPZZE6uJq-7" value="Yes" style="edgeStyle=orthogonalEdgeStyle;rounded=0;orthogonalLoop=1;jettySize=auto;html=1;exitX=0;exitY=0.5;exitDx=0;exitDy=0;entryX=0.5;entryY=0;entryDx=0;entryDy=0;" parent="bBVs3xt9xhwID2CrAJai-1" source="LFLx8wW5Kx8hPZZE6uJq-8" target="n8-rmFNZyjq69NH7jy1r-0" edge="1">
          <mxGeometry x="-0.3386" relative="1" as="geometry">
            <mxPoint x="396" y="564" as="targetPoint" />
            <mxPoint as="offset" />
          </mxGeometry>
        </mxCell>
        <mxCell id="LFLx8wW5Kx8hPZZE6uJq-8" value="&lt;div&gt;Can product&lt;/div&gt;&lt;div&gt; pages be clearly identified based on &lt;br&gt;&lt;/div&gt;&lt;div&gt;their URL?&lt;/div&gt;" style="rhombus;whiteSpace=wrap;html=1;shadow=0;fontFamily=Helvetica;fontSize=12;align=center;strokeWidth=1;spacing=6;spacingTop=-4;fillColor=#fff2cc;strokeColor=#d6b656;" parent="bBVs3xt9xhwID2CrAJai-1" vertex="1">
          <mxGeometry x="336" y="250" width="140" height="120" as="geometry" />
        </mxCell>
        <mxCell id="LFLx8wW5Kx8hPZZE6uJq-10" value="Yes" style="edgeStyle=orthogonalEdgeStyle;rounded=0;orthogonalLoop=1;jettySize=auto;html=1;exitX=0;exitY=0.5;exitDx=0;exitDy=0;entryX=1;entryY=0.5;entryDx=0;entryDy=0;" parent="bBVs3xt9xhwID2CrAJai-1" source="LFLx8wW5Kx8hPZZE6uJq-12" target="LFLx8wW5Kx8hPZZE6uJq-16" edge="1">
          <mxGeometry x="0.0169" relative="1" as="geometry">
            <mxPoint x="386" y="725" as="targetPoint" />
            <mxPoint as="offset" />
            <Array as="points" />
          </mxGeometry>
        </mxCell>
        <mxCell id="LFLx8wW5Kx8hPZZE6uJq-11" value="No" style="edgeStyle=orthogonalEdgeStyle;rounded=0;orthogonalLoop=1;jettySize=auto;html=1;exitX=0.5;exitY=1;exitDx=0;exitDy=0;fontSize=11;entryX=0.5;entryY=0;entryDx=0;entryDy=0;" parent="bBVs3xt9xhwID2CrAJai-1" source="LFLx8wW5Kx8hPZZE6uJq-12" target="pz64BV4t3Ft2-2I2X3Z4-2" edge="1">
          <mxGeometry x="-0.5924" y="-1" relative="1" as="geometry">
            <mxPoint x="1386" y="428" as="targetPoint" />
            <mxPoint as="offset" />
            <Array as="points" />
          </mxGeometry>
        </mxCell>
        <mxCell id="LFLx8wW5Kx8hPZZE6uJq-12" value="&lt;div&gt;Do web &lt;br&gt;&lt;/div&gt;&lt;div&gt;pages in the target website load content dynamically?&lt;/div&gt;" style="rhombus;whiteSpace=wrap;html=1;shadow=0;fontFamily=Helvetica;fontSize=12;align=center;strokeWidth=1;spacing=6;spacingTop=-4;fillColor=#fff2cc;strokeColor=#d6b656;" parent="bBVs3xt9xhwID2CrAJai-1" vertex="1">
          <mxGeometry x="535" y="557" width="140" height="120" as="geometry" />
        </mxCell>
        <mxCell id="LFLx8wW5Kx8hPZZE6uJq-13" style="edgeStyle=orthogonalEdgeStyle;rounded=0;orthogonalLoop=1;jettySize=auto;html=1;exitX=0.5;exitY=1;exitDx=0;exitDy=0;entryX=0.5;entryY=0;entryDx=0;entryDy=0;" parent="bBVs3xt9xhwID2CrAJai-1" source="LFLx8wW5Kx8hPZZE6uJq-16" target="pz64BV4t3Ft2-2I2X3Z4-2" edge="1">
          <mxGeometry relative="1" as="geometry">
            <mxPoint x="1162" y="298" as="sourcePoint" />
            <mxPoint x="1226" y="412" as="targetPoint" />
            <Array as="points">
              <mxPoint x="466" y="696" />
              <mxPoint x="669" y="696" />
            </Array>
          </mxGeometry>
        </mxCell>
        <mxCell id="W8yKc3MEfRFuijHFqTto-4" style="edgeStyle=orthogonalEdgeStyle;rounded=0;orthogonalLoop=1;jettySize=auto;html=1;exitX=0;exitY=0.5;exitDx=0;exitDy=0;entryX=0.5;entryY=0;entryDx=0;entryDy=0;" parent="bBVs3xt9xhwID2CrAJai-1" source="LFLx8wW5Kx8hPZZE6uJq-14" target="LFLx8wW5Kx8hPZZE6uJq-12" edge="1">
          <mxGeometry relative="1" as="geometry" />
        </mxCell>
        <mxCell id="LFLx8wW5Kx8hPZZE6uJq-14" value="&lt;div style=&quot;font-size: 12px&quot; align=&quot;center&quot;&gt;&lt;font style=&quot;font-size: 12px&quot;&gt;Perform focused crawling with depth1 from seed URLs&lt;/font&gt;&lt;/div&gt;" style="rounded=0;whiteSpace=wrap;html=1;fontSize=12;align=center;fillColor=#f5f5f5;strokeColor=#666666;fontColor=#333333;" parent="bBVs3xt9xhwID2CrAJai-1" vertex="1">
          <mxGeometry x="825" y="497" width="140" height="60" as="geometry" />
        </mxCell>
        <mxCell id="W8yKc3MEfRFuijHFqTto-3" style="edgeStyle=orthogonalEdgeStyle;rounded=0;orthogonalLoop=1;jettySize=auto;html=1;exitX=1;exitY=0.5;exitDx=0;exitDy=0;entryX=0.5;entryY=0;entryDx=0;entryDy=0;" parent="bBVs3xt9xhwID2CrAJai-1" source="LFLx8wW5Kx8hPZZE6uJq-15" target="LFLx8wW5Kx8hPZZE6uJq-12" edge="1">
          <mxGeometry relative="1" as="geometry" />
        </mxCell>
        <mxCell id="LFLx8wW5Kx8hPZZE6uJq-15" value="&lt;font style=&quot;font-size: 12px&quot;&gt;Perform focused crawling following sitemap links&lt;/font&gt;" style="rounded=0;whiteSpace=wrap;html=1;fontSize=12;align=center;fillColor=#f5f5f5;strokeColor=#666666;fontColor=#333333;" parent="bBVs3xt9xhwID2CrAJai-1" vertex="1">
          <mxGeometry x="225" y="497" width="140" height="60" as="geometry" />
        </mxCell>
        <mxCell id="LFLx8wW5Kx8hPZZE6uJq-16" value="Use web browser simulator" style="rounded=0;whiteSpace=wrap;html=1;fontSize=12;align=center;fillColor=#f5f5f5;strokeColor=#666666;fontColor=#333333;" parent="bBVs3xt9xhwID2CrAJai-1" vertex="1">
          <mxGeometry x="345" y="587" width="140" height="60" as="geometry" />
        </mxCell>
        <mxCell id="K8RTa-_aM5m4qRV_zCV6-2" style="edgeStyle=orthogonalEdgeStyle;rounded=0;orthogonalLoop=1;jettySize=auto;html=1;exitX=0.5;exitY=1;exitDx=0;exitDy=0;entryX=0.5;entryY=0;entryDx=0;entryDy=0;fontSize=12;" parent="bBVs3xt9xhwID2CrAJai-1" source="n8-rmFNZyjq69NH7jy1r-1" target="LFLx8wW5Kx8hPZZE6uJq-14" edge="1">
          <mxGeometry relative="1" as="geometry">
            <mxPoint x="945" y="386" as="sourcePoint" />
          </mxGeometry>
        </mxCell>
        <mxCell id="pz64BV4t3Ft2-2I2X3Z4-0" value="Yes" style="edgeStyle=orthogonalEdgeStyle;rounded=0;orthogonalLoop=1;jettySize=auto;html=1;exitX=0;exitY=0.5;exitDx=0;exitDy=0;entryX=1;entryY=0.5;entryDx=0;entryDy=0;fontSize=12;" parent="bBVs3xt9xhwID2CrAJai-1" target="pz64BV4t3Ft2-2I2X3Z4-5" edge="1">
          <mxGeometry x="0.159" relative="1" as="geometry">
            <mxPoint as="offset" />
            <mxPoint x="619" y="778" as="sourcePoint" />
            <Array as="points">
              <mxPoint x="546" y="778" />
              <mxPoint x="546" y="778" />
            </Array>
          </mxGeometry>
        </mxCell>
        <mxCell id="pz64BV4t3Ft2-2I2X3Z4-1" value="No" style="edgeStyle=orthogonalEdgeStyle;rounded=0;orthogonalLoop=1;jettySize=auto;html=1;exitX=1;exitY=0.5;exitDx=0;exitDy=0;entryX=0.5;entryY=0;entryDx=0;entryDy=0;fontSize=12;" parent="bBVs3xt9xhwID2CrAJai-1" source="pz64BV4t3Ft2-2I2X3Z4-2" target="n8-rmFNZyjq69NH7jy1r-7" edge="1">
          <mxGeometry x="-0.3593" relative="1" as="geometry">
            <mxPoint as="offset" />
            <mxPoint x="936" y="915.0000000000002" as="targetPoint" />
          </mxGeometry>
        </mxCell>
        <mxCell id="pz64BV4t3Ft2-2I2X3Z4-2" value="&lt;div&gt;Do Product &lt;br&gt;&lt;/div&gt;&lt;div&gt;webpages include annotated&lt;/div&gt;&lt;div&gt; information?&lt;/div&gt;" style="rhombus;whiteSpace=wrap;html=1;shadow=0;fontFamily=Helvetica;fontSize=12;align=center;strokeWidth=1;spacing=6;spacingTop=-4;fillColor=#fff2cc;strokeColor=#d6b656;" parent="bBVs3xt9xhwID2CrAJai-1" vertex="1">
          <mxGeometry x="535" y="718" width="140" height="120" as="geometry" />
        </mxCell>
        <mxCell id="pz64BV4t3Ft2-2I2X3Z4-3" value="END" style="rounded=1;whiteSpace=wrap;html=1;fontSize=12;glass=0;strokeWidth=1;shadow=0;fillColor=#f8cecc;strokeColor=#b85450;" parent="bBVs3xt9xhwID2CrAJai-1" vertex="1">
          <mxGeometry x="578" y="1455" width="54" height="50" as="geometry" />
        </mxCell>
        <mxCell id="K8RTa-_aM5m4qRV_zCV6-5" style="edgeStyle=orthogonalEdgeStyle;rounded=0;orthogonalLoop=1;jettySize=auto;html=1;exitX=0.5;exitY=1;exitDx=0;exitDy=0;entryX=0.5;entryY=0;entryDx=0;entryDy=0;fontSize=12;" parent="bBVs3xt9xhwID2CrAJai-1" source="pz64BV4t3Ft2-2I2X3Z4-5" target="pz64BV4t3Ft2-2I2X3Z4-9" edge="1">
          <mxGeometry relative="1" as="geometry" />
        </mxCell>
        <mxCell id="pz64BV4t3Ft2-2I2X3Z4-5" value="Identify mark-up language and annotation format" style="rounded=0;whiteSpace=wrap;html=1;fontSize=12;align=center;fillColor=#f5f5f5;strokeColor=#666666;fontColor=#333333;" parent="bBVs3xt9xhwID2CrAJai-1" vertex="1">
          <mxGeometry x="225" y="754.5" width="140" height="47" as="geometry" />
        </mxCell>
        <mxCell id="pz64BV4t3Ft2-2I2X3Z4-6" style="edgeStyle=orthogonalEdgeStyle;rounded=0;orthogonalLoop=1;jettySize=auto;html=1;exitX=0.5;exitY=1;exitDx=0;exitDy=0;entryX=0.5;entryY=0;entryDx=0;entryDy=0;fontSize=12;" parent="bBVs3xt9xhwID2CrAJai-1" source="n8-rmFNZyjq69NH7jy1r-7" target="n8-rmFNZyjq69NH7jy1r-8" edge="1">
          <mxGeometry relative="1" as="geometry">
            <mxPoint x="936" y="975.0000000000002" as="sourcePoint" />
            <mxPoint x="936" y="1069.9999999999998" as="targetPoint" />
          </mxGeometry>
        </mxCell>
        <mxCell id="K8RTa-_aM5m4qRV_zCV6-6" style="edgeStyle=orthogonalEdgeStyle;rounded=0;orthogonalLoop=1;jettySize=auto;html=1;exitX=0.5;exitY=1;exitDx=0;exitDy=0;entryX=0.5;entryY=0;entryDx=0;entryDy=0;fontSize=12;" parent="bBVs3xt9xhwID2CrAJai-1" source="pz64BV4t3Ft2-2I2X3Z4-9" target="pz64BV4t3Ft2-2I2X3Z4-12" edge="1">
          <mxGeometry relative="1" as="geometry" />
        </mxCell>
        <mxCell id="pz64BV4t3Ft2-2I2X3Z4-9" value="Extract ordered key-value pairs" style="rounded=0;whiteSpace=wrap;html=1;fontSize=12;align=center;fillColor=#f5f5f5;strokeColor=#666666;fontColor=#333333;" parent="bBVs3xt9xhwID2CrAJai-1" vertex="1">
          <mxGeometry x="225" y="820" width="140" height="45" as="geometry" />
        </mxCell>
        <mxCell id="pz64BV4t3Ft2-2I2X3Z4-10" value="Yes" style="edgeStyle=orthogonalEdgeStyle;rounded=0;orthogonalLoop=1;jettySize=auto;html=1;exitX=0.5;exitY=1;exitDx=0;exitDy=0;fontSize=12;entryX=0.5;entryY=0;entryDx=0;entryDy=0;" parent="bBVs3xt9xhwID2CrAJai-1" source="pz64BV4t3Ft2-2I2X3Z4-12" target="mIPWAmm3bjOfkEMKY2p9-0" edge="1">
          <mxGeometry x="-0.5" relative="1" as="geometry">
            <mxPoint x="1415" y="998" as="targetPoint" />
            <mxPoint as="offset" />
            <mxPoint x="1235" y="998" as="sourcePoint" />
            <Array as="points" />
          </mxGeometry>
        </mxCell>
        <mxCell id="pz64BV4t3Ft2-2I2X3Z4-11" value="No" style="edgeStyle=orthogonalEdgeStyle;rounded=0;orthogonalLoop=1;jettySize=auto;html=1;exitX=1;exitY=0.5;exitDx=0;exitDy=0;entryX=0;entryY=0.5;entryDx=0;entryDy=0;fontSize=12;" parent="bBVs3xt9xhwID2CrAJai-1" source="pz64BV4t3Ft2-2I2X3Z4-12" target="n8-rmFNZyjq69NH7jy1r-5" edge="1">
          <mxGeometry x="-0.1429" relative="1" as="geometry">
            <mxPoint as="offset" />
            <mxPoint x="1136" y="1058" as="sourcePoint" />
            <mxPoint x="516" y="945" as="targetPoint" />
          </mxGeometry>
        </mxCell>
        <mxCell id="pz64BV4t3Ft2-2I2X3Z4-12" value="&lt;div&gt;Is the product &lt;br&gt;&lt;/div&gt;&lt;div&gt;name included in &lt;br&gt;&lt;/div&gt;&lt;div&gt;the extract?&lt;/div&gt;" style="rhombus;whiteSpace=wrap;html=1;shadow=0;fontFamily=Helvetica;fontSize=12;align=center;strokeWidth=1;spacing=6;spacingTop=-4;fillColor=#fff2cc;strokeColor=#d6b656;" parent="bBVs3xt9xhwID2CrAJai-1" vertex="1">
          <mxGeometry x="225" y="886.5" width="140" height="120" as="geometry" />
        </mxCell>
        <mxCell id="pz64BV4t3Ft2-2I2X3Z4-13" value="Yes" style="edgeStyle=orthogonalEdgeStyle;rounded=0;orthogonalLoop=1;jettySize=auto;html=1;exitX=0.5;exitY=1;exitDx=0;exitDy=0;entryX=0.5;entryY=0;entryDx=0;entryDy=0;fontSize=12;" parent="bBVs3xt9xhwID2CrAJai-1" source="pz64BV4t3Ft2-2I2X3Z4-15" target="W8yKc3MEfRFuijHFqTto-5" edge="1">
          <mxGeometry x="-0.7143" relative="1" as="geometry">
            <Array as="points">
              <mxPoint x="295" y="1336" />
              <mxPoint x="605" y="1336" />
            </Array>
            <mxPoint as="offset" />
            <mxPoint x="1506" y="1093" as="sourcePoint" />
          </mxGeometry>
        </mxCell>
        <mxCell id="pz64BV4t3Ft2-2I2X3Z4-14" value="&lt;div&gt;No&lt;/div&gt;" style="edgeStyle=orthogonalEdgeStyle;rounded=0;orthogonalLoop=1;jettySize=auto;html=1;exitX=1;exitY=0.5;exitDx=0;exitDy=0;entryX=0;entryY=0.5;entryDx=0;entryDy=0;fontSize=12;" parent="bBVs3xt9xhwID2CrAJai-1" source="pz64BV4t3Ft2-2I2X3Z4-15" target="n8-rmFNZyjq69NH7jy1r-9" edge="1">
          <mxGeometry relative="1" as="geometry">
            <mxPoint x="1436" y="1153" as="sourcePoint" />
            <mxPoint x="866" y="1258" as="targetPoint" />
          </mxGeometry>
        </mxCell>
        <mxCell id="pz64BV4t3Ft2-2I2X3Z4-15" value="&lt;div&gt;Are product specifications &lt;br&gt;&lt;/div&gt;&lt;div&gt;included in the &lt;br&gt;&lt;/div&gt;&lt;div&gt;extract?&lt;/div&gt;" style="rhombus;whiteSpace=wrap;html=1;shadow=0;fontFamily=Helvetica;fontSize=12;align=center;strokeWidth=1;spacing=6;spacingTop=-4;fillColor=#fff2cc;strokeColor=#d6b656;" parent="bBVs3xt9xhwID2CrAJai-1" vertex="1">
          <mxGeometry x="225" y="1194" width="140" height="120" as="geometry" />
        </mxCell>
        <mxCell id="pz64BV4t3Ft2-2I2X3Z4-16" style="edgeStyle=orthogonalEdgeStyle;rounded=0;orthogonalLoop=1;jettySize=auto;html=1;exitX=0.5;exitY=1;exitDx=0;exitDy=0;entryX=0.5;entryY=0;entryDx=0;entryDy=0;fontSize=12;" parent="bBVs3xt9xhwID2CrAJai-1" source="n8-rmFNZyjq69NH7jy1r-5" target="mIPWAmm3bjOfkEMKY2p9-0" edge="1">
          <mxGeometry relative="1" as="geometry">
            <mxPoint x="1386" y="998" as="targetPoint" />
            <Array as="points">
              <mxPoint x="605" y="1025" />
              <mxPoint x="295" y="1025" />
            </Array>
            <mxPoint x="586" y="975" as="sourcePoint" />
          </mxGeometry>
        </mxCell>
        <mxCell id="mIPWAmm3bjOfkEMKY2p9-2" value="No" style="edgeStyle=orthogonalEdgeStyle;rounded=0;orthogonalLoop=1;jettySize=auto;html=1;exitX=1;exitY=0.5;exitDx=0;exitDy=0;fontSize=12;entryX=0;entryY=0.5;entryDx=0;entryDy=0;" parent="bBVs3xt9xhwID2CrAJai-1" source="mIPWAmm3bjOfkEMKY2p9-0" target="n8-rmFNZyjq69NH7jy1r-6" edge="1">
          <mxGeometry relative="1" as="geometry">
            <mxPoint x="516" y="1100" as="targetPoint" />
          </mxGeometry>
        </mxCell>
        <mxCell id="mIPWAmm3bjOfkEMKY2p9-3" value="Yes" style="edgeStyle=orthogonalEdgeStyle;rounded=0;orthogonalLoop=1;jettySize=auto;html=1;exitX=0.5;exitY=1;exitDx=0;exitDy=0;entryX=0.5;entryY=0;entryDx=0;entryDy=0;fontSize=12;" parent="bBVs3xt9xhwID2CrAJai-1" source="mIPWAmm3bjOfkEMKY2p9-0" target="pz64BV4t3Ft2-2I2X3Z4-15" edge="1">
          <mxGeometry x="-0.5625" relative="1" as="geometry">
            <mxPoint as="offset" />
          </mxGeometry>
        </mxCell>
        <mxCell id="mIPWAmm3bjOfkEMKY2p9-0" value="&lt;div&gt;Is the product &lt;br&gt;&lt;/div&gt;&lt;div&gt;category included in &lt;br&gt;&lt;/div&gt;&lt;div&gt;the extract?&lt;/div&gt;" style="rhombus;whiteSpace=wrap;html=1;shadow=0;fontFamily=Helvetica;fontSize=12;align=center;strokeWidth=1;spacing=6;spacingTop=-4;fillColor=#fff2cc;strokeColor=#d6b656;" parent="bBVs3xt9xhwID2CrAJai-1" vertex="1">
          <mxGeometry x="225" y="1040" width="140" height="120" as="geometry" />
        </mxCell>
        <mxCell id="mIPWAmm3bjOfkEMKY2p9-4" style="edgeStyle=orthogonalEdgeStyle;rounded=0;orthogonalLoop=1;jettySize=auto;html=1;exitX=0.5;exitY=1;exitDx=0;exitDy=0;entryX=0.5;entryY=0;entryDx=0;entryDy=0;fontSize=12;" parent="bBVs3xt9xhwID2CrAJai-1" source="n8-rmFNZyjq69NH7jy1r-6" target="pz64BV4t3Ft2-2I2X3Z4-15" edge="1">
          <mxGeometry relative="1" as="geometry">
            <Array as="points">
              <mxPoint x="605" y="1178" />
              <mxPoint x="295" y="1178" />
            </Array>
            <mxPoint x="600" y="1122.5" as="sourcePoint" />
            <mxPoint x="266" y="1188" as="targetPoint" />
          </mxGeometry>
        </mxCell>
        <mxCell id="mIPWAmm3bjOfkEMKY2p9-6" style="edgeStyle=orthogonalEdgeStyle;rounded=0;orthogonalLoop=1;jettySize=auto;html=1;fontSize=12;exitX=0.5;exitY=1;exitDx=0;exitDy=0;entryX=0.5;entryY=0;entryDx=0;entryDy=0;" parent="bBVs3xt9xhwID2CrAJai-1" source="n8-rmFNZyjq69NH7jy1r-8" target="n8-rmFNZyjq69NH7jy1r-9" edge="1">
          <mxGeometry relative="1" as="geometry">
            <mxPoint x="936" y="1130" as="sourcePoint" />
            <mxPoint x="936" y="1228" as="targetPoint" />
          </mxGeometry>
        </mxCell>
        <mxCell id="pAXd3pz14lu3LsYsq82b-2" value="&lt;font style=&quot;font-size: 20px&quot;&gt;Parse Algorithm&lt;/font&gt;" style="text;html=1;align=center;verticalAlign=middle;resizable=0;points=[];autosize=1;strokeColor=none;" parent="bBVs3xt9xhwID2CrAJai-1" vertex="1">
          <mxGeometry x="815" y="718" width="160" height="20" as="geometry" />
        </mxCell>
        <mxCell id="n8-rmFNZyjq69NH7jy1r-2" style="edgeStyle=orthogonalEdgeStyle;rounded=0;orthogonalLoop=1;jettySize=auto;html=1;exitX=0.5;exitY=1;exitDx=0;exitDy=0;entryX=0.5;entryY=0;entryDx=0;entryDy=0;" parent="bBVs3xt9xhwID2CrAJai-1" source="n8-rmFNZyjq69NH7jy1r-0" target="LFLx8wW5Kx8hPZZE6uJq-15" edge="1">
          <mxGeometry relative="1" as="geometry" />
        </mxCell>
        <mxCell id="n8-rmFNZyjq69NH7jy1r-0" value="Input Sitemap URL" style="shape=parallelogram;perimeter=parallelogramPerimeter;whiteSpace=wrap;html=1;fixedSize=1;rounded=0;strokeColor=#6c8ebf;fillColor=#dae8fc;" parent="bBVs3xt9xhwID2CrAJai-1" vertex="1">
          <mxGeometry x="205" y="410" width="180" height="57" as="geometry" />
        </mxCell>
        <mxCell id="n8-rmFNZyjq69NH7jy1r-1" value="&lt;div&gt;Input category pages &lt;br&gt;&lt;/div&gt;&lt;div&gt;URLs that point to the &lt;br&gt;&lt;/div&gt;&lt;div&gt;desired product pages &lt;/div&gt;" style="shape=parallelogram;perimeter=parallelogramPerimeter;whiteSpace=wrap;html=1;fixedSize=1;rounded=0;strokeColor=#6c8ebf;fillColor=#dae8fc;" parent="bBVs3xt9xhwID2CrAJai-1" vertex="1">
          <mxGeometry x="805" y="410" width="180" height="57" as="geometry" />
        </mxCell>
        <mxCell id="n8-rmFNZyjq69NH7jy1r-5" value="&lt;div&gt;Input CSS or XPath &lt;br&gt;&lt;/div&gt;&lt;div&gt;expressions to extract &lt;br&gt;&lt;/div&gt;&lt;div&gt;product name&lt;/div&gt;" style="shape=parallelogram;perimeter=parallelogramPerimeter;whiteSpace=wrap;html=1;fixedSize=1;rounded=0;strokeColor=#6c8ebf;fillColor=#dae8fc;" parent="bBVs3xt9xhwID2CrAJai-1" vertex="1">
          <mxGeometry x="515" y="918" width="180" height="57" as="geometry" />
        </mxCell>
        <mxCell id="n8-rmFNZyjq69NH7jy1r-6" value="&lt;div&gt;Input CSS or XPath &lt;br&gt;&lt;/div&gt;&lt;div&gt;expressions to extract &lt;br&gt;&lt;/div&gt;&lt;div&gt;product category&lt;/div&gt;" style="shape=parallelogram;perimeter=parallelogramPerimeter;whiteSpace=wrap;html=1;fixedSize=1;rounded=0;strokeColor=#6c8ebf;fillColor=#dae8fc;" parent="bBVs3xt9xhwID2CrAJai-1" vertex="1">
          <mxGeometry x="515" y="1071.5" width="180" height="57" as="geometry" />
        </mxCell>
        <mxCell id="n8-rmFNZyjq69NH7jy1r-7" value="&lt;div&gt;Input CSS or XPath &lt;br&gt;&lt;/div&gt;&lt;div&gt;expressions to extract &lt;br&gt;&lt;/div&gt;&lt;div&gt;product name&lt;/div&gt;" style="shape=parallelogram;perimeter=parallelogramPerimeter;whiteSpace=wrap;html=1;fixedSize=1;rounded=0;strokeColor=#6c8ebf;fillColor=#dae8fc;" parent="bBVs3xt9xhwID2CrAJai-1" vertex="1">
          <mxGeometry x="805" y="918" width="180" height="57" as="geometry" />
        </mxCell>
        <mxCell id="n8-rmFNZyjq69NH7jy1r-8" value="&lt;div&gt;Input CSS or XPath &lt;br&gt;&lt;/div&gt;&lt;div&gt;expressions to extract &lt;br&gt;&lt;/div&gt;&lt;div&gt;product category&lt;/div&gt;" style="shape=parallelogram;perimeter=parallelogramPerimeter;whiteSpace=wrap;html=1;fixedSize=1;rounded=0;strokeColor=#6c8ebf;fillColor=#dae8fc;" parent="bBVs3xt9xhwID2CrAJai-1" vertex="1">
          <mxGeometry x="805" y="1071.5" width="180" height="57" as="geometry" />
        </mxCell>
        <mxCell id="n8-rmFNZyjq69NH7jy1r-9" value="&lt;div&gt;Input CSS or XPath &lt;br&gt;&lt;/div&gt;&lt;div&gt;expressions to extract &lt;br&gt;&lt;/div&gt;&lt;div&gt;product properties&lt;/div&gt;" style="shape=parallelogram;perimeter=parallelogramPerimeter;whiteSpace=wrap;html=1;fixedSize=1;rounded=0;strokeColor=#6c8ebf;fillColor=#dae8fc;" parent="bBVs3xt9xhwID2CrAJai-1" vertex="1">
          <mxGeometry x="805" y="1225.5" width="180" height="57" as="geometry" />
        </mxCell>
        <mxCell id="W8yKc3MEfRFuijHFqTto-2" style="edgeStyle=orthogonalEdgeStyle;rounded=0;orthogonalLoop=1;jettySize=auto;html=1;exitX=0.5;exitY=1;exitDx=0;exitDy=0;entryX=0.5;entryY=0;entryDx=0;entryDy=0;" parent="bBVs3xt9xhwID2CrAJai-1" source="W8yKc3MEfRFuijHFqTto-0" target="LFLx8wW5Kx8hPZZE6uJq-4" edge="1">
          <mxGeometry relative="1" as="geometry" />
        </mxCell>
        <mxCell id="W8yKc3MEfRFuijHFqTto-0" value="&lt;div&gt;Select target &lt;br&gt;&lt;/div&gt;&lt;div&gt;distributor&#39;s website&lt;/div&gt;" style="shape=parallelogram;perimeter=parallelogramPerimeter;whiteSpace=wrap;html=1;fixedSize=1;rounded=0;strokeColor=#6c8ebf;fillColor=#dae8fc;" parent="bBVs3xt9xhwID2CrAJai-1" vertex="1">
          <mxGeometry x="515" y="160" width="180" height="57" as="geometry" />
        </mxCell>
        <mxCell id="W8yKc3MEfRFuijHFqTto-7" style="edgeStyle=orthogonalEdgeStyle;rounded=0;orthogonalLoop=1;jettySize=auto;html=1;exitX=0.5;exitY=1;exitDx=0;exitDy=0;entryX=0.5;entryY=0;entryDx=0;entryDy=0;" parent="bBVs3xt9xhwID2CrAJai-1" source="W8yKc3MEfRFuijHFqTto-5" target="pz64BV4t3Ft2-2I2X3Z4-3" edge="1">
          <mxGeometry relative="1" as="geometry" />
        </mxCell>
        <mxCell id="W8yKc3MEfRFuijHFqTto-5" value="&lt;div&gt;Output web scraping agent to &lt;br&gt;&lt;/div&gt;&lt;div&gt;collect structured product &lt;br&gt;&lt;/div&gt;&lt;div&gt;information of the selected website &lt;/div&gt;" style="shape=parallelogram;perimeter=parallelogramPerimeter;whiteSpace=wrap;html=1;fixedSize=1;rounded=0;strokeColor=#9673a6;fillColor=#e1d5e7;" parent="bBVs3xt9xhwID2CrAJai-1" vertex="1">
          <mxGeometry x="482.5" y="1375" width="245" height="57" as="geometry" />
        </mxCell>
        <mxCell id="W8yKc3MEfRFuijHFqTto-6" value="" style="edgeStyle=orthogonalEdgeStyle;rounded=0;orthogonalLoop=1;jettySize=auto;html=1;exitX=0.5;exitY=1;exitDx=0;exitDy=0;entryX=0.5;entryY=0;entryDx=0;entryDy=0;fontSize=12;endArrow=none;" parent="bBVs3xt9xhwID2CrAJai-1" source="n8-rmFNZyjq69NH7jy1r-9" target="W8yKc3MEfRFuijHFqTto-5" edge="1">
          <mxGeometry relative="1" as="geometry">
            <Array as="points">
              <mxPoint x="895" y="1336" />
              <mxPoint x="605" y="1336" />
            </Array>
            <mxPoint x="936" y="1282.5" as="sourcePoint" />
            <mxPoint x="605" y="1455" as="targetPoint" />
          </mxGeometry>
        </mxCell>
      </root>
    </mxGraphModel>
  </diagram>
  <diagram id="7rndaUppXofrNQqY6BYb" name="Class Mapping">
    <mxGraphModel dx="3807" dy="2530" grid="1" gridSize="10" guides="1" tooltips="1" connect="1" arrows="1" fold="1" page="1" pageScale="1" pageWidth="1200" pageHeight="1600" math="0" shadow="0">
      <root>
        <mxCell id="mc9jouhSE8E-Xd2SgikM-0" />
        <mxCell id="mc9jouhSE8E-Xd2SgikM-1" parent="mc9jouhSE8E-Xd2SgikM-0" />
        <mxCell id="v00DV_U08sD8FnWPmtz7-2" style="edgeStyle=orthogonalEdgeStyle;rounded=0;orthogonalLoop=1;jettySize=auto;html=1;exitX=0.5;exitY=1;exitDx=0;exitDy=0;entryX=0.5;entryY=0;entryDx=0;entryDy=0;" parent="mc9jouhSE8E-Xd2SgikM-1" source="v00DV_U08sD8FnWPmtz7-3" target="v00DV_U08sD8FnWPmtz7-5" edge="1">
          <mxGeometry relative="1" as="geometry" />
        </mxCell>
        <mxCell id="v00DV_U08sD8FnWPmtz7-3" value="START" style="rounded=1;whiteSpace=wrap;html=1;fontSize=12;glass=0;strokeWidth=1;shadow=0;fillColor=#d5e8d4;strokeColor=#82b366;" parent="mc9jouhSE8E-Xd2SgikM-1" vertex="1">
          <mxGeometry x="1760.8" y="90" width="64" height="50" as="geometry" />
        </mxCell>
        <mxCell id="v00DV_U08sD8FnWPmtz7-4" style="edgeStyle=orthogonalEdgeStyle;rounded=0;orthogonalLoop=1;jettySize=auto;html=1;exitX=0.5;exitY=1;exitDx=0;exitDy=0;entryX=0.5;entryY=0;entryDx=0;entryDy=0;" parent="mc9jouhSE8E-Xd2SgikM-1" source="v00DV_U08sD8FnWPmtz7-5" target="v00DV_U08sD8FnWPmtz7-9" edge="1">
          <mxGeometry relative="1" as="geometry" />
        </mxCell>
        <mxCell id="v00DV_U08sD8FnWPmtz7-5" value="&lt;div&gt;Input the most recent version of the KG &lt;br&gt;&lt;/div&gt;&lt;div&gt;and the scraped product information &lt;br&gt;&lt;/div&gt;&lt;div&gt;(name, category, specifications)&lt;/div&gt;" style="shape=parallelogram;perimeter=parallelogramPerimeter;whiteSpace=wrap;html=1;fixedSize=1;rounded=0;strokeColor=#6c8ebf;fillColor=#dae8fc;" parent="mc9jouhSE8E-Xd2SgikM-1" vertex="1">
          <mxGeometry x="1647.8" y="184" width="290" height="54" as="geometry" />
        </mxCell>
        <mxCell id="v00DV_U08sD8FnWPmtz7-6" value="&lt;div&gt;Output category not found&lt;br&gt;&lt;/div&gt;" style="shape=parallelogram;perimeter=parallelogramPerimeter;whiteSpace=wrap;html=1;fixedSize=1;rounded=0;strokeColor=#9673a6;fillColor=#e1d5e7;" parent="mc9jouhSE8E-Xd2SgikM-1" vertex="1">
          <mxGeometry x="1452.8" y="974" width="180" height="57" as="geometry" />
        </mxCell>
        <mxCell id="v00DV_U08sD8FnWPmtz7-7" value="Output the best candidate" style="shape=parallelogram;perimeter=parallelogramPerimeter;whiteSpace=wrap;html=1;fixedSize=1;rounded=0;strokeColor=#9673a6;fillColor=#e1d5e7;" parent="mc9jouhSE8E-Xd2SgikM-1" vertex="1">
          <mxGeometry x="1990" y="974" width="180" height="57" as="geometry" />
        </mxCell>
        <mxCell id="v00DV_U08sD8FnWPmtz7-8" style="edgeStyle=orthogonalEdgeStyle;rounded=0;orthogonalLoop=1;jettySize=auto;html=1;exitX=0.5;exitY=1;exitDx=0;exitDy=0;entryX=0.5;entryY=0;entryDx=0;entryDy=0;" parent="mc9jouhSE8E-Xd2SgikM-1" source="v00DV_U08sD8FnWPmtz7-9" target="v00DV_U08sD8FnWPmtz7-21" edge="1">
          <mxGeometry relative="1" as="geometry" />
        </mxCell>
        <mxCell id="v00DV_U08sD8FnWPmtz7-9" value="Set threshold for similarity measure" style="rounded=0;whiteSpace=wrap;html=1;fontSize=12;align=center;fillColor=#f5f5f5;strokeColor=#666666;fontColor=#333333;" parent="mc9jouhSE8E-Xd2SgikM-1" vertex="1">
          <mxGeometry x="1707.8" y="294" width="170" height="60" as="geometry" />
        </mxCell>
        <mxCell id="v00DV_U08sD8FnWPmtz7-10" value="Compute the similarity of product category name to all class names within the KG" style="rounded=0;whiteSpace=wrap;html=1;fontSize=12;align=center;fillColor=#f5f5f5;strokeColor=#666666;fontColor=#333333;" parent="mc9jouhSE8E-Xd2SgikM-1" vertex="1">
          <mxGeometry x="1707.8" y="514" width="170" height="60" as="geometry" />
        </mxCell>
        <mxCell id="v00DV_U08sD8FnWPmtz7-11" value="&lt;div&gt;Is there any&lt;br&gt;&lt;/div&gt;&lt;div&gt;match with a score above threshold?&lt;/div&gt;" style="rhombus;whiteSpace=wrap;html=1;shadow=0;fontFamily=Helvetica;fontSize=12;align=center;strokeWidth=1;spacing=6;spacingTop=-4;fillColor=#fff2cc;strokeColor=#d6b656;" parent="mc9jouhSE8E-Xd2SgikM-1" vertex="1">
          <mxGeometry x="1722.8" y="644" width="140" height="120" as="geometry" />
        </mxCell>
        <mxCell id="v00DV_U08sD8FnWPmtz7-12" style="edgeStyle=orthogonalEdgeStyle;rounded=0;orthogonalLoop=1;jettySize=auto;html=1;exitX=0.5;exitY=1;exitDx=0;exitDy=0;entryX=0.5;entryY=0;entryDx=0;entryDy=0;fontSize=12;" parent="mc9jouhSE8E-Xd2SgikM-1" source="v00DV_U08sD8FnWPmtz7-10" target="v00DV_U08sD8FnWPmtz7-11" edge="1">
          <mxGeometry relative="1" as="geometry" />
        </mxCell>
        <mxCell id="v00DV_U08sD8FnWPmtz7-13" value="No" style="edgeStyle=orthogonalEdgeStyle;rounded=0;orthogonalLoop=1;jettySize=auto;html=1;exitX=0;exitY=0.5;exitDx=0;exitDy=0;entryX=0.5;entryY=0;entryDx=0;entryDy=0;fontSize=12;" parent="mc9jouhSE8E-Xd2SgikM-1" source="v00DV_U08sD8FnWPmtz7-11" target="v00DV_U08sD8FnWPmtz7-6" edge="1">
          <mxGeometry x="-0.6429" relative="1" as="geometry">
            <mxPoint x="1573.8" y="851" as="targetPoint" />
            <mxPoint as="offset" />
          </mxGeometry>
        </mxCell>
        <mxCell id="v00DV_U08sD8FnWPmtz7-14" value="Yes" style="edgeStyle=orthogonalEdgeStyle;rounded=0;orthogonalLoop=1;jettySize=auto;html=1;exitX=0.5;exitY=1;exitDx=0;exitDy=0;entryX=0.5;entryY=0;entryDx=0;entryDy=0;" parent="mc9jouhSE8E-Xd2SgikM-1" source="v00DV_U08sD8FnWPmtz7-15" target="v00DV_U08sD8FnWPmtz7-7" edge="1">
          <mxGeometry relative="1" as="geometry" />
        </mxCell>
        <mxCell id="v00DV_U08sD8FnWPmtz7-15" value="&lt;div&gt;Is the match &lt;br&gt;&lt;/div&gt;&lt;div&gt;with the highest score unique?&lt;/div&gt;" style="rhombus;whiteSpace=wrap;html=1;shadow=0;fontFamily=Helvetica;fontSize=12;align=center;strokeWidth=1;spacing=6;spacingTop=-4;fillColor=#fff2cc;strokeColor=#d6b656;" parent="mc9jouhSE8E-Xd2SgikM-1" vertex="1">
          <mxGeometry x="2010" y="794" width="140" height="120" as="geometry" />
        </mxCell>
        <mxCell id="v00DV_U08sD8FnWPmtz7-16" value="Yes" style="edgeStyle=orthogonalEdgeStyle;rounded=0;orthogonalLoop=1;jettySize=auto;html=1;entryX=0.5;entryY=0;entryDx=0;entryDy=0;fontSize=12;exitX=1;exitY=0.5;exitDx=0;exitDy=0;" parent="mc9jouhSE8E-Xd2SgikM-1" source="v00DV_U08sD8FnWPmtz7-11" target="v00DV_U08sD8FnWPmtz7-15" edge="1">
          <mxGeometry relative="1" as="geometry">
            <mxPoint x="1885.8" y="635" as="sourcePoint" />
          </mxGeometry>
        </mxCell>
        <mxCell id="v00DV_U08sD8FnWPmtz7-17" value="No" style="edgeStyle=orthogonalEdgeStyle;rounded=0;orthogonalLoop=1;jettySize=auto;html=1;exitX=0;exitY=0.5;exitDx=0;exitDy=0;fontSize=12;entryX=0.5;entryY=0;entryDx=0;entryDy=0;" parent="mc9jouhSE8E-Xd2SgikM-1" source="v00DV_U08sD8FnWPmtz7-15" target="v00DV_U08sD8FnWPmtz7-23" edge="1">
          <mxGeometry x="-0.4139" relative="1" as="geometry">
            <Array as="points">
              <mxPoint x="1792.8" y="854" />
            </Array>
            <mxPoint as="offset" />
            <mxPoint x="1827.8" y="744" as="targetPoint" />
          </mxGeometry>
        </mxCell>
        <mxCell id="v00DV_U08sD8FnWPmtz7-18" style="edgeStyle=orthogonalEdgeStyle;rounded=0;orthogonalLoop=1;jettySize=auto;html=1;exitX=0.5;exitY=1;exitDx=0;exitDy=0;entryX=0.5;entryY=0;entryDx=0;entryDy=0;" parent="mc9jouhSE8E-Xd2SgikM-1" source="v00DV_U08sD8FnWPmtz7-6" target="v00DV_U08sD8FnWPmtz7-26" edge="1">
          <mxGeometry relative="1" as="geometry">
            <mxPoint x="1802.8" y="1112.5" as="targetPoint" />
          </mxGeometry>
        </mxCell>
        <mxCell id="v00DV_U08sD8FnWPmtz7-19" style="edgeStyle=orthogonalEdgeStyle;rounded=0;orthogonalLoop=1;jettySize=auto;html=1;exitX=0.5;exitY=1;exitDx=0;exitDy=0;entryX=0.5;entryY=0;entryDx=0;entryDy=0;" parent="mc9jouhSE8E-Xd2SgikM-1" source="v00DV_U08sD8FnWPmtz7-7" target="v00DV_U08sD8FnWPmtz7-26" edge="1">
          <mxGeometry relative="1" as="geometry">
            <mxPoint x="1802.8" y="1112.5" as="targetPoint" />
          </mxGeometry>
        </mxCell>
        <mxCell id="v00DV_U08sD8FnWPmtz7-20" style="edgeStyle=orthogonalEdgeStyle;rounded=0;orthogonalLoop=1;jettySize=auto;html=1;exitX=0.5;exitY=1;exitDx=0;exitDy=0;entryX=0.5;entryY=0;entryDx=0;entryDy=0;" parent="mc9jouhSE8E-Xd2SgikM-1" source="v00DV_U08sD8FnWPmtz7-21" target="v00DV_U08sD8FnWPmtz7-10" edge="1">
          <mxGeometry relative="1" as="geometry" />
        </mxCell>
        <mxCell id="v00DV_U08sD8FnWPmtz7-21" value="Consider the first category in the scraped product information" style="rounded=0;whiteSpace=wrap;html=1;fontSize=12;align=center;fillColor=#f5f5f5;strokeColor=#666666;fontColor=#333333;" parent="mc9jouhSE8E-Xd2SgikM-1" vertex="1">
          <mxGeometry x="1707.8" y="405" width="170" height="60" as="geometry" />
        </mxCell>
        <mxCell id="v00DV_U08sD8FnWPmtz7-22" style="edgeStyle=orthogonalEdgeStyle;rounded=0;orthogonalLoop=1;jettySize=auto;html=1;exitX=0.5;exitY=1;exitDx=0;exitDy=0;entryX=0.5;entryY=0;entryDx=0;entryDy=0;" parent="mc9jouhSE8E-Xd2SgikM-1" source="v00DV_U08sD8FnWPmtz7-23" target="v00DV_U08sD8FnWPmtz7-26" edge="1">
          <mxGeometry relative="1" as="geometry">
            <mxPoint x="1802.8" y="1112.5" as="targetPoint" />
          </mxGeometry>
        </mxCell>
        <mxCell id="v00DV_U08sD8FnWPmtz7-23" value="&lt;div&gt;Output best candidates &lt;br&gt;&lt;/div&gt;&lt;div&gt;above threshold&lt;/div&gt;" style="shape=parallelogram;perimeter=parallelogramPerimeter;whiteSpace=wrap;html=1;fixedSize=1;rounded=0;strokeColor=#9673a6;fillColor=#e1d5e7;" parent="mc9jouhSE8E-Xd2SgikM-1" vertex="1">
          <mxGeometry x="1702.8" y="974" width="180" height="57" as="geometry" />
        </mxCell>
        <mxCell id="v00DV_U08sD8FnWPmtz7-24" value="&lt;div&gt;Yes&lt;/div&gt;" style="edgeStyle=orthogonalEdgeStyle;rounded=0;orthogonalLoop=1;jettySize=auto;html=1;exitX=0;exitY=0.5;exitDx=0;exitDy=0;entryX=1;entryY=0.5;entryDx=0;entryDy=0;" parent="mc9jouhSE8E-Xd2SgikM-1" source="v00DV_U08sD8FnWPmtz7-26" target="v00DV_U08sD8FnWPmtz7-28" edge="1">
          <mxGeometry x="0.0638" relative="1" as="geometry">
            <mxPoint as="offset" />
          </mxGeometry>
        </mxCell>
        <mxCell id="v00DV_U08sD8FnWPmtz7-25" value="No" style="edgeStyle=orthogonalEdgeStyle;rounded=0;orthogonalLoop=1;jettySize=auto;html=1;exitX=0.5;exitY=1;exitDx=0;exitDy=0;entryX=0.5;entryY=0;entryDx=0;entryDy=0;" parent="mc9jouhSE8E-Xd2SgikM-1" source="v00DV_U08sD8FnWPmtz7-26" target="v00DV_U08sD8FnWPmtz7-65" edge="1">
          <mxGeometry relative="1" as="geometry" />
        </mxCell>
        <mxCell id="v00DV_U08sD8FnWPmtz7-26" value="Are there left categories?" style="rhombus;whiteSpace=wrap;html=1;shadow=0;fontFamily=Helvetica;fontSize=12;align=center;strokeWidth=1;spacing=6;spacingTop=-4;fillColor=#fff2cc;strokeColor=#d6b656;" parent="mc9jouhSE8E-Xd2SgikM-1" vertex="1">
          <mxGeometry x="1722.8" y="1094" width="140" height="120" as="geometry" />
        </mxCell>
        <mxCell id="v00DV_U08sD8FnWPmtz7-27" style="edgeStyle=orthogonalEdgeStyle;rounded=0;orthogonalLoop=1;jettySize=auto;html=1;exitX=0;exitY=0.5;exitDx=0;exitDy=0;entryX=0;entryY=0.5;entryDx=0;entryDy=0;" parent="mc9jouhSE8E-Xd2SgikM-1" source="v00DV_U08sD8FnWPmtz7-28" target="v00DV_U08sD8FnWPmtz7-10" edge="1">
          <mxGeometry relative="1" as="geometry">
            <Array as="points">
              <mxPoint x="1430" y="1154" />
              <mxPoint x="1430" y="544" />
            </Array>
          </mxGeometry>
        </mxCell>
        <mxCell id="v00DV_U08sD8FnWPmtz7-28" value="Consider the next category in the scraped product information" style="rounded=0;whiteSpace=wrap;html=1;fontSize=12;align=center;fillColor=#f5f5f5;strokeColor=#666666;fontColor=#333333;" parent="mc9jouhSE8E-Xd2SgikM-1" vertex="1">
          <mxGeometry x="1472.8" y="1124" width="140" height="60" as="geometry" />
        </mxCell>
        <mxCell id="v00DV_U08sD8FnWPmtz7-29" value="END" style="rounded=1;whiteSpace=wrap;html=1;fontSize=12;glass=0;strokeWidth=1;shadow=0;fillColor=#f8cecc;strokeColor=#b85450;" parent="mc9jouhSE8E-Xd2SgikM-1" vertex="1">
          <mxGeometry x="1765.8" y="1447" width="54" height="50" as="geometry" />
        </mxCell>
        <mxCell id="v00DV_U08sD8FnWPmtz7-60" style="edgeStyle=orthogonalEdgeStyle;rounded=0;orthogonalLoop=1;jettySize=auto;html=1;exitX=0.5;exitY=1;exitDx=0;exitDy=0;entryX=0.5;entryY=0;entryDx=0;entryDy=0;" parent="mc9jouhSE8E-Xd2SgikM-1" source="v00DV_U08sD8FnWPmtz7-65" target="v00DV_U08sD8FnWPmtz7-63" edge="1">
          <mxGeometry relative="1" as="geometry">
            <mxPoint x="1802.8" y="1344" as="sourcePoint" />
          </mxGeometry>
        </mxCell>
        <mxCell id="v00DV_U08sD8FnWPmtz7-62" style="edgeStyle=orthogonalEdgeStyle;rounded=0;orthogonalLoop=1;jettySize=auto;html=1;exitX=0.5;exitY=1;exitDx=0;exitDy=0;entryX=0.5;entryY=0;entryDx=0;entryDy=0;" parent="mc9jouhSE8E-Xd2SgikM-1" source="v00DV_U08sD8FnWPmtz7-63" target="v00DV_U08sD8FnWPmtz7-29" edge="1">
          <mxGeometry relative="1" as="geometry">
            <mxPoint x="1807.8" y="1097" as="sourcePoint" />
          </mxGeometry>
        </mxCell>
        <mxCell id="v00DV_U08sD8FnWPmtz7-63" value="&lt;div&gt;Output category-class equivalences &lt;br&gt;&lt;/div&gt;&lt;div&gt;as mapping result&lt;br&gt;&lt;/div&gt;" style="shape=parallelogram;perimeter=parallelogramPerimeter;whiteSpace=wrap;html=1;fixedSize=1;rounded=0;strokeColor=#9673a6;fillColor=#e1d5e7;" parent="mc9jouhSE8E-Xd2SgikM-1" vertex="1">
          <mxGeometry x="1647.8" y="1367" width="290" height="50" as="geometry" />
        </mxCell>
        <mxCell id="v00DV_U08sD8FnWPmtz7-65" value="&lt;div&gt;Input user validation &lt;br&gt;&lt;/div&gt;&lt;div&gt;of the results&lt;br&gt;&lt;/div&gt;" style="shape=parallelogram;perimeter=parallelogramPerimeter;whiteSpace=wrap;html=1;fixedSize=1;rounded=0;strokeColor=#6c8ebf;fillColor=#dae8fc;" parent="mc9jouhSE8E-Xd2SgikM-1" vertex="1">
          <mxGeometry x="1702.8" y="1284" width="180" height="47" as="geometry" />
        </mxCell>
      </root>
    </mxGraphModel>
  </diagram>
  <diagram id="Qzrzb7PbLu9lpRpPtH53" name="Property Mapping">
    <mxGraphModel dx="333" dy="759" grid="1" gridSize="10" guides="1" tooltips="1" connect="1" arrows="1" fold="1" page="1" pageScale="1" pageWidth="1169" pageHeight="1654" math="0" shadow="0">
      <root>
        <mxCell id="3piHUk1r4FOu0g-W9Ip7-0" />
        <mxCell id="3piHUk1r4FOu0g-W9Ip7-1" parent="3piHUk1r4FOu0g-W9Ip7-0" />
        <mxCell id="XuIn2h4xF1fcJh_-UhaT-2" style="edgeStyle=orthogonalEdgeStyle;rounded=0;orthogonalLoop=1;jettySize=auto;html=1;exitX=0.5;exitY=1;exitDx=0;exitDy=0;entryX=0.5;entryY=0;entryDx=0;entryDy=0;" parent="3piHUk1r4FOu0g-W9Ip7-1" source="XuIn2h4xF1fcJh_-UhaT-3" target="XuIn2h4xF1fcJh_-UhaT-5" edge="1">
          <mxGeometry relative="1" as="geometry" />
        </mxCell>
        <mxCell id="XuIn2h4xF1fcJh_-UhaT-3" value="START" style="rounded=1;whiteSpace=wrap;html=1;fontSize=12;glass=0;strokeWidth=1;shadow=0;fillColor=#d5e8d4;strokeColor=#82b366;" parent="3piHUk1r4FOu0g-W9Ip7-1" vertex="1">
          <mxGeometry x="1714.8" y="70" width="64" height="50" as="geometry" />
        </mxCell>
        <mxCell id="SzoxY9y-Y67Y083Pxiq2-5" style="edgeStyle=orthogonalEdgeStyle;rounded=0;orthogonalLoop=1;jettySize=auto;html=1;exitX=0.5;exitY=1;exitDx=0;exitDy=0;entryX=0.5;entryY=0;entryDx=0;entryDy=0;" edge="1" parent="3piHUk1r4FOu0g-W9Ip7-1" source="XuIn2h4xF1fcJh_-UhaT-5" target="SzoxY9y-Y67Y083Pxiq2-0">
          <mxGeometry relative="1" as="geometry" />
        </mxCell>
        <mxCell id="XuIn2h4xF1fcJh_-UhaT-5" value="&lt;div&gt;Input the most recent version of the knowledge &lt;br&gt;&lt;/div&gt;&lt;div&gt;graph, the scraped product information (name, &lt;br&gt;&lt;/div&gt;&lt;div&gt;category, specifications), and category-class &lt;br&gt;&lt;/div&gt;&lt;div&gt;equivalences from the class mapping alogrithm&lt;br&gt;&lt;/div&gt;" style="shape=parallelogram;perimeter=parallelogramPerimeter;whiteSpace=wrap;html=1;fixedSize=1;rounded=0;strokeColor=#6c8ebf;fillColor=#dae8fc;" parent="3piHUk1r4FOu0g-W9Ip7-1" vertex="1">
          <mxGeometry x="1590.8" y="150" width="312" height="70" as="geometry" />
        </mxCell>
        <mxCell id="XuIn2h4xF1fcJh_-UhaT-29" value="END" style="rounded=1;whiteSpace=wrap;html=1;fontSize=12;glass=0;strokeWidth=1;shadow=0;fillColor=#f8cecc;strokeColor=#b85450;" parent="3piHUk1r4FOu0g-W9Ip7-1" vertex="1">
          <mxGeometry x="1719.8" y="1543" width="54" height="50" as="geometry" />
        </mxCell>
        <mxCell id="SzoxY9y-Y67Y083Pxiq2-3" style="edgeStyle=orthogonalEdgeStyle;rounded=0;orthogonalLoop=1;jettySize=auto;html=1;exitX=0.5;exitY=1;exitDx=0;exitDy=0;entryX=0.5;entryY=0;entryDx=0;entryDy=0;" edge="1" parent="3piHUk1r4FOu0g-W9Ip7-1" source="XuIn2h4xF1fcJh_-UhaT-31" target="XuIn2h4xF1fcJh_-UhaT-70">
          <mxGeometry relative="1" as="geometry" />
        </mxCell>
        <mxCell id="XuIn2h4xF1fcJh_-UhaT-31" value="&lt;div&gt;Output all candidate &lt;br&gt;&lt;/div&gt;&lt;div&gt;properties with similarity&lt;/div&gt;&lt;div&gt; above threshold&lt;/div&gt;" style="shape=parallelogram;perimeter=parallelogramPerimeter;whiteSpace=wrap;html=1;fixedSize=1;rounded=0;strokeColor=#9673a6;fillColor=#e1d5e7;" parent="3piHUk1r4FOu0g-W9Ip7-1" vertex="1">
          <mxGeometry x="1422.3" y="1140" width="180" height="57" as="geometry" />
        </mxCell>
        <mxCell id="SzoxY9y-Y67Y083Pxiq2-1" style="edgeStyle=orthogonalEdgeStyle;rounded=0;orthogonalLoop=1;jettySize=auto;html=1;exitX=0.5;exitY=1;exitDx=0;exitDy=0;entryX=0.5;entryY=0;entryDx=0;entryDy=0;" edge="1" parent="3piHUk1r4FOu0g-W9Ip7-1" source="XuIn2h4xF1fcJh_-UhaT-33" target="XuIn2h4xF1fcJh_-UhaT-70">
          <mxGeometry relative="1" as="geometry" />
        </mxCell>
        <mxCell id="XuIn2h4xF1fcJh_-UhaT-33" value="Output the best candidate property" style="shape=parallelogram;perimeter=parallelogramPerimeter;whiteSpace=wrap;html=1;fixedSize=1;rounded=0;strokeColor=#9673a6;fillColor=#e1d5e7;" parent="3piHUk1r4FOu0g-W9Ip7-1" vertex="1">
          <mxGeometry x="1656.8" y="1140" width="180" height="57" as="geometry" />
        </mxCell>
        <mxCell id="SzoxY9y-Y67Y083Pxiq2-2" style="edgeStyle=orthogonalEdgeStyle;rounded=0;orthogonalLoop=1;jettySize=auto;html=1;exitX=0.5;exitY=1;exitDx=0;exitDy=0;entryX=0.5;entryY=0;entryDx=0;entryDy=0;" edge="1" parent="3piHUk1r4FOu0g-W9Ip7-1" source="XuIn2h4xF1fcJh_-UhaT-35" target="XuIn2h4xF1fcJh_-UhaT-70">
          <mxGeometry relative="1" as="geometry" />
        </mxCell>
        <mxCell id="XuIn2h4xF1fcJh_-UhaT-35" value="&lt;div&gt;Output a proposal to &lt;br&gt;&lt;/div&gt;&lt;div&gt;generate a new property in&lt;/div&gt;&lt;div&gt; the KG based on the &lt;br&gt;&lt;/div&gt;&lt;div&gt;unmatched specification &lt;/div&gt;" style="shape=parallelogram;perimeter=parallelogramPerimeter;whiteSpace=wrap;html=1;fixedSize=1;rounded=0;strokeColor=#9673a6;fillColor=#e1d5e7;" parent="3piHUk1r4FOu0g-W9Ip7-1" vertex="1">
          <mxGeometry x="1891.3" y="1140" width="180" height="57" as="geometry" />
        </mxCell>
        <mxCell id="XuIn2h4xF1fcJh_-UhaT-36" style="edgeStyle=orthogonalEdgeStyle;rounded=0;orthogonalLoop=1;jettySize=auto;html=1;exitX=0.5;exitY=1;exitDx=0;exitDy=0;entryX=0.5;entryY=0;entryDx=0;entryDy=0;" parent="3piHUk1r4FOu0g-W9Ip7-1" source="XuIn2h4xF1fcJh_-UhaT-37" target="XuIn2h4xF1fcJh_-UhaT-39" edge="1">
          <mxGeometry relative="1" as="geometry" />
        </mxCell>
        <mxCell id="XuIn2h4xF1fcJh_-UhaT-37" value="&lt;div&gt;Set the product class matched to the specification&#39;s product category as the target class&lt;/div&gt;" style="rounded=0;whiteSpace=wrap;html=1;fontSize=12;align=center;fillColor=#f5f5f5;strokeColor=#666666;fontColor=#333333;" parent="3piHUk1r4FOu0g-W9Ip7-1" vertex="1">
          <mxGeometry x="1656.8" y="490" width="180" height="60" as="geometry" />
        </mxCell>
        <mxCell id="XuIn2h4xF1fcJh_-UhaT-38" value="Yes" style="edgeStyle=orthogonalEdgeStyle;rounded=0;orthogonalLoop=1;jettySize=auto;html=1;exitX=1;exitY=0.5;exitDx=0;exitDy=0;entryX=0.5;entryY=0;entryDx=0;entryDy=0;" parent="3piHUk1r4FOu0g-W9Ip7-1" source="XuIn2h4xF1fcJh_-UhaT-39" target="XuIn2h4xF1fcJh_-UhaT-55" edge="1">
          <mxGeometry relative="1" as="geometry" />
        </mxCell>
        <mxCell id="XuIn2h4xF1fcJh_-UhaT-39" value="&lt;div&gt;Does product&lt;/div&gt;&lt;div&gt; Specification have &lt;br&gt;&lt;/div&gt;&lt;div&gt;any unit of &lt;br&gt;&lt;/div&gt;&lt;div&gt;measurement?&lt;br&gt;&lt;/div&gt;" style="rhombus;whiteSpace=wrap;html=1;shadow=0;fontFamily=Helvetica;fontSize=12;align=center;strokeWidth=1;spacing=6;spacingTop=-4;fillColor=#fff2cc;strokeColor=#d6b656;" parent="3piHUk1r4FOu0g-W9Ip7-1" vertex="1">
          <mxGeometry x="1676.8" y="580" width="140" height="120" as="geometry" />
        </mxCell>
        <mxCell id="XuIn2h4xF1fcJh_-UhaT-40" style="edgeStyle=orthogonalEdgeStyle;rounded=0;orthogonalLoop=1;jettySize=auto;html=1;exitX=0.5;exitY=1;exitDx=0;exitDy=0;entryX=0.5;entryY=0;entryDx=0;entryDy=0;" parent="3piHUk1r4FOu0g-W9Ip7-1" source="XuIn2h4xF1fcJh_-UhaT-41" target="XuIn2h4xF1fcJh_-UhaT-43" edge="1">
          <mxGeometry relative="1" as="geometry" />
        </mxCell>
        <mxCell id="XuIn2h4xF1fcJh_-UhaT-41" value="Generate a target property set with all properties attached to the target class" style="rounded=0;whiteSpace=wrap;html=1;fontSize=12;align=center;fillColor=#f5f5f5;strokeColor=#666666;fontColor=#333333;" parent="3piHUk1r4FOu0g-W9Ip7-1" vertex="1">
          <mxGeometry x="1656.8" y="730" width="180" height="60" as="geometry" />
        </mxCell>
        <mxCell id="XuIn2h4xF1fcJh_-UhaT-42" value="No" style="edgeStyle=orthogonalEdgeStyle;rounded=0;orthogonalLoop=1;jettySize=auto;html=1;exitX=0.5;exitY=1;exitDx=0;exitDy=0;fontSize=12;entryX=0.5;entryY=0;entryDx=0;entryDy=0;" parent="3piHUk1r4FOu0g-W9Ip7-1" source="XuIn2h4xF1fcJh_-UhaT-39" target="XuIn2h4xF1fcJh_-UhaT-41" edge="1">
          <mxGeometry x="0.014" relative="1" as="geometry">
            <mxPoint x="1956.8" y="837" as="targetPoint" />
            <mxPoint as="offset" />
          </mxGeometry>
        </mxCell>
        <mxCell id="XuIn2h4xF1fcJh_-UhaT-43" value="Compute the similarity of the specification&#39;s name to all property names inside the target property set" style="rounded=0;whiteSpace=wrap;html=1;fontSize=12;align=center;fillColor=#f5f5f5;strokeColor=#666666;fontColor=#333333;" parent="3piHUk1r4FOu0g-W9Ip7-1" vertex="1">
          <mxGeometry x="1656.8" y="810" width="180" height="60" as="geometry" />
        </mxCell>
        <mxCell id="XuIn2h4xF1fcJh_-UhaT-44" value="&lt;div&gt;Is there any &lt;br&gt;&lt;/div&gt;&lt;div&gt;match with a score above threshold?&lt;/div&gt;" style="rhombus;whiteSpace=wrap;html=1;shadow=0;fontFamily=Helvetica;fontSize=12;align=center;strokeWidth=1;spacing=6;spacingTop=-4;fillColor=#fff2cc;strokeColor=#d6b656;" parent="3piHUk1r4FOu0g-W9Ip7-1" vertex="1">
          <mxGeometry x="1676.8" y="890" width="140" height="120" as="geometry" />
        </mxCell>
        <mxCell id="XuIn2h4xF1fcJh_-UhaT-45" style="edgeStyle=orthogonalEdgeStyle;rounded=0;orthogonalLoop=1;jettySize=auto;html=1;exitX=0.5;exitY=1;exitDx=0;exitDy=0;entryX=0.5;entryY=0;entryDx=0;entryDy=0;fontSize=12;" parent="3piHUk1r4FOu0g-W9Ip7-1" source="XuIn2h4xF1fcJh_-UhaT-43" target="XuIn2h4xF1fcJh_-UhaT-44" edge="1">
          <mxGeometry relative="1" as="geometry" />
        </mxCell>
        <mxCell id="XuIn2h4xF1fcJh_-UhaT-46" value="&lt;div&gt;Does the target&lt;/div&gt;&lt;div&gt; class have a parent class?&lt;/div&gt;" style="rhombus;whiteSpace=wrap;html=1;shadow=0;fontFamily=Helvetica;fontSize=12;align=center;strokeWidth=1;spacing=6;spacingTop=-4;fillColor=#fff2cc;strokeColor=#d6b656;" parent="3piHUk1r4FOu0g-W9Ip7-1" vertex="1">
          <mxGeometry x="1911.8" y="984" width="140" height="120" as="geometry" />
        </mxCell>
        <mxCell id="XuIn2h4xF1fcJh_-UhaT-47" value="No" style="edgeStyle=orthogonalEdgeStyle;rounded=0;orthogonalLoop=1;jettySize=auto;html=1;exitX=1;exitY=0.5;exitDx=0;exitDy=0;entryX=0.5;entryY=0;entryDx=0;entryDy=0;fontSize=12;" parent="3piHUk1r4FOu0g-W9Ip7-1" source="XuIn2h4xF1fcJh_-UhaT-44" target="XuIn2h4xF1fcJh_-UhaT-46" edge="1">
          <mxGeometry relative="1" as="geometry" />
        </mxCell>
        <mxCell id="XuIn2h4xF1fcJh_-UhaT-48" value="No" style="edgeStyle=orthogonalEdgeStyle;rounded=0;orthogonalLoop=1;jettySize=auto;html=1;exitX=0.5;exitY=1;exitDx=0;exitDy=0;entryX=0.5;entryY=0;entryDx=0;entryDy=0;fontSize=12;" parent="3piHUk1r4FOu0g-W9Ip7-1" source="XuIn2h4xF1fcJh_-UhaT-46" target="XuIn2h4xF1fcJh_-UhaT-35" edge="1">
          <mxGeometry relative="1" as="geometry">
            <mxPoint x="2103.8" y="1154" as="targetPoint" />
          </mxGeometry>
        </mxCell>
        <mxCell id="XuIn2h4xF1fcJh_-UhaT-49" value="Rewrite the target property set with the properties attached to all subclasses of the parent class in the KG" style="rounded=0;whiteSpace=wrap;html=1;fontSize=12;align=center;fillColor=#f5f5f5;strokeColor=#666666;fontColor=#333333;" parent="3piHUk1r4FOu0g-W9Ip7-1" vertex="1">
          <mxGeometry x="2012.8000000000002" y="910" width="180" height="80" as="geometry" />
        </mxCell>
        <mxCell id="XuIn2h4xF1fcJh_-UhaT-50" value="Yes" style="edgeStyle=orthogonalEdgeStyle;rounded=0;orthogonalLoop=1;jettySize=auto;html=1;exitX=1;exitY=0.5;exitDx=0;exitDy=0;entryX=0.5;entryY=1;entryDx=0;entryDy=0;fontSize=12;" parent="3piHUk1r4FOu0g-W9Ip7-1" source="XuIn2h4xF1fcJh_-UhaT-46" target="XuIn2h4xF1fcJh_-UhaT-49" edge="1">
          <mxGeometry x="-0.2" relative="1" as="geometry">
            <mxPoint as="offset" />
            <Array as="points">
              <mxPoint x="2102.8" y="1044" />
            </Array>
          </mxGeometry>
        </mxCell>
        <mxCell id="XuIn2h4xF1fcJh_-UhaT-51" value="Set the parent class as the target class" style="rounded=0;whiteSpace=wrap;html=1;fontSize=12;align=center;fillColor=#f5f5f5;strokeColor=#666666;fontColor=#333333;" parent="3piHUk1r4FOu0g-W9Ip7-1" vertex="1">
          <mxGeometry x="2012.8000000000002" y="810" width="180" height="60" as="geometry" />
        </mxCell>
        <mxCell id="XuIn2h4xF1fcJh_-UhaT-52" style="edgeStyle=orthogonalEdgeStyle;rounded=0;orthogonalLoop=1;jettySize=auto;html=1;exitX=0;exitY=0.5;exitDx=0;exitDy=0;entryX=1;entryY=0.5;entryDx=0;entryDy=0;fontSize=12;" parent="3piHUk1r4FOu0g-W9Ip7-1" source="XuIn2h4xF1fcJh_-UhaT-51" target="XuIn2h4xF1fcJh_-UhaT-43" edge="1">
          <mxGeometry relative="1" as="geometry" />
        </mxCell>
        <mxCell id="XuIn2h4xF1fcJh_-UhaT-53" style="edgeStyle=orthogonalEdgeStyle;rounded=0;orthogonalLoop=1;jettySize=auto;html=1;exitX=0.5;exitY=0;exitDx=0;exitDy=0;entryX=0.5;entryY=1;entryDx=0;entryDy=0;fontSize=12;" parent="3piHUk1r4FOu0g-W9Ip7-1" source="XuIn2h4xF1fcJh_-UhaT-49" target="XuIn2h4xF1fcJh_-UhaT-51" edge="1">
          <mxGeometry relative="1" as="geometry" />
        </mxCell>
        <mxCell id="XuIn2h4xF1fcJh_-UhaT-54" style="edgeStyle=orthogonalEdgeStyle;rounded=0;orthogonalLoop=1;jettySize=auto;html=1;exitX=0.5;exitY=1;exitDx=0;exitDy=0;entryX=1;entryY=0.5;entryDx=0;entryDy=0;" parent="3piHUk1r4FOu0g-W9Ip7-1" source="XuIn2h4xF1fcJh_-UhaT-55" target="XuIn2h4xF1fcJh_-UhaT-41" edge="1">
          <mxGeometry relative="1" as="geometry" />
        </mxCell>
        <mxCell id="XuIn2h4xF1fcJh_-UhaT-55" value="Only consider properties in the KG expressed in the same units of measurement" style="rounded=0;whiteSpace=wrap;html=1;fontSize=12;align=center;fillColor=#f5f5f5;strokeColor=#666666;fontColor=#333333;" parent="3piHUk1r4FOu0g-W9Ip7-1" vertex="1">
          <mxGeometry x="1911.8" y="670" width="180" height="60" as="geometry" />
        </mxCell>
        <mxCell id="XuIn2h4xF1fcJh_-UhaT-56" value="&lt;div&gt;Is the match &lt;br&gt;&lt;/div&gt;&lt;div&gt;with the highest score unique?&lt;/div&gt;" style="rhombus;whiteSpace=wrap;html=1;shadow=0;fontFamily=Helvetica;fontSize=12;align=center;strokeWidth=1;spacing=6;spacingTop=-4;fillColor=#fff2cc;strokeColor=#d6b656;" parent="3piHUk1r4FOu0g-W9Ip7-1" vertex="1">
          <mxGeometry x="1442.8" y="984" width="140" height="120" as="geometry" />
        </mxCell>
        <mxCell id="XuIn2h4xF1fcJh_-UhaT-57" value="No" style="edgeStyle=orthogonalEdgeStyle;rounded=0;orthogonalLoop=1;jettySize=auto;html=1;exitX=0.5;exitY=1;exitDx=0;exitDy=0;entryX=0.5;entryY=0;entryDx=0;entryDy=0;fontSize=12;" parent="3piHUk1r4FOu0g-W9Ip7-1" source="XuIn2h4xF1fcJh_-UhaT-56" target="XuIn2h4xF1fcJh_-UhaT-31" edge="1">
          <mxGeometry x="-0.2" relative="1" as="geometry">
            <mxPoint x="1434.8" y="1344" as="sourcePoint" />
            <Array as="points" />
            <mxPoint as="offset" />
            <mxPoint x="1434.8" y="1154" as="targetPoint" />
          </mxGeometry>
        </mxCell>
        <mxCell id="XuIn2h4xF1fcJh_-UhaT-58" value="Yes" style="edgeStyle=orthogonalEdgeStyle;rounded=0;orthogonalLoop=1;jettySize=auto;html=1;exitX=1;exitY=0.5;exitDx=0;exitDy=0;entryX=0.5;entryY=0;entryDx=0;entryDy=0;fontSize=12;" parent="3piHUk1r4FOu0g-W9Ip7-1" source="XuIn2h4xF1fcJh_-UhaT-56" target="XuIn2h4xF1fcJh_-UhaT-33" edge="1">
          <mxGeometry x="-0.6487" relative="1" as="geometry">
            <mxPoint as="offset" />
            <mxPoint x="1790.8" y="1154" as="targetPoint" />
          </mxGeometry>
        </mxCell>
        <mxCell id="XuIn2h4xF1fcJh_-UhaT-59" value="Yes" style="edgeStyle=orthogonalEdgeStyle;rounded=0;orthogonalLoop=1;jettySize=auto;html=1;exitX=0;exitY=0.5;exitDx=0;exitDy=0;entryX=0.5;entryY=0;entryDx=0;entryDy=0;fontSize=12;" parent="3piHUk1r4FOu0g-W9Ip7-1" source="XuIn2h4xF1fcJh_-UhaT-44" target="XuIn2h4xF1fcJh_-UhaT-56" edge="1">
          <mxGeometry relative="1" as="geometry">
            <Array as="points">
              <mxPoint x="1513" y="950" />
            </Array>
          </mxGeometry>
        </mxCell>
        <mxCell id="XuIn2h4xF1fcJh_-UhaT-60" style="edgeStyle=orthogonalEdgeStyle;rounded=0;orthogonalLoop=1;jettySize=auto;html=1;exitX=0.5;exitY=1;exitDx=0;exitDy=0;entryX=0.5;entryY=0;entryDx=0;entryDy=0;" parent="3piHUk1r4FOu0g-W9Ip7-1" source="XuIn2h4xF1fcJh_-UhaT-61" target="XuIn2h4xF1fcJh_-UhaT-63" edge="1">
          <mxGeometry relative="1" as="geometry" />
        </mxCell>
        <mxCell id="XuIn2h4xF1fcJh_-UhaT-61" value="&lt;div&gt;Input user validation &lt;br&gt;&lt;/div&gt;&lt;div&gt;of the results&lt;/div&gt;" style="shape=parallelogram;perimeter=parallelogramPerimeter;whiteSpace=wrap;html=1;fixedSize=1;rounded=0;strokeColor=#6c8ebf;fillColor=#dae8fc;" parent="3piHUk1r4FOu0g-W9Ip7-1" vertex="1">
          <mxGeometry x="1656.8" y="1400" width="180" height="47" as="geometry" />
        </mxCell>
        <mxCell id="XuIn2h4xF1fcJh_-UhaT-62" style="edgeStyle=orthogonalEdgeStyle;rounded=0;orthogonalLoop=1;jettySize=auto;html=1;exitX=0.5;exitY=1;exitDx=0;exitDy=0;entryX=0.5;entryY=0;entryDx=0;entryDy=0;" parent="3piHUk1r4FOu0g-W9Ip7-1" source="XuIn2h4xF1fcJh_-UhaT-63" target="XuIn2h4xF1fcJh_-UhaT-29" edge="1">
          <mxGeometry relative="1" as="geometry">
            <mxPoint x="1792.8" y="1217" as="sourcePoint" />
          </mxGeometry>
        </mxCell>
        <mxCell id="XuIn2h4xF1fcJh_-UhaT-63" value="&lt;div&gt;Output specification-property equivalences &lt;br&gt;&lt;/div&gt;&lt;div&gt;as mapping result&lt;br&gt;&lt;/div&gt;" style="shape=parallelogram;perimeter=parallelogramPerimeter;whiteSpace=wrap;html=1;fixedSize=1;rounded=0;strokeColor=#9673a6;fillColor=#e1d5e7;" parent="3piHUk1r4FOu0g-W9Ip7-1" vertex="1">
          <mxGeometry x="1601.8" y="1470" width="290" height="50" as="geometry" />
        </mxCell>
        <mxCell id="SzoxY9y-Y67Y083Pxiq2-7" style="edgeStyle=orthogonalEdgeStyle;rounded=0;orthogonalLoop=1;jettySize=auto;html=1;exitX=0.5;exitY=1;exitDx=0;exitDy=0;entryX=0.5;entryY=0;entryDx=0;entryDy=0;" edge="1" parent="3piHUk1r4FOu0g-W9Ip7-1" source="XuIn2h4xF1fcJh_-UhaT-67" target="XuIn2h4xF1fcJh_-UhaT-74">
          <mxGeometry relative="1" as="geometry" />
        </mxCell>
        <mxCell id="XuIn2h4xF1fcJh_-UhaT-67" value="Consider the first product specification in the scraped product information" style="rounded=0;whiteSpace=wrap;html=1;fontSize=12;align=center;fillColor=#f5f5f5;strokeColor=#666666;fontColor=#333333;" parent="3piHUk1r4FOu0g-W9Ip7-1" vertex="1">
          <mxGeometry x="1656.8" y="330" width="180" height="60" as="geometry" />
        </mxCell>
        <mxCell id="XuIn2h4xF1fcJh_-UhaT-68" value="Yes" style="edgeStyle=orthogonalEdgeStyle;rounded=0;orthogonalLoop=1;jettySize=auto;html=1;exitX=0;exitY=0.5;exitDx=0;exitDy=0;entryX=1;entryY=0.5;entryDx=0;entryDy=0;" parent="3piHUk1r4FOu0g-W9Ip7-1" source="XuIn2h4xF1fcJh_-UhaT-70" target="XuIn2h4xF1fcJh_-UhaT-72" edge="1">
          <mxGeometry relative="1" as="geometry">
            <mxPoint x="1537.8" y="1307" as="targetPoint" />
          </mxGeometry>
        </mxCell>
        <mxCell id="XuIn2h4xF1fcJh_-UhaT-69" value="No" style="edgeStyle=orthogonalEdgeStyle;rounded=0;orthogonalLoop=1;jettySize=auto;html=1;exitX=0.5;exitY=1;exitDx=0;exitDy=0;entryX=0.5;entryY=0;entryDx=0;entryDy=0;" parent="3piHUk1r4FOu0g-W9Ip7-1" source="XuIn2h4xF1fcJh_-UhaT-70" target="XuIn2h4xF1fcJh_-UhaT-61" edge="1">
          <mxGeometry relative="1" as="geometry" />
        </mxCell>
        <mxCell id="XuIn2h4xF1fcJh_-UhaT-70" value="Are there left specifications?" style="rhombus;whiteSpace=wrap;html=1;shadow=0;fontFamily=Helvetica;fontSize=12;align=center;strokeWidth=1;spacing=6;spacingTop=-4;fillColor=#fff2cc;strokeColor=#d6b656;" parent="3piHUk1r4FOu0g-W9Ip7-1" vertex="1">
          <mxGeometry x="1676.8" y="1240" width="140" height="120" as="geometry" />
        </mxCell>
        <mxCell id="XuIn2h4xF1fcJh_-UhaT-71" style="edgeStyle=orthogonalEdgeStyle;rounded=0;orthogonalLoop=1;jettySize=auto;html=1;exitX=0;exitY=0.5;exitDx=0;exitDy=0;entryX=0;entryY=0.5;entryDx=0;entryDy=0;" parent="3piHUk1r4FOu0g-W9Ip7-1" source="XuIn2h4xF1fcJh_-UhaT-72" edge="1" target="XuIn2h4xF1fcJh_-UhaT-74">
          <mxGeometry relative="1" as="geometry">
            <mxPoint x="1682.8" y="307" as="targetPoint" />
            <Array as="points">
              <mxPoint x="1315" y="1300" />
              <mxPoint x="1315" y="440" />
            </Array>
          </mxGeometry>
        </mxCell>
        <mxCell id="XuIn2h4xF1fcJh_-UhaT-72" value="Consider the next specification in the scraped product information" style="rounded=0;whiteSpace=wrap;html=1;fontSize=12;align=center;fillColor=#f5f5f5;strokeColor=#666666;fontColor=#333333;" parent="3piHUk1r4FOu0g-W9Ip7-1" vertex="1">
          <mxGeometry x="1442.8" y="1270" width="180" height="60" as="geometry" />
        </mxCell>
        <mxCell id="XuIn2h4xF1fcJh_-UhaT-73" style="edgeStyle=orthogonalEdgeStyle;rounded=0;orthogonalLoop=1;jettySize=auto;html=1;exitX=0.5;exitY=1;exitDx=0;exitDy=0;entryX=0.5;entryY=0;entryDx=0;entryDy=0;" parent="3piHUk1r4FOu0g-W9Ip7-1" source="XuIn2h4xF1fcJh_-UhaT-74" target="XuIn2h4xF1fcJh_-UhaT-37" edge="1">
          <mxGeometry relative="1" as="geometry" />
        </mxCell>
        <mxCell id="XuIn2h4xF1fcJh_-UhaT-74" value="Get the product category attached to the current specification" style="rounded=0;whiteSpace=wrap;html=1;fontSize=12;align=center;fillColor=#f5f5f5;strokeColor=#666666;fontColor=#333333;" parent="3piHUk1r4FOu0g-W9Ip7-1" vertex="1">
          <mxGeometry x="1656.8" y="410" width="180" height="60" as="geometry" />
        </mxCell>
        <mxCell id="SzoxY9y-Y67Y083Pxiq2-6" style="edgeStyle=orthogonalEdgeStyle;rounded=0;orthogonalLoop=1;jettySize=auto;html=1;exitX=0.5;exitY=1;exitDx=0;exitDy=0;entryX=0.5;entryY=0;entryDx=0;entryDy=0;" edge="1" parent="3piHUk1r4FOu0g-W9Ip7-1" source="SzoxY9y-Y67Y083Pxiq2-0" target="XuIn2h4xF1fcJh_-UhaT-67">
          <mxGeometry relative="1" as="geometry" />
        </mxCell>
        <mxCell id="SzoxY9y-Y67Y083Pxiq2-0" value="Set threshold for similarity measure" style="rounded=0;whiteSpace=wrap;html=1;fontSize=12;align=center;fillColor=#f5f5f5;strokeColor=#666666;fontColor=#333333;" vertex="1" parent="3piHUk1r4FOu0g-W9Ip7-1">
          <mxGeometry x="1656.8" y="240" width="180" height="60" as="geometry" />
        </mxCell>
      </root>
    </mxGraphModel>
  </diagram>
  <diagram id="5ovJ2rvJporKYt18iW6-" name="Mapping">
    <mxGraphModel dx="1502" dy="759" grid="1" gridSize="10" guides="1" tooltips="1" connect="1" arrows="1" fold="1" page="1" pageScale="1" pageWidth="1200" pageHeight="1600" math="0" shadow="0">
      <root>
        <mxCell id="zWmMmn9vpeuH5gdJwPaS-0" />
        <mxCell id="zWmMmn9vpeuH5gdJwPaS-1" parent="zWmMmn9vpeuH5gdJwPaS-0" />
        <mxCell id="wftAGLgV2Td-Jek9NpUF-35" value="" style="rounded=0;whiteSpace=wrap;html=1;fillColor=none;dashed=1;" parent="zWmMmn9vpeuH5gdJwPaS-1" vertex="1">
          <mxGeometry x="1810" y="160" width="620" height="1090" as="geometry" />
        </mxCell>
        <mxCell id="wftAGLgV2Td-Jek9NpUF-34" value="" style="rounded=0;whiteSpace=wrap;html=1;fillColor=none;dashed=1;" parent="zWmMmn9vpeuH5gdJwPaS-1" vertex="1">
          <mxGeometry x="1170" y="480" width="585" height="740" as="geometry" />
        </mxCell>
        <mxCell id="eC2tsxFoFcOO4hhjFNSl-1" style="edgeStyle=orthogonalEdgeStyle;rounded=0;orthogonalLoop=1;jettySize=auto;html=1;exitX=0.5;exitY=1;exitDx=0;exitDy=0;entryX=0.5;entryY=0;entryDx=0;entryDy=0;" parent="zWmMmn9vpeuH5gdJwPaS-1" source="H5Vr0e9hP02iZnfWBV0V-10" target="eC2tsxFoFcOO4hhjFNSl-0" edge="1">
          <mxGeometry relative="1" as="geometry" />
        </mxCell>
        <mxCell id="H5Vr0e9hP02iZnfWBV0V-10" value="START" style="rounded=1;whiteSpace=wrap;html=1;fontSize=12;glass=0;strokeWidth=1;shadow=0;fillColor=#d5e8d4;strokeColor=#82b366;" parent="zWmMmn9vpeuH5gdJwPaS-1" vertex="1">
          <mxGeometry x="1453" y="90" width="64" height="50" as="geometry" />
        </mxCell>
        <mxCell id="wftAGLgV2Td-Jek9NpUF-11" style="edgeStyle=orthogonalEdgeStyle;rounded=0;orthogonalLoop=1;jettySize=auto;html=1;exitX=0.5;exitY=1;exitDx=0;exitDy=0;entryX=0.5;entryY=0;entryDx=0;entryDy=0;" parent="zWmMmn9vpeuH5gdJwPaS-1" source="eC2tsxFoFcOO4hhjFNSl-0" target="H5Vr0e9hP02iZnfWBV0V-13" edge="1">
          <mxGeometry relative="1" as="geometry" />
        </mxCell>
        <mxCell id="eC2tsxFoFcOO4hhjFNSl-0" value="&lt;div&gt;Input the most recent version of the knowledge &lt;br&gt;&lt;/div&gt;&lt;div&gt;graph and the scraped product information (name, &lt;br&gt;&lt;/div&gt;&lt;div&gt;category, specifications)&lt;/div&gt;" style="shape=parallelogram;perimeter=parallelogramPerimeter;whiteSpace=wrap;html=1;fixedSize=1;rounded=0;strokeColor=#6c8ebf;fillColor=#dae8fc;" parent="zWmMmn9vpeuH5gdJwPaS-1" vertex="1">
          <mxGeometry x="1340" y="170" width="290" height="54" as="geometry" />
        </mxCell>
        <mxCell id="u4qepmWQqn0JOt8gf2MF-1" value="&lt;div&gt;Output category not found&lt;br&gt;&lt;/div&gt;" style="shape=parallelogram;perimeter=parallelogramPerimeter;whiteSpace=wrap;html=1;fixedSize=1;rounded=0;strokeColor=#9673a6;fillColor=#e1d5e7;" parent="zWmMmn9vpeuH5gdJwPaS-1" vertex="1">
          <mxGeometry x="1215" y="971" width="180" height="57" as="geometry" />
        </mxCell>
        <mxCell id="u4qepmWQqn0JOt8gf2MF-2" value="Output the best candidate" style="shape=parallelogram;perimeter=parallelogramPerimeter;whiteSpace=wrap;html=1;fixedSize=1;rounded=0;strokeColor=#9673a6;fillColor=#e1d5e7;" parent="zWmMmn9vpeuH5gdJwPaS-1" vertex="1">
          <mxGeometry x="1575" y="971" width="180" height="57" as="geometry" />
        </mxCell>
        <mxCell id="wftAGLgV2Td-Jek9NpUF-2" style="edgeStyle=orthogonalEdgeStyle;rounded=0;orthogonalLoop=1;jettySize=auto;html=1;exitX=0.5;exitY=1;exitDx=0;exitDy=0;entryX=0.5;entryY=0;entryDx=0;entryDy=0;" parent="zWmMmn9vpeuH5gdJwPaS-1" source="H5Vr0e9hP02iZnfWBV0V-13" target="wftAGLgV2Td-Jek9NpUF-0" edge="1">
          <mxGeometry relative="1" as="geometry" />
        </mxCell>
        <mxCell id="H5Vr0e9hP02iZnfWBV0V-13" value="Set threshold for similarity measure" style="rounded=0;whiteSpace=wrap;html=1;fontSize=12;align=center;fillColor=#f5f5f5;strokeColor=#666666;fontColor=#333333;" parent="zWmMmn9vpeuH5gdJwPaS-1" vertex="1">
          <mxGeometry x="1415" y="280" width="140" height="60" as="geometry" />
        </mxCell>
        <mxCell id="H5Vr0e9hP02iZnfWBV0V-4" value="Compute the similarity of product category name to all class names within the KG" style="rounded=0;whiteSpace=wrap;html=1;fontSize=12;align=center;fillColor=#f5f5f5;strokeColor=#666666;fontColor=#333333;" parent="zWmMmn9vpeuH5gdJwPaS-1" vertex="1">
          <mxGeometry x="1415" y="500" width="140" height="60" as="geometry" />
        </mxCell>
        <mxCell id="H5Vr0e9hP02iZnfWBV0V-16" value="&lt;div&gt;Is there any&lt;br&gt;&lt;/div&gt;&lt;div&gt;match with a score above threshold?&lt;/div&gt;" style="rhombus;whiteSpace=wrap;html=1;shadow=0;fontFamily=Helvetica;fontSize=12;align=center;strokeWidth=1;spacing=6;spacingTop=-4;fillColor=#fff2cc;strokeColor=#d6b656;" parent="zWmMmn9vpeuH5gdJwPaS-1" vertex="1">
          <mxGeometry x="1415" y="630" width="140" height="120" as="geometry" />
        </mxCell>
        <mxCell id="H5Vr0e9hP02iZnfWBV0V-3" style="edgeStyle=orthogonalEdgeStyle;rounded=0;orthogonalLoop=1;jettySize=auto;html=1;exitX=0.5;exitY=1;exitDx=0;exitDy=0;entryX=0.5;entryY=0;entryDx=0;entryDy=0;fontSize=12;" parent="zWmMmn9vpeuH5gdJwPaS-1" source="H5Vr0e9hP02iZnfWBV0V-4" target="H5Vr0e9hP02iZnfWBV0V-16" edge="1">
          <mxGeometry relative="1" as="geometry" />
        </mxCell>
        <mxCell id="H5Vr0e9hP02iZnfWBV0V-15" value="No" style="edgeStyle=orthogonalEdgeStyle;rounded=0;orthogonalLoop=1;jettySize=auto;html=1;exitX=0;exitY=0.5;exitDx=0;exitDy=0;entryX=0.5;entryY=0;entryDx=0;entryDy=0;fontSize=12;" parent="zWmMmn9vpeuH5gdJwPaS-1" source="H5Vr0e9hP02iZnfWBV0V-16" target="u4qepmWQqn0JOt8gf2MF-1" edge="1">
          <mxGeometry x="-0.6429" relative="1" as="geometry">
            <mxPoint x="1256" y="837" as="targetPoint" />
            <mxPoint as="offset" />
          </mxGeometry>
        </mxCell>
        <mxCell id="wftAGLgV2Td-Jek9NpUF-29" value="Yes" style="edgeStyle=orthogonalEdgeStyle;rounded=0;orthogonalLoop=1;jettySize=auto;html=1;exitX=0.5;exitY=1;exitDx=0;exitDy=0;entryX=0.5;entryY=0;entryDx=0;entryDy=0;" parent="zWmMmn9vpeuH5gdJwPaS-1" source="H5Vr0e9hP02iZnfWBV0V-19" target="u4qepmWQqn0JOt8gf2MF-2" edge="1">
          <mxGeometry relative="1" as="geometry" />
        </mxCell>
        <mxCell id="H5Vr0e9hP02iZnfWBV0V-19" value="&lt;div&gt;Is the match &lt;br&gt;&lt;/div&gt;&lt;div&gt;with the highest score unique?&lt;/div&gt;" style="rhombus;whiteSpace=wrap;html=1;shadow=0;fontFamily=Helvetica;fontSize=12;align=center;strokeWidth=1;spacing=6;spacingTop=-4;fillColor=#fff2cc;strokeColor=#d6b656;" parent="zWmMmn9vpeuH5gdJwPaS-1" vertex="1">
          <mxGeometry x="1595" y="780" width="140" height="120" as="geometry" />
        </mxCell>
        <mxCell id="H5Vr0e9hP02iZnfWBV0V-14" value="Yes" style="edgeStyle=orthogonalEdgeStyle;rounded=0;orthogonalLoop=1;jettySize=auto;html=1;entryX=0.5;entryY=0;entryDx=0;entryDy=0;fontSize=12;exitX=1;exitY=0.5;exitDx=0;exitDy=0;" parent="zWmMmn9vpeuH5gdJwPaS-1" source="H5Vr0e9hP02iZnfWBV0V-16" target="H5Vr0e9hP02iZnfWBV0V-19" edge="1">
          <mxGeometry relative="1" as="geometry">
            <mxPoint x="1568" y="621" as="sourcePoint" />
          </mxGeometry>
        </mxCell>
        <mxCell id="H5Vr0e9hP02iZnfWBV0V-17" value="No" style="edgeStyle=orthogonalEdgeStyle;rounded=0;orthogonalLoop=1;jettySize=auto;html=1;exitX=0;exitY=0.5;exitDx=0;exitDy=0;fontSize=12;entryX=0.5;entryY=0;entryDx=0;entryDy=0;" parent="zWmMmn9vpeuH5gdJwPaS-1" source="H5Vr0e9hP02iZnfWBV0V-19" target="wftAGLgV2Td-Jek9NpUF-3" edge="1">
          <mxGeometry x="-0.4139" relative="1" as="geometry">
            <Array as="points">
              <mxPoint x="1485" y="840" />
            </Array>
            <mxPoint as="offset" />
            <mxPoint x="1510" y="730" as="targetPoint" />
          </mxGeometry>
        </mxCell>
        <mxCell id="SPu95ISYzvoqLWkSiAcU-10" style="edgeStyle=orthogonalEdgeStyle;rounded=0;orthogonalLoop=1;jettySize=auto;html=1;exitX=0.5;exitY=1;exitDx=0;exitDy=0;entryX=0.5;entryY=0;entryDx=0;entryDy=0;" parent="zWmMmn9vpeuH5gdJwPaS-1" source="u4qepmWQqn0JOt8gf2MF-1" target="wftAGLgV2Td-Jek9NpUF-5" edge="1">
          <mxGeometry relative="1" as="geometry">
            <mxPoint x="1485" y="1098.5" as="targetPoint" />
          </mxGeometry>
        </mxCell>
        <mxCell id="SPu95ISYzvoqLWkSiAcU-11" style="edgeStyle=orthogonalEdgeStyle;rounded=0;orthogonalLoop=1;jettySize=auto;html=1;exitX=0.5;exitY=1;exitDx=0;exitDy=0;entryX=0.5;entryY=0;entryDx=0;entryDy=0;" parent="zWmMmn9vpeuH5gdJwPaS-1" source="u4qepmWQqn0JOt8gf2MF-2" target="wftAGLgV2Td-Jek9NpUF-5" edge="1">
          <mxGeometry relative="1" as="geometry">
            <mxPoint x="1485" y="1098.5" as="targetPoint" />
          </mxGeometry>
        </mxCell>
        <mxCell id="wftAGLgV2Td-Jek9NpUF-1" style="edgeStyle=orthogonalEdgeStyle;rounded=0;orthogonalLoop=1;jettySize=auto;html=1;exitX=0.5;exitY=1;exitDx=0;exitDy=0;entryX=0.5;entryY=0;entryDx=0;entryDy=0;" parent="zWmMmn9vpeuH5gdJwPaS-1" source="wftAGLgV2Td-Jek9NpUF-0" target="H5Vr0e9hP02iZnfWBV0V-4" edge="1">
          <mxGeometry relative="1" as="geometry" />
        </mxCell>
        <mxCell id="wftAGLgV2Td-Jek9NpUF-0" value="Consider the first category in the scraped product information" style="rounded=0;whiteSpace=wrap;html=1;fontSize=12;align=center;fillColor=#f5f5f5;strokeColor=#666666;fontColor=#333333;" parent="zWmMmn9vpeuH5gdJwPaS-1" vertex="1">
          <mxGeometry x="1415" y="391" width="140" height="60" as="geometry" />
        </mxCell>
        <mxCell id="wftAGLgV2Td-Jek9NpUF-4" style="edgeStyle=orthogonalEdgeStyle;rounded=0;orthogonalLoop=1;jettySize=auto;html=1;exitX=0.5;exitY=1;exitDx=0;exitDy=0;entryX=0.5;entryY=0;entryDx=0;entryDy=0;" parent="zWmMmn9vpeuH5gdJwPaS-1" source="wftAGLgV2Td-Jek9NpUF-3" target="wftAGLgV2Td-Jek9NpUF-5" edge="1">
          <mxGeometry relative="1" as="geometry">
            <mxPoint x="1485" y="1098.5" as="targetPoint" />
          </mxGeometry>
        </mxCell>
        <mxCell id="wftAGLgV2Td-Jek9NpUF-3" value="&lt;div&gt;Output best candidates &lt;br&gt;&lt;/div&gt;&lt;div&gt;above threshold&lt;/div&gt;" style="shape=parallelogram;perimeter=parallelogramPerimeter;whiteSpace=wrap;html=1;fixedSize=1;rounded=0;strokeColor=#9673a6;fillColor=#e1d5e7;" parent="zWmMmn9vpeuH5gdJwPaS-1" vertex="1">
          <mxGeometry x="1395" y="971" width="180" height="57" as="geometry" />
        </mxCell>
        <mxCell id="wftAGLgV2Td-Jek9NpUF-9" value="&lt;div&gt;Yes&lt;/div&gt;" style="edgeStyle=orthogonalEdgeStyle;rounded=0;orthogonalLoop=1;jettySize=auto;html=1;exitX=0;exitY=0.5;exitDx=0;exitDy=0;entryX=1;entryY=0.5;entryDx=0;entryDy=0;" parent="zWmMmn9vpeuH5gdJwPaS-1" source="wftAGLgV2Td-Jek9NpUF-5" target="wftAGLgV2Td-Jek9NpUF-8" edge="1">
          <mxGeometry x="0.0638" relative="1" as="geometry">
            <mxPoint as="offset" />
          </mxGeometry>
        </mxCell>
        <mxCell id="wftAGLgV2Td-Jek9NpUF-14" value="No" style="edgeStyle=orthogonalEdgeStyle;rounded=0;orthogonalLoop=1;jettySize=auto;html=1;exitX=0.5;exitY=1;exitDx=0;exitDy=0;entryX=0.5;entryY=0;entryDx=0;entryDy=0;" parent="zWmMmn9vpeuH5gdJwPaS-1" source="wftAGLgV2Td-Jek9NpUF-5" target="wftAGLgV2Td-Jek9NpUF-13" edge="1">
          <mxGeometry relative="1" as="geometry" />
        </mxCell>
        <mxCell id="wftAGLgV2Td-Jek9NpUF-5" value="Are there left categories?" style="rhombus;whiteSpace=wrap;html=1;shadow=0;fontFamily=Helvetica;fontSize=12;align=center;strokeWidth=1;spacing=6;spacingTop=-4;fillColor=#fff2cc;strokeColor=#d6b656;" parent="zWmMmn9vpeuH5gdJwPaS-1" vertex="1">
          <mxGeometry x="1415" y="1080" width="140" height="120" as="geometry" />
        </mxCell>
        <mxCell id="wftAGLgV2Td-Jek9NpUF-10" style="edgeStyle=orthogonalEdgeStyle;rounded=0;orthogonalLoop=1;jettySize=auto;html=1;exitX=0;exitY=0.5;exitDx=0;exitDy=0;entryX=0;entryY=0.5;entryDx=0;entryDy=0;" parent="zWmMmn9vpeuH5gdJwPaS-1" source="wftAGLgV2Td-Jek9NpUF-8" target="H5Vr0e9hP02iZnfWBV0V-4" edge="1">
          <mxGeometry relative="1" as="geometry">
            <Array as="points">
              <mxPoint x="1200" y="1140" />
              <mxPoint x="1200" y="530" />
            </Array>
          </mxGeometry>
        </mxCell>
        <mxCell id="wftAGLgV2Td-Jek9NpUF-8" value="Consider the next category in the scraped product information" style="rounded=0;whiteSpace=wrap;html=1;fontSize=12;align=center;fillColor=#f5f5f5;strokeColor=#666666;fontColor=#333333;" parent="zWmMmn9vpeuH5gdJwPaS-1" vertex="1">
          <mxGeometry x="1228" y="1110" width="140" height="60" as="geometry" />
        </mxCell>
        <mxCell id="k5jpN0smbbOjfn2F-InB-13" value="END" style="rounded=1;whiteSpace=wrap;html=1;fontSize=12;glass=0;strokeWidth=1;shadow=0;fillColor=#f8cecc;strokeColor=#b85450;" parent="zWmMmn9vpeuH5gdJwPaS-1" vertex="1">
          <mxGeometry x="2103" y="1440" width="54" height="50" as="geometry" />
        </mxCell>
        <mxCell id="wftAGLgV2Td-Jek9NpUF-25" style="edgeStyle=orthogonalEdgeStyle;rounded=0;orthogonalLoop=1;jettySize=auto;html=1;exitX=0.5;exitY=1;exitDx=0;exitDy=0;entryX=0.5;entryY=0;entryDx=0;entryDy=0;" parent="zWmMmn9vpeuH5gdJwPaS-1" source="u4qepmWQqn0JOt8gf2MF-4" target="wftAGLgV2Td-Jek9NpUF-20" edge="1">
          <mxGeometry relative="1" as="geometry" />
        </mxCell>
        <mxCell id="u4qepmWQqn0JOt8gf2MF-4" value="&lt;div&gt;Output all candidate &lt;br&gt;&lt;/div&gt;&lt;div&gt;properties with similarity&lt;/div&gt;&lt;div&gt; above threshold&lt;/div&gt;" style="shape=parallelogram;perimeter=parallelogramPerimeter;whiteSpace=wrap;html=1;fixedSize=1;rounded=0;strokeColor=#9673a6;fillColor=#e1d5e7;" parent="zWmMmn9vpeuH5gdJwPaS-1" vertex="1">
          <mxGeometry x="1860" y="1020" width="180" height="57" as="geometry" />
        </mxCell>
        <mxCell id="wftAGLgV2Td-Jek9NpUF-26" style="edgeStyle=orthogonalEdgeStyle;rounded=0;orthogonalLoop=1;jettySize=auto;html=1;exitX=0.5;exitY=1;exitDx=0;exitDy=0;entryX=0.5;entryY=0;entryDx=0;entryDy=0;" parent="zWmMmn9vpeuH5gdJwPaS-1" source="u4qepmWQqn0JOt8gf2MF-5" target="wftAGLgV2Td-Jek9NpUF-20" edge="1">
          <mxGeometry relative="1" as="geometry" />
        </mxCell>
        <mxCell id="u4qepmWQqn0JOt8gf2MF-5" value="Output the best candidate property" style="shape=parallelogram;perimeter=parallelogramPerimeter;whiteSpace=wrap;html=1;fixedSize=1;rounded=0;strokeColor=#9673a6;fillColor=#e1d5e7;" parent="zWmMmn9vpeuH5gdJwPaS-1" vertex="1">
          <mxGeometry x="2040" y="1020" width="180" height="57" as="geometry" />
        </mxCell>
        <mxCell id="wftAGLgV2Td-Jek9NpUF-27" style="edgeStyle=orthogonalEdgeStyle;rounded=0;orthogonalLoop=1;jettySize=auto;html=1;exitX=0.5;exitY=1;exitDx=0;exitDy=0;entryX=0.5;entryY=0;entryDx=0;entryDy=0;" parent="zWmMmn9vpeuH5gdJwPaS-1" source="u4qepmWQqn0JOt8gf2MF-6" target="wftAGLgV2Td-Jek9NpUF-20" edge="1">
          <mxGeometry relative="1" as="geometry" />
        </mxCell>
        <mxCell id="u4qepmWQqn0JOt8gf2MF-6" value="&lt;div&gt;Output a proposal to &lt;br&gt;&lt;/div&gt;&lt;div&gt;generate a new property in&lt;/div&gt;&lt;div&gt; the KG based on the &lt;br&gt;&lt;/div&gt;&lt;div&gt;unmatched specification &lt;/div&gt;" style="shape=parallelogram;perimeter=parallelogramPerimeter;whiteSpace=wrap;html=1;fixedSize=1;rounded=0;strokeColor=#9673a6;fillColor=#e1d5e7;" parent="zWmMmn9vpeuH5gdJwPaS-1" vertex="1">
          <mxGeometry x="2220" y="1020" width="180" height="57" as="geometry" />
        </mxCell>
        <mxCell id="wftAGLgV2Td-Jek9NpUF-18" style="edgeStyle=orthogonalEdgeStyle;rounded=0;orthogonalLoop=1;jettySize=auto;html=1;exitX=0.5;exitY=1;exitDx=0;exitDy=0;entryX=0.5;entryY=0;entryDx=0;entryDy=0;" parent="zWmMmn9vpeuH5gdJwPaS-1" source="k5jpN0smbbOjfn2F-InB-31" target="k5jpN0smbbOjfn2F-InB-2" edge="1">
          <mxGeometry relative="1" as="geometry" />
        </mxCell>
        <mxCell id="k5jpN0smbbOjfn2F-InB-31" value="Set the product class matched to the product category of the specification as the target class" style="rounded=0;whiteSpace=wrap;html=1;fontSize=12;align=center;fillColor=#f5f5f5;strokeColor=#666666;fontColor=#333333;" parent="zWmMmn9vpeuH5gdJwPaS-1" vertex="1">
          <mxGeometry x="1970" y="250" width="160" height="60" as="geometry" />
        </mxCell>
        <mxCell id="SPu95ISYzvoqLWkSiAcU-13" value="Yes" style="edgeStyle=orthogonalEdgeStyle;rounded=0;orthogonalLoop=1;jettySize=auto;html=1;exitX=1;exitY=0.5;exitDx=0;exitDy=0;entryX=0.5;entryY=0;entryDx=0;entryDy=0;" parent="zWmMmn9vpeuH5gdJwPaS-1" source="k5jpN0smbbOjfn2F-InB-2" target="k5jpN0smbbOjfn2F-InB-25" edge="1">
          <mxGeometry relative="1" as="geometry" />
        </mxCell>
        <mxCell id="k5jpN0smbbOjfn2F-InB-2" value="&lt;div&gt;Does product&lt;/div&gt;&lt;div&gt; Specification have unit&lt;/div&gt;&lt;div&gt; of measurement?&lt;br&gt;&lt;/div&gt;" style="rhombus;whiteSpace=wrap;html=1;shadow=0;fontFamily=Helvetica;fontSize=12;align=center;strokeWidth=1;spacing=6;spacingTop=-4;fillColor=#fff2cc;strokeColor=#d6b656;" parent="zWmMmn9vpeuH5gdJwPaS-1" vertex="1">
          <mxGeometry x="1980" y="340" width="140" height="120" as="geometry" />
        </mxCell>
        <mxCell id="SPu95ISYzvoqLWkSiAcU-5" style="edgeStyle=orthogonalEdgeStyle;rounded=0;orthogonalLoop=1;jettySize=auto;html=1;exitX=0.5;exitY=1;exitDx=0;exitDy=0;entryX=0.5;entryY=0;entryDx=0;entryDy=0;" parent="zWmMmn9vpeuH5gdJwPaS-1" source="k5jpN0smbbOjfn2F-InB-23" target="k5jpN0smbbOjfn2F-InB-19" edge="1">
          <mxGeometry relative="1" as="geometry" />
        </mxCell>
        <mxCell id="k5jpN0smbbOjfn2F-InB-23" value="Generate a target property set with all properties attached to the target class" style="rounded=0;whiteSpace=wrap;html=1;fontSize=12;align=center;fillColor=#f5f5f5;strokeColor=#666666;fontColor=#333333;" parent="zWmMmn9vpeuH5gdJwPaS-1" vertex="1">
          <mxGeometry x="1960" y="509" width="180" height="60" as="geometry" />
        </mxCell>
        <mxCell id="k5jpN0smbbOjfn2F-InB-0" value="No" style="edgeStyle=orthogonalEdgeStyle;rounded=0;orthogonalLoop=1;jettySize=auto;html=1;exitX=0.5;exitY=1;exitDx=0;exitDy=0;fontSize=12;entryX=0.5;entryY=0;entryDx=0;entryDy=0;" parent="zWmMmn9vpeuH5gdJwPaS-1" source="k5jpN0smbbOjfn2F-InB-2" target="k5jpN0smbbOjfn2F-InB-23" edge="1">
          <mxGeometry x="0.014" relative="1" as="geometry">
            <mxPoint x="2254" y="730" as="targetPoint" />
            <mxPoint as="offset" />
          </mxGeometry>
        </mxCell>
        <mxCell id="k5jpN0smbbOjfn2F-InB-19" value="Compute the similarity of the specification&#39;s name to all property names inside the target property set" style="rounded=0;whiteSpace=wrap;html=1;fontSize=12;align=center;fillColor=#f5f5f5;strokeColor=#666666;fontColor=#333333;" parent="zWmMmn9vpeuH5gdJwPaS-1" vertex="1">
          <mxGeometry x="1960" y="600" width="180" height="60" as="geometry" />
        </mxCell>
        <mxCell id="k5jpN0smbbOjfn2F-InB-5" value="&lt;div&gt;Is there any &lt;br&gt;&lt;/div&gt;&lt;div&gt;match with a score above threshold?&lt;/div&gt;" style="rhombus;whiteSpace=wrap;html=1;shadow=0;fontFamily=Helvetica;fontSize=12;align=center;strokeWidth=1;spacing=6;spacingTop=-4;fillColor=#fff2cc;strokeColor=#d6b656;" parent="zWmMmn9vpeuH5gdJwPaS-1" vertex="1">
          <mxGeometry x="1980" y="735" width="140" height="120" as="geometry" />
        </mxCell>
        <mxCell id="k5jpN0smbbOjfn2F-InB-18" style="edgeStyle=orthogonalEdgeStyle;rounded=0;orthogonalLoop=1;jettySize=auto;html=1;exitX=0.5;exitY=1;exitDx=0;exitDy=0;entryX=0.5;entryY=0;entryDx=0;entryDy=0;fontSize=12;" parent="zWmMmn9vpeuH5gdJwPaS-1" source="k5jpN0smbbOjfn2F-InB-19" target="k5jpN0smbbOjfn2F-InB-5" edge="1">
          <mxGeometry relative="1" as="geometry" />
        </mxCell>
        <mxCell id="k5jpN0smbbOjfn2F-InB-10" value="&lt;div&gt;Does the target&lt;/div&gt;&lt;div&gt; class have a parent class?&lt;/div&gt;" style="rhombus;whiteSpace=wrap;html=1;shadow=0;fontFamily=Helvetica;fontSize=12;align=center;strokeWidth=1;spacing=6;spacingTop=-4;fillColor=#fff2cc;strokeColor=#d6b656;" parent="zWmMmn9vpeuH5gdJwPaS-1" vertex="1">
          <mxGeometry x="2240" y="855" width="140" height="120" as="geometry" />
        </mxCell>
        <mxCell id="k5jpN0smbbOjfn2F-InB-4" value="No" style="edgeStyle=orthogonalEdgeStyle;rounded=0;orthogonalLoop=1;jettySize=auto;html=1;exitX=1;exitY=0.5;exitDx=0;exitDy=0;entryX=0.5;entryY=0;entryDx=0;entryDy=0;fontSize=12;" parent="zWmMmn9vpeuH5gdJwPaS-1" source="k5jpN0smbbOjfn2F-InB-5" target="k5jpN0smbbOjfn2F-InB-10" edge="1">
          <mxGeometry relative="1" as="geometry" />
        </mxCell>
        <mxCell id="k5jpN0smbbOjfn2F-InB-9" value="No" style="edgeStyle=orthogonalEdgeStyle;rounded=0;orthogonalLoop=1;jettySize=auto;html=1;exitX=0.5;exitY=1;exitDx=0;exitDy=0;entryX=0.5;entryY=0;entryDx=0;entryDy=0;fontSize=12;" parent="zWmMmn9vpeuH5gdJwPaS-1" source="k5jpN0smbbOjfn2F-InB-10" target="u4qepmWQqn0JOt8gf2MF-6" edge="1">
          <mxGeometry relative="1" as="geometry">
            <mxPoint x="2401" y="1025" as="targetPoint" />
          </mxGeometry>
        </mxCell>
        <mxCell id="k5jpN0smbbOjfn2F-InB-17" value="Rewrite the target property set with the properties attached to all subclasses of the parent class in the KG" style="rounded=0;whiteSpace=wrap;html=1;fontSize=12;align=center;fillColor=#f5f5f5;strokeColor=#666666;fontColor=#333333;" parent="zWmMmn9vpeuH5gdJwPaS-1" vertex="1">
          <mxGeometry x="2230" y="680" width="180" height="80" as="geometry" />
        </mxCell>
        <mxCell id="k5jpN0smbbOjfn2F-InB-8" value="Yes" style="edgeStyle=orthogonalEdgeStyle;rounded=0;orthogonalLoop=1;jettySize=auto;html=1;exitX=1;exitY=0.5;exitDx=0;exitDy=0;entryX=0.5;entryY=1;entryDx=0;entryDy=0;fontSize=12;" parent="zWmMmn9vpeuH5gdJwPaS-1" source="k5jpN0smbbOjfn2F-InB-10" target="k5jpN0smbbOjfn2F-InB-17" edge="1">
          <mxGeometry x="-0.2" relative="1" as="geometry">
            <mxPoint as="offset" />
            <Array as="points">
              <mxPoint x="2400" y="915" />
              <mxPoint x="2400" y="780" />
              <mxPoint x="2320" y="780" />
            </Array>
          </mxGeometry>
        </mxCell>
        <mxCell id="k5jpN0smbbOjfn2F-InB-27" value="Set the parent class as the target class" style="rounded=0;whiteSpace=wrap;html=1;fontSize=12;align=center;fillColor=#f5f5f5;strokeColor=#666666;fontColor=#333333;" parent="zWmMmn9vpeuH5gdJwPaS-1" vertex="1">
          <mxGeometry x="2230" y="605" width="180" height="50" as="geometry" />
        </mxCell>
        <mxCell id="k5jpN0smbbOjfn2F-InB-26" style="edgeStyle=orthogonalEdgeStyle;rounded=0;orthogonalLoop=1;jettySize=auto;html=1;exitX=0;exitY=0.5;exitDx=0;exitDy=0;entryX=1;entryY=0.5;entryDx=0;entryDy=0;fontSize=12;" parent="zWmMmn9vpeuH5gdJwPaS-1" source="k5jpN0smbbOjfn2F-InB-27" target="k5jpN0smbbOjfn2F-InB-19" edge="1">
          <mxGeometry relative="1" as="geometry" />
        </mxCell>
        <mxCell id="k5jpN0smbbOjfn2F-InB-16" style="edgeStyle=orthogonalEdgeStyle;rounded=0;orthogonalLoop=1;jettySize=auto;html=1;exitX=0.5;exitY=0;exitDx=0;exitDy=0;entryX=0.5;entryY=1;entryDx=0;entryDy=0;fontSize=12;" parent="zWmMmn9vpeuH5gdJwPaS-1" source="k5jpN0smbbOjfn2F-InB-17" target="k5jpN0smbbOjfn2F-InB-27" edge="1">
          <mxGeometry relative="1" as="geometry" />
        </mxCell>
        <mxCell id="SPu95ISYzvoqLWkSiAcU-28" style="edgeStyle=orthogonalEdgeStyle;rounded=0;orthogonalLoop=1;jettySize=auto;html=1;exitX=0.5;exitY=1;exitDx=0;exitDy=0;entryX=1;entryY=0.5;entryDx=0;entryDy=0;" parent="zWmMmn9vpeuH5gdJwPaS-1" source="k5jpN0smbbOjfn2F-InB-25" target="k5jpN0smbbOjfn2F-InB-23" edge="1">
          <mxGeometry relative="1" as="geometry" />
        </mxCell>
        <mxCell id="k5jpN0smbbOjfn2F-InB-25" value="Only consider properties in the KG expressed in that unit" style="rounded=0;whiteSpace=wrap;html=1;fontSize=12;align=center;fillColor=#f5f5f5;strokeColor=#666666;fontColor=#333333;" parent="zWmMmn9vpeuH5gdJwPaS-1" vertex="1">
          <mxGeometry x="2150" y="439" width="180" height="60" as="geometry" />
        </mxCell>
        <mxCell id="k5jpN0smbbOjfn2F-InB-7" value="&lt;div&gt;Is the match &lt;br&gt;&lt;/div&gt;&lt;div&gt;with the highest score unique?&lt;/div&gt;" style="rhombus;whiteSpace=wrap;html=1;shadow=0;fontFamily=Helvetica;fontSize=12;align=center;strokeWidth=1;spacing=6;spacingTop=-4;fillColor=#fff2cc;strokeColor=#d6b656;" parent="zWmMmn9vpeuH5gdJwPaS-1" vertex="1">
          <mxGeometry x="1880" y="855" width="140" height="120" as="geometry" />
        </mxCell>
        <mxCell id="k5jpN0smbbOjfn2F-InB-32" value="No" style="edgeStyle=orthogonalEdgeStyle;rounded=0;orthogonalLoop=1;jettySize=auto;html=1;exitX=0.5;exitY=1;exitDx=0;exitDy=0;entryX=0.5;entryY=0;entryDx=0;entryDy=0;fontSize=12;" parent="zWmMmn9vpeuH5gdJwPaS-1" source="k5jpN0smbbOjfn2F-InB-7" target="u4qepmWQqn0JOt8gf2MF-4" edge="1">
          <mxGeometry x="-0.2" relative="1" as="geometry">
            <mxPoint x="1732" y="1215" as="sourcePoint" />
            <Array as="points" />
            <mxPoint as="offset" />
            <mxPoint x="1732" y="1025" as="targetPoint" />
          </mxGeometry>
        </mxCell>
        <mxCell id="k5jpN0smbbOjfn2F-InB-6" value="Yes" style="edgeStyle=orthogonalEdgeStyle;rounded=0;orthogonalLoop=1;jettySize=auto;html=1;exitX=1;exitY=0.5;exitDx=0;exitDy=0;entryX=0.5;entryY=0;entryDx=0;entryDy=0;fontSize=12;" parent="zWmMmn9vpeuH5gdJwPaS-1" source="k5jpN0smbbOjfn2F-InB-7" target="u4qepmWQqn0JOt8gf2MF-5" edge="1">
          <mxGeometry x="-0.6487" relative="1" as="geometry">
            <mxPoint as="offset" />
            <mxPoint x="2088" y="1025" as="targetPoint" />
          </mxGeometry>
        </mxCell>
        <mxCell id="k5jpN0smbbOjfn2F-InB-3" value="Yes" style="edgeStyle=orthogonalEdgeStyle;rounded=0;orthogonalLoop=1;jettySize=auto;html=1;exitX=0;exitY=0.5;exitDx=0;exitDy=0;entryX=0.5;entryY=0;entryDx=0;entryDy=0;fontSize=12;" parent="zWmMmn9vpeuH5gdJwPaS-1" source="k5jpN0smbbOjfn2F-InB-5" target="k5jpN0smbbOjfn2F-InB-7" edge="1">
          <mxGeometry relative="1" as="geometry">
            <Array as="points">
              <mxPoint x="1950" y="795" />
            </Array>
          </mxGeometry>
        </mxCell>
        <mxCell id="wftAGLgV2Td-Jek9NpUF-19" style="edgeStyle=orthogonalEdgeStyle;rounded=0;orthogonalLoop=1;jettySize=auto;html=1;exitX=0.5;exitY=1;exitDx=0;exitDy=0;entryX=0.5;entryY=0;entryDx=0;entryDy=0;" parent="zWmMmn9vpeuH5gdJwPaS-1" source="SPu95ISYzvoqLWkSiAcU-29" target="f-Jjqi0wbrFRjPlKHwzh-0" edge="1">
          <mxGeometry relative="1" as="geometry" />
        </mxCell>
        <mxCell id="SPu95ISYzvoqLWkSiAcU-29" value="&lt;div&gt;Input user validation &lt;br&gt;&lt;/div&gt;&lt;div&gt;of the results&lt;/div&gt;" style="shape=parallelogram;perimeter=parallelogramPerimeter;whiteSpace=wrap;html=1;fixedSize=1;rounded=0;strokeColor=#6c8ebf;fillColor=#dae8fc;" parent="zWmMmn9vpeuH5gdJwPaS-1" vertex="1">
          <mxGeometry x="2040" y="1290" width="180" height="47" as="geometry" />
        </mxCell>
        <mxCell id="vm9aTRL_AKHwwWaEUW3l-1" style="edgeStyle=orthogonalEdgeStyle;rounded=0;orthogonalLoop=1;jettySize=auto;html=1;exitX=0.5;exitY=1;exitDx=0;exitDy=0;entryX=0.5;entryY=0;entryDx=0;entryDy=0;" parent="zWmMmn9vpeuH5gdJwPaS-1" source="f-Jjqi0wbrFRjPlKHwzh-0" target="k5jpN0smbbOjfn2F-InB-13" edge="1">
          <mxGeometry relative="1" as="geometry">
            <mxPoint x="2135" y="1090" as="sourcePoint" />
          </mxGeometry>
        </mxCell>
        <mxCell id="f-Jjqi0wbrFRjPlKHwzh-0" value="&lt;div&gt;Output category-class and &lt;br&gt;&lt;/div&gt;&lt;div&gt;specification-property equivalences &lt;br&gt;&lt;/div&gt;&lt;div&gt;as mapping result&lt;br&gt;&lt;/div&gt;" style="shape=parallelogram;perimeter=parallelogramPerimeter;whiteSpace=wrap;html=1;fixedSize=1;rounded=0;strokeColor=#9673a6;fillColor=#e1d5e7;" parent="zWmMmn9vpeuH5gdJwPaS-1" vertex="1">
          <mxGeometry x="1985" y="1360" width="290" height="50" as="geometry" />
        </mxCell>
        <mxCell id="wftAGLgV2Td-Jek9NpUF-16" style="edgeStyle=orthogonalEdgeStyle;rounded=0;orthogonalLoop=1;jettySize=auto;html=1;exitX=0.5;exitY=1;exitDx=0;exitDy=0;entryX=0;entryY=0.5;entryDx=0;entryDy=0;" parent="zWmMmn9vpeuH5gdJwPaS-1" source="wftAGLgV2Td-Jek9NpUF-13" target="wftAGLgV2Td-Jek9NpUF-15" edge="1">
          <mxGeometry relative="1" as="geometry">
            <Array as="points">
              <mxPoint x="1485" y="1360" />
              <mxPoint x="1780" y="1360" />
              <mxPoint x="1780" y="120" />
            </Array>
          </mxGeometry>
        </mxCell>
        <mxCell id="wftAGLgV2Td-Jek9NpUF-13" value="&lt;div&gt;Input user validation &lt;br&gt;&lt;/div&gt;&lt;div&gt;of the results&lt;br&gt;&lt;/div&gt;" style="shape=parallelogram;perimeter=parallelogramPerimeter;whiteSpace=wrap;html=1;fixedSize=1;rounded=0;strokeColor=#6c8ebf;fillColor=#dae8fc;" parent="zWmMmn9vpeuH5gdJwPaS-1" vertex="1">
          <mxGeometry x="1395" y="1270" width="180" height="47" as="geometry" />
        </mxCell>
        <mxCell id="wftAGLgV2Td-Jek9NpUF-17" style="edgeStyle=orthogonalEdgeStyle;rounded=0;orthogonalLoop=1;jettySize=auto;html=1;exitX=0.5;exitY=1;exitDx=0;exitDy=0;entryX=0.5;entryY=0;entryDx=0;entryDy=0;" parent="zWmMmn9vpeuH5gdJwPaS-1" source="wftAGLgV2Td-Jek9NpUF-15" target="wftAGLgV2Td-Jek9NpUF-30" edge="1">
          <mxGeometry relative="1" as="geometry" />
        </mxCell>
        <mxCell id="wftAGLgV2Td-Jek9NpUF-15" value="Consider the first product specification in the scraped product information" style="rounded=0;whiteSpace=wrap;html=1;fontSize=12;align=center;fillColor=#f5f5f5;strokeColor=#666666;fontColor=#333333;" parent="zWmMmn9vpeuH5gdJwPaS-1" vertex="1">
          <mxGeometry x="1970" y="90" width="160" height="60" as="geometry" />
        </mxCell>
        <mxCell id="wftAGLgV2Td-Jek9NpUF-22" value="Yes" style="edgeStyle=orthogonalEdgeStyle;rounded=0;orthogonalLoop=1;jettySize=auto;html=1;exitX=0;exitY=0.5;exitDx=0;exitDy=0;entryX=1;entryY=0.5;entryDx=0;entryDy=0;" parent="zWmMmn9vpeuH5gdJwPaS-1" source="wftAGLgV2Td-Jek9NpUF-20" target="wftAGLgV2Td-Jek9NpUF-21" edge="1">
          <mxGeometry relative="1" as="geometry" />
        </mxCell>
        <mxCell id="wftAGLgV2Td-Jek9NpUF-28" value="No" style="edgeStyle=orthogonalEdgeStyle;rounded=0;orthogonalLoop=1;jettySize=auto;html=1;exitX=0.5;exitY=1;exitDx=0;exitDy=0;entryX=0.5;entryY=0;entryDx=0;entryDy=0;" parent="zWmMmn9vpeuH5gdJwPaS-1" source="wftAGLgV2Td-Jek9NpUF-20" target="SPu95ISYzvoqLWkSiAcU-29" edge="1">
          <mxGeometry relative="1" as="geometry" />
        </mxCell>
        <mxCell id="wftAGLgV2Td-Jek9NpUF-20" value="Are there left specifications?" style="rhombus;whiteSpace=wrap;html=1;shadow=0;fontFamily=Helvetica;fontSize=12;align=center;strokeWidth=1;spacing=6;spacingTop=-4;fillColor=#fff2cc;strokeColor=#d6b656;" parent="zWmMmn9vpeuH5gdJwPaS-1" vertex="1">
          <mxGeometry x="2060" y="1120" width="140" height="120" as="geometry" />
        </mxCell>
        <mxCell id="wftAGLgV2Td-Jek9NpUF-24" style="edgeStyle=orthogonalEdgeStyle;rounded=0;orthogonalLoop=1;jettySize=auto;html=1;exitX=0;exitY=0.5;exitDx=0;exitDy=0;" parent="zWmMmn9vpeuH5gdJwPaS-1" source="wftAGLgV2Td-Jek9NpUF-21" edge="1">
          <mxGeometry relative="1" as="geometry">
            <mxPoint x="1980" y="200" as="targetPoint" />
            <Array as="points">
              <mxPoint x="1830" y="1180" />
              <mxPoint x="1830" y="200" />
            </Array>
          </mxGeometry>
        </mxCell>
        <mxCell id="wftAGLgV2Td-Jek9NpUF-21" value="Consider the next specification in the scraped product information" style="rounded=0;whiteSpace=wrap;html=1;fontSize=12;align=center;fillColor=#f5f5f5;strokeColor=#666666;fontColor=#333333;" parent="zWmMmn9vpeuH5gdJwPaS-1" vertex="1">
          <mxGeometry x="1860" y="1150" width="140" height="60" as="geometry" />
        </mxCell>
        <mxCell id="wftAGLgV2Td-Jek9NpUF-31" style="edgeStyle=orthogonalEdgeStyle;rounded=0;orthogonalLoop=1;jettySize=auto;html=1;exitX=0.5;exitY=1;exitDx=0;exitDy=0;entryX=0.5;entryY=0;entryDx=0;entryDy=0;" parent="zWmMmn9vpeuH5gdJwPaS-1" source="wftAGLgV2Td-Jek9NpUF-30" target="k5jpN0smbbOjfn2F-InB-31" edge="1">
          <mxGeometry relative="1" as="geometry" />
        </mxCell>
        <mxCell id="wftAGLgV2Td-Jek9NpUF-30" value="Find the product category to which the current product specification was attached" style="rounded=0;whiteSpace=wrap;html=1;fontSize=12;align=center;fillColor=#f5f5f5;strokeColor=#666666;fontColor=#333333;" parent="zWmMmn9vpeuH5gdJwPaS-1" vertex="1">
          <mxGeometry x="1970" y="170" width="160" height="60" as="geometry" />
        </mxCell>
        <mxCell id="wftAGLgV2Td-Jek9NpUF-36" value="&lt;font style=&quot;font-size: 20px&quot;&gt;Property Mapping&lt;/font&gt;" style="text;html=1;strokeColor=none;fillColor=none;align=center;verticalAlign=middle;whiteSpace=wrap;rounded=0;dashed=1;fontSize=12;fontColor=#000000;" parent="zWmMmn9vpeuH5gdJwPaS-1" vertex="1">
          <mxGeometry x="2230" y="170" width="200" height="20" as="geometry" />
        </mxCell>
        <mxCell id="jnfpMoTzSh2E1Ks1FehU-0" value="&lt;font style=&quot;font-size: 20px&quot;&gt;Class Mapping&lt;/font&gt;" style="text;html=1;strokeColor=none;fillColor=none;align=center;verticalAlign=middle;whiteSpace=wrap;rounded=0;dashed=1;fontSize=12;fontColor=#000000;" parent="zWmMmn9vpeuH5gdJwPaS-1" vertex="1">
          <mxGeometry x="1580" y="490" width="200" height="20" as="geometry" />
        </mxCell>
      </root>
    </mxGraphModel>
  </diagram>
  <diagram id="JtDaEnot27p0f02VclvA" name="Population">
    <mxGraphModel dx="1891" dy="2169" grid="1" gridSize="10" guides="1" tooltips="1" connect="1" arrows="1" fold="1" page="1" pageScale="1" pageWidth="1200" pageHeight="1600" math="0" shadow="0">
      <root>
        <mxCell id="DDDXRgLxa3qNdQ2m7Lwm-0" />
        <mxCell id="DDDXRgLxa3qNdQ2m7Lwm-1" parent="DDDXRgLxa3qNdQ2m7Lwm-0" />
        <mxCell id="8m5Wt0BwIV1sQYrI05Io-0" style="edgeStyle=orthogonalEdgeStyle;rounded=0;orthogonalLoop=1;jettySize=auto;html=1;exitX=0.5;exitY=1;exitDx=0;exitDy=0;entryX=0.5;entryY=0;entryDx=0;entryDy=0;" parent="DDDXRgLxa3qNdQ2m7Lwm-1" source="8m5Wt0BwIV1sQYrI05Io-1" edge="1">
          <mxGeometry relative="1" as="geometry">
            <mxPoint x="3000.5" y="136" as="targetPoint" />
          </mxGeometry>
        </mxCell>
        <mxCell id="8m5Wt0BwIV1sQYrI05Io-1" value="START" style="rounded=1;whiteSpace=wrap;html=1;fontSize=12;glass=0;strokeWidth=1;shadow=0;fillColor=#d5e8d4;strokeColor=#82b366;" parent="DDDXRgLxa3qNdQ2m7Lwm-1" vertex="1">
          <mxGeometry x="2968" y="60" width="64" height="50" as="geometry" />
        </mxCell>
        <mxCell id="axkH4ITCjI1akfDQg0r4-0" value="Yes" style="edgeStyle=orthogonalEdgeStyle;rounded=0;orthogonalLoop=1;jettySize=auto;html=1;exitX=0.5;exitY=1;exitDx=0;exitDy=0;entryX=0.5;entryY=0;entryDx=0;entryDy=0;" parent="DDDXRgLxa3qNdQ2m7Lwm-1" source="M4pgpHcpQS7uzfhMGJgz-1" target="M4pgpHcpQS7uzfhMGJgz-2" edge="1">
          <mxGeometry relative="1" as="geometry">
            <mxPoint x="3000" y="210" as="sourcePoint" />
          </mxGeometry>
        </mxCell>
        <mxCell id="M4pgpHcpQS7uzfhMGJgz-4" style="edgeStyle=orthogonalEdgeStyle;rounded=0;orthogonalLoop=1;jettySize=auto;html=1;exitX=0.5;exitY=1;exitDx=0;exitDy=0;entryX=0.5;entryY=0;entryDx=0;entryDy=0;" parent="DDDXRgLxa3qNdQ2m7Lwm-1" source="-ANa0VU79bZ86z_YQRN_-1" target="M4pgpHcpQS7uzfhMGJgz-0" edge="1">
          <mxGeometry relative="1" as="geometry" />
        </mxCell>
        <mxCell id="-ANa0VU79bZ86z_YQRN_-1" value="&lt;div&gt;Input the most recent version of the KG&lt;/div&gt;&lt;div&gt; and the result of the mapping process&lt;/div&gt;" style="shape=parallelogram;perimeter=parallelogramPerimeter;whiteSpace=wrap;html=1;fixedSize=1;rounded=0;strokeColor=#6c8ebf;fillColor=#dae8fc;" parent="DDDXRgLxa3qNdQ2m7Lwm-1" vertex="1">
          <mxGeometry x="2855" y="136" width="290" height="54" as="geometry" />
        </mxCell>
        <mxCell id="Hno5jo_SqBzwXOH2DObU-1" style="edgeStyle=orthogonalEdgeStyle;rounded=0;orthogonalLoop=1;jettySize=auto;html=1;exitX=0.5;exitY=1;exitDx=0;exitDy=0;entryX=1;entryY=0.5;entryDx=0;entryDy=0;startArrow=none;" parent="DDDXRgLxa3qNdQ2m7Lwm-1" source="8m5Wt0BwIV1sQYrI05Io-8" target="8m5Wt0BwIV1sQYrI05Io-20" edge="1">
          <mxGeometry relative="1" as="geometry">
            <Array as="points">
              <mxPoint x="3200" y="1000" />
            </Array>
          </mxGeometry>
        </mxCell>
        <mxCell id="8m5Wt0BwIV1sQYrI05Io-8" value="Create new property in the KG" style="rounded=0;whiteSpace=wrap;html=1;fontSize=12;align=center;fillColor=#f5f5f5;strokeColor=#666666;fontColor=#333333;" parent="DDDXRgLxa3qNdQ2m7Lwm-1" vertex="1">
          <mxGeometry x="3130" y="830" width="140" height="60" as="geometry" />
        </mxCell>
        <mxCell id="Hno5jo_SqBzwXOH2DObU-0" value="Yes" style="edgeStyle=orthogonalEdgeStyle;rounded=0;orthogonalLoop=1;jettySize=auto;html=1;exitX=0.5;exitY=1;exitDx=0;exitDy=0;entryX=0.5;entryY=0;entryDx=0;entryDy=0;" parent="DDDXRgLxa3qNdQ2m7Lwm-1" source="8m5Wt0BwIV1sQYrI05Io-17" target="8m5Wt0BwIV1sQYrI05Io-20" edge="1">
          <mxGeometry x="-0.4286" relative="1" as="geometry">
            <mxPoint as="offset" />
            <Array as="points">
              <mxPoint x="3000" y="970" />
              <mxPoint x="3000" y="970" />
            </Array>
          </mxGeometry>
        </mxCell>
        <mxCell id="8m5Wt0BwIV1sQYrI05Io-17" value="&lt;div&gt;Does &lt;br&gt;&lt;/div&gt;&lt;div&gt;product &lt;br&gt;&lt;/div&gt;&lt;div&gt;specification have a correspondent &lt;br&gt;&lt;/div&gt;&lt;div&gt;property in &lt;br&gt;&lt;/div&gt;&lt;div&gt;the KG?&lt;/div&gt;" style="rhombus;whiteSpace=wrap;html=1;shadow=0;fontFamily=Helvetica;fontSize=12;align=center;strokeWidth=1;spacing=6;spacingTop=-4;fillColor=#fff2cc;strokeColor=#d6b656;" parent="DDDXRgLxa3qNdQ2m7Lwm-1" vertex="1">
          <mxGeometry x="2930" y="800" width="140" height="120" as="geometry" />
        </mxCell>
        <mxCell id="8m5Wt0BwIV1sQYrI05Io-18" value="No" style="edgeStyle=orthogonalEdgeStyle;rounded=0;orthogonalLoop=1;jettySize=auto;html=1;exitX=1;exitY=0.5;exitDx=0;exitDy=0;entryX=0;entryY=0.5;entryDx=0;entryDy=0;fontSize=12;" parent="DDDXRgLxa3qNdQ2m7Lwm-1" source="8m5Wt0BwIV1sQYrI05Io-17" target="8m5Wt0BwIV1sQYrI05Io-8" edge="1">
          <mxGeometry relative="1" as="geometry">
            <mxPoint as="offset" />
          </mxGeometry>
        </mxCell>
        <mxCell id="3hYrF8uMMAbNChrPaKu0-3" style="edgeStyle=orthogonalEdgeStyle;rounded=0;orthogonalLoop=1;jettySize=auto;html=1;exitX=0.5;exitY=1;exitDx=0;exitDy=0;entryX=0.5;entryY=0;entryDx=0;entryDy=0;" parent="DDDXRgLxa3qNdQ2m7Lwm-1" source="8m5Wt0BwIV1sQYrI05Io-20" target="Hno5jo_SqBzwXOH2DObU-4" edge="1">
          <mxGeometry relative="1" as="geometry" />
        </mxCell>
        <mxCell id="8m5Wt0BwIV1sQYrI05Io-20" value="Add the specification name to the list of labels of the property if it is not already included" style="rounded=0;whiteSpace=wrap;html=1;fontSize=12;align=center;fillColor=#f5f5f5;strokeColor=#666666;fontColor=#333333;" parent="DDDXRgLxa3qNdQ2m7Lwm-1" vertex="1">
          <mxGeometry x="2900" y="970" width="200" height="60" as="geometry" />
        </mxCell>
        <mxCell id="3hYrF8uMMAbNChrPaKu0-4" style="edgeStyle=orthogonalEdgeStyle;rounded=0;orthogonalLoop=1;jettySize=auto;html=1;exitX=0.5;exitY=1;exitDx=0;exitDy=0;entryX=0.5;entryY=0;entryDx=0;entryDy=0;" parent="DDDXRgLxa3qNdQ2m7Lwm-1" source="Hno5jo_SqBzwXOH2DObU-4" target="Hno5jo_SqBzwXOH2DObU-5" edge="1">
          <mxGeometry relative="1" as="geometry" />
        </mxCell>
        <mxCell id="Hno5jo_SqBzwXOH2DObU-4" value="Add the units of measurement of the specification to the list of units of the property if they are not already included" style="rounded=0;whiteSpace=wrap;html=1;fontSize=12;align=center;fillColor=#f5f5f5;strokeColor=#666666;fontColor=#333333;" parent="DDDXRgLxa3qNdQ2m7Lwm-1" vertex="1">
          <mxGeometry x="2900" y="1060" width="200" height="60" as="geometry" />
        </mxCell>
        <mxCell id="o1GOc6i1qO3SszFoGxps-10" style="edgeStyle=orthogonalEdgeStyle;rounded=0;orthogonalLoop=1;jettySize=auto;html=1;exitX=0.5;exitY=1;exitDx=0;exitDy=0;entryX=0.5;entryY=0;entryDx=0;entryDy=0;" parent="DDDXRgLxa3qNdQ2m7Lwm-1" source="Hno5jo_SqBzwXOH2DObU-5" target="o1GOc6i1qO3SszFoGxps-12" edge="1">
          <mxGeometry relative="1" as="geometry" />
        </mxCell>
        <mxCell id="Hno5jo_SqBzwXOH2DObU-5" value="Add the specification&#39;s product class to the domain of the property if it is not already included" style="rounded=0;whiteSpace=wrap;html=1;fontSize=12;align=center;fillColor=#f5f5f5;strokeColor=#666666;fontColor=#333333;" parent="DDDXRgLxa3qNdQ2m7Lwm-1" vertex="1">
          <mxGeometry x="2900" y="1150" width="200" height="60" as="geometry" />
        </mxCell>
        <mxCell id="M4pgpHcpQS7uzfhMGJgz-3" style="edgeStyle=orthogonalEdgeStyle;rounded=0;orthogonalLoop=1;jettySize=auto;html=1;exitX=0.5;exitY=1;exitDx=0;exitDy=0;entryX=0.5;entryY=0;entryDx=0;entryDy=0;" parent="DDDXRgLxa3qNdQ2m7Lwm-1" source="M4pgpHcpQS7uzfhMGJgz-0" target="M4pgpHcpQS7uzfhMGJgz-1" edge="1">
          <mxGeometry relative="1" as="geometry" />
        </mxCell>
        <mxCell id="M4pgpHcpQS7uzfhMGJgz-0" value="Consider the first category in the mapping result" style="rounded=0;whiteSpace=wrap;html=1;fontSize=12;align=center;fillColor=#f5f5f5;strokeColor=#666666;fontColor=#333333;" parent="DDDXRgLxa3qNdQ2m7Lwm-1" vertex="1">
          <mxGeometry x="2900" y="210" width="200" height="60" as="geometry" />
        </mxCell>
        <mxCell id="M4pgpHcpQS7uzfhMGJgz-6" value="&lt;div&gt;No&lt;/div&gt;" style="edgeStyle=orthogonalEdgeStyle;rounded=0;orthogonalLoop=1;jettySize=auto;html=1;exitX=1;exitY=0.5;exitDx=0;exitDy=0;entryX=0;entryY=0.5;entryDx=0;entryDy=0;" parent="DDDXRgLxa3qNdQ2m7Lwm-1" source="M4pgpHcpQS7uzfhMGJgz-1" target="M4pgpHcpQS7uzfhMGJgz-5" edge="1">
          <mxGeometry relative="1" as="geometry" />
        </mxCell>
        <mxCell id="M4pgpHcpQS7uzfhMGJgz-1" value="&lt;div&gt;Does &lt;br&gt;&lt;/div&gt;&lt;div&gt;product &lt;br&gt;&lt;/div&gt;&lt;div&gt;category have a correspondent &lt;br&gt;&lt;/div&gt;&lt;div&gt;class in the &lt;br&gt;&lt;/div&gt;&lt;div&gt;KG?&lt;/div&gt;" style="rhombus;whiteSpace=wrap;html=1;shadow=0;fontFamily=Helvetica;fontSize=12;align=center;strokeWidth=1;spacing=6;spacingTop=-4;fillColor=#fff2cc;strokeColor=#d6b656;" parent="DDDXRgLxa3qNdQ2m7Lwm-1" vertex="1">
          <mxGeometry x="2930" y="290" width="140" height="120" as="geometry" />
        </mxCell>
        <mxCell id="o1GOc6i1qO3SszFoGxps-1" style="edgeStyle=orthogonalEdgeStyle;rounded=0;orthogonalLoop=1;jettySize=auto;html=1;exitX=0.5;exitY=1;exitDx=0;exitDy=0;entryX=0.5;entryY=0;entryDx=0;entryDy=0;" parent="DDDXRgLxa3qNdQ2m7Lwm-1" source="M4pgpHcpQS7uzfhMGJgz-2" target="M4pgpHcpQS7uzfhMGJgz-9" edge="1">
          <mxGeometry relative="1" as="geometry" />
        </mxCell>
        <mxCell id="M4pgpHcpQS7uzfhMGJgz-2" value="Add the category name to the list of labels of the correspondent class if it is not already included" style="rounded=0;whiteSpace=wrap;html=1;fontSize=12;align=center;fillColor=#f5f5f5;strokeColor=#666666;fontColor=#333333;" parent="DDDXRgLxa3qNdQ2m7Lwm-1" vertex="1">
          <mxGeometry x="2900" y="460" width="200" height="60" as="geometry" />
        </mxCell>
        <mxCell id="o1GOc6i1qO3SszFoGxps-18" style="edgeStyle=orthogonalEdgeStyle;rounded=0;orthogonalLoop=1;jettySize=auto;html=1;exitX=0.5;exitY=1;exitDx=0;exitDy=0;entryX=1;entryY=0.5;entryDx=0;entryDy=0;" parent="DDDXRgLxa3qNdQ2m7Lwm-1" source="M4pgpHcpQS7uzfhMGJgz-5" target="M4pgpHcpQS7uzfhMGJgz-9" edge="1">
          <mxGeometry relative="1" as="geometry" />
        </mxCell>
        <mxCell id="M4pgpHcpQS7uzfhMGJgz-5" value="Ignore category" style="rounded=0;whiteSpace=wrap;html=1;fontSize=12;align=center;fillColor=#f5f5f5;strokeColor=#666666;fontColor=#333333;" parent="DDDXRgLxa3qNdQ2m7Lwm-1" vertex="1">
          <mxGeometry x="3125" y="320" width="140" height="60" as="geometry" />
        </mxCell>
        <mxCell id="o1GOc6i1qO3SszFoGxps-2" value="Yes" style="edgeStyle=orthogonalEdgeStyle;rounded=0;orthogonalLoop=1;jettySize=auto;html=1;exitX=0;exitY=0.5;exitDx=0;exitDy=0;" parent="DDDXRgLxa3qNdQ2m7Lwm-1" source="M4pgpHcpQS7uzfhMGJgz-9" edge="1">
          <mxGeometry relative="1" as="geometry">
            <mxPoint x="2870" y="610.5882352941176" as="targetPoint" />
          </mxGeometry>
        </mxCell>
        <mxCell id="o1GOc6i1qO3SszFoGxps-6" value="No" style="edgeStyle=orthogonalEdgeStyle;rounded=0;orthogonalLoop=1;jettySize=auto;html=1;exitX=0.5;exitY=1;exitDx=0;exitDy=0;entryX=0.5;entryY=0;entryDx=0;entryDy=0;" parent="DDDXRgLxa3qNdQ2m7Lwm-1" source="M4pgpHcpQS7uzfhMGJgz-9" target="o1GOc6i1qO3SszFoGxps-5" edge="1">
          <mxGeometry relative="1" as="geometry" />
        </mxCell>
        <mxCell id="M4pgpHcpQS7uzfhMGJgz-9" value="Are there left categories?" style="rhombus;whiteSpace=wrap;html=1;shadow=0;fontFamily=Helvetica;fontSize=12;align=center;strokeWidth=1;spacing=6;spacingTop=-4;fillColor=#fff2cc;strokeColor=#d6b656;" parent="DDDXRgLxa3qNdQ2m7Lwm-1" vertex="1">
          <mxGeometry x="2930" y="550" width="140" height="120" as="geometry" />
        </mxCell>
        <mxCell id="o1GOc6i1qO3SszFoGxps-4" style="edgeStyle=orthogonalEdgeStyle;rounded=0;orthogonalLoop=1;jettySize=auto;html=1;exitX=0.5;exitY=0;exitDx=0;exitDy=0;entryX=0;entryY=0.5;entryDx=0;entryDy=0;" parent="DDDXRgLxa3qNdQ2m7Lwm-1" source="o1GOc6i1qO3SszFoGxps-3" target="M4pgpHcpQS7uzfhMGJgz-1" edge="1">
          <mxGeometry relative="1" as="geometry" />
        </mxCell>
        <mxCell id="o1GOc6i1qO3SszFoGxps-3" value="Consider next category in the mapping result" style="rounded=0;whiteSpace=wrap;html=1;fontSize=12;align=center;fillColor=#f5f5f5;strokeColor=#666666;fontColor=#333333;" parent="DDDXRgLxa3qNdQ2m7Lwm-1" vertex="1">
          <mxGeometry x="2730" y="580" width="140" height="60" as="geometry" />
        </mxCell>
        <mxCell id="o1GOc6i1qO3SszFoGxps-7" style="edgeStyle=orthogonalEdgeStyle;rounded=0;orthogonalLoop=1;jettySize=auto;html=1;exitX=0.5;exitY=1;exitDx=0;exitDy=0;entryX=0.5;entryY=0;entryDx=0;entryDy=0;" parent="DDDXRgLxa3qNdQ2m7Lwm-1" source="o1GOc6i1qO3SszFoGxps-5" target="8m5Wt0BwIV1sQYrI05Io-17" edge="1">
          <mxGeometry relative="1" as="geometry" />
        </mxCell>
        <mxCell id="o1GOc6i1qO3SszFoGxps-5" value="Consider the first specification in the mapping result" style="rounded=0;whiteSpace=wrap;html=1;fontSize=12;align=center;fillColor=#f5f5f5;strokeColor=#666666;fontColor=#333333;" parent="DDDXRgLxa3qNdQ2m7Lwm-1" vertex="1">
          <mxGeometry x="2900" y="710" width="200" height="60" as="geometry" />
        </mxCell>
        <mxCell id="o1GOc6i1qO3SszFoGxps-11" style="edgeStyle=orthogonalEdgeStyle;rounded=0;orthogonalLoop=1;jettySize=auto;html=1;exitX=0.5;exitY=1;exitDx=0;exitDy=0;entryX=0.5;entryY=0;entryDx=0;entryDy=0;" parent="DDDXRgLxa3qNdQ2m7Lwm-1" source="o1GOc6i1qO3SszFoGxps-8" target="o1GOc6i1qO3SszFoGxps-9" edge="1">
          <mxGeometry relative="1" as="geometry" />
        </mxCell>
        <mxCell id="o1GOc6i1qO3SszFoGxps-8" value="Output updated Knowledge Graph" style="shape=parallelogram;perimeter=parallelogramPerimeter;whiteSpace=wrap;html=1;fixedSize=1;rounded=0;strokeColor=#9673a6;fillColor=#e1d5e7;" parent="DDDXRgLxa3qNdQ2m7Lwm-1" vertex="1">
          <mxGeometry x="2855" y="1410" width="290" height="54" as="geometry" />
        </mxCell>
        <mxCell id="o1GOc6i1qO3SszFoGxps-9" value="END" style="rounded=1;whiteSpace=wrap;html=1;fontSize=12;glass=0;strokeWidth=1;shadow=0;fillColor=#f8cecc;strokeColor=#b85450;" parent="DDDXRgLxa3qNdQ2m7Lwm-1" vertex="1">
          <mxGeometry x="2973" y="1490" width="54" height="50" as="geometry" />
        </mxCell>
        <mxCell id="o1GOc6i1qO3SszFoGxps-16" value="Yes" style="edgeStyle=orthogonalEdgeStyle;rounded=0;orthogonalLoop=1;jettySize=auto;html=1;exitX=0;exitY=0.5;exitDx=0;exitDy=0;entryX=1;entryY=0.5;entryDx=0;entryDy=0;" parent="DDDXRgLxa3qNdQ2m7Lwm-1" source="o1GOc6i1qO3SszFoGxps-12" target="o1GOc6i1qO3SszFoGxps-14" edge="1">
          <mxGeometry relative="1" as="geometry" />
        </mxCell>
        <mxCell id="o1GOc6i1qO3SszFoGxps-17" value="No" style="edgeStyle=orthogonalEdgeStyle;rounded=0;orthogonalLoop=1;jettySize=auto;html=1;exitX=0.5;exitY=1;exitDx=0;exitDy=0;entryX=0.5;entryY=0;entryDx=0;entryDy=0;" parent="DDDXRgLxa3qNdQ2m7Lwm-1" source="o1GOc6i1qO3SszFoGxps-12" target="o1GOc6i1qO3SszFoGxps-8" edge="1">
          <mxGeometry relative="1" as="geometry" />
        </mxCell>
        <mxCell id="o1GOc6i1qO3SszFoGxps-12" value="Are there left specifications?" style="rhombus;whiteSpace=wrap;html=1;shadow=0;fontFamily=Helvetica;fontSize=12;align=center;strokeWidth=1;spacing=6;spacingTop=-4;fillColor=#fff2cc;strokeColor=#d6b656;" parent="DDDXRgLxa3qNdQ2m7Lwm-1" vertex="1">
          <mxGeometry x="2930" y="1250" width="140" height="120" as="geometry" />
        </mxCell>
        <mxCell id="o1GOc6i1qO3SszFoGxps-15" style="edgeStyle=orthogonalEdgeStyle;rounded=0;orthogonalLoop=1;jettySize=auto;html=1;exitX=0.5;exitY=0;exitDx=0;exitDy=0;entryX=0;entryY=0.5;entryDx=0;entryDy=0;" parent="DDDXRgLxa3qNdQ2m7Lwm-1" source="o1GOc6i1qO3SszFoGxps-14" target="8m5Wt0BwIV1sQYrI05Io-17" edge="1">
          <mxGeometry relative="1" as="geometry" />
        </mxCell>
        <mxCell id="o1GOc6i1qO3SszFoGxps-14" value="Consider next specification in the mapping result" style="rounded=0;whiteSpace=wrap;html=1;fontSize=12;align=center;fillColor=#f5f5f5;strokeColor=#666666;fontColor=#333333;" parent="DDDXRgLxa3qNdQ2m7Lwm-1" vertex="1">
          <mxGeometry x="2740" y="1280" width="140" height="60" as="geometry" />
        </mxCell>
      </root>
    </mxGraphModel>
  </diagram>
  <diagram id="KsEUaQhDssJ34KeUOVb5" name="Instance Creation">
    <mxGraphModel dx="1355" dy="1898" grid="1" gridSize="10" guides="1" tooltips="1" connect="1" arrows="1" fold="1" page="1" pageScale="1" pageWidth="1200" pageHeight="1600" math="0" shadow="0">
      <root>
        <mxCell id="CDYHEnSlLhHthL5JsW4_-0" />
        <mxCell id="CDYHEnSlLhHthL5JsW4_-1" parent="CDYHEnSlLhHthL5JsW4_-0" />
        <mxCell id="_7csx8LOWVHZnGBqOJhT-0" value="No" style="edgeStyle=orthogonalEdgeStyle;rounded=0;orthogonalLoop=1;jettySize=auto;html=1;exitX=1;exitY=0.5;exitDx=0;exitDy=0;entryX=0;entryY=0.5;entryDx=0;entryDy=0;" parent="CDYHEnSlLhHthL5JsW4_-1" source="_7csx8LOWVHZnGBqOJhT-2" target="_7csx8LOWVHZnGBqOJhT-4" edge="1">
          <mxGeometry relative="1" as="geometry" />
        </mxCell>
        <mxCell id="_7csx8LOWVHZnGBqOJhT-1" value="Yes" style="edgeStyle=orthogonalEdgeStyle;rounded=0;orthogonalLoop=1;jettySize=auto;html=1;exitX=0.5;exitY=1;exitDx=0;exitDy=0;entryX=0.5;entryY=0;entryDx=0;entryDy=0;" parent="CDYHEnSlLhHthL5JsW4_-1" source="_7csx8LOWVHZnGBqOJhT-2" target="_7csx8LOWVHZnGBqOJhT-8" edge="1">
          <mxGeometry relative="1" as="geometry">
            <mxPoint as="offset" />
          </mxGeometry>
        </mxCell>
        <mxCell id="_7csx8LOWVHZnGBqOJhT-2" value="&lt;div&gt;Does &lt;br&gt;&lt;/div&gt;&lt;div&gt;product category &lt;br&gt;&lt;/div&gt;&lt;div&gt;have a correspondent &lt;br&gt;&lt;/div&gt;&lt;div&gt;class in &lt;br&gt;&lt;/div&gt;&lt;div&gt;the KG?&lt;/div&gt;" style="rhombus;whiteSpace=wrap;html=1;shadow=0;fontFamily=Helvetica;fontSize=12;align=center;strokeWidth=1;spacing=6;spacingTop=-4;fillColor=#fff2cc;strokeColor=#d6b656;" parent="CDYHEnSlLhHthL5JsW4_-1" vertex="1">
          <mxGeometry x="2937" y="305" width="140" height="120" as="geometry" />
        </mxCell>
        <mxCell id="VJma3DcBk5mpM9F7XTbZ-0" style="edgeStyle=orthogonalEdgeStyle;rounded=0;orthogonalLoop=1;jettySize=auto;html=1;exitX=1;exitY=0.5;exitDx=0;exitDy=0;entryX=1;entryY=0.5;entryDx=0;entryDy=0;" parent="CDYHEnSlLhHthL5JsW4_-1" source="_7csx8LOWVHZnGBqOJhT-4" target="X2YO0oSuuGhzeaSq1-sL-1" edge="1">
          <mxGeometry relative="1" as="geometry">
            <Array as="points">
              <mxPoint x="3360" y="365" />
              <mxPoint x="3360" y="1329" />
            </Array>
          </mxGeometry>
        </mxCell>
        <mxCell id="_7csx8LOWVHZnGBqOJhT-4" value="Ignore product" style="rounded=0;whiteSpace=wrap;html=1;fontSize=12;align=center;fillColor=#f5f5f5;strokeColor=#666666;fontColor=#333333;" parent="CDYHEnSlLhHthL5JsW4_-1" vertex="1">
          <mxGeometry x="3180" y="335" width="140" height="60" as="geometry" />
        </mxCell>
        <mxCell id="_7csx8LOWVHZnGBqOJhT-5" style="edgeStyle=orthogonalEdgeStyle;rounded=0;orthogonalLoop=1;jettySize=auto;html=1;exitX=0.5;exitY=1;exitDx=0;exitDy=0;entryX=0.5;entryY=0;entryDx=0;entryDy=0;" parent="CDYHEnSlLhHthL5JsW4_-1" source="5LHAOl8vTsNuWSolqIF5-4" target="_7csx8LOWVHZnGBqOJhT-2" edge="1">
          <mxGeometry relative="1" as="geometry">
            <mxPoint x="3007" y="343" as="sourcePoint" />
          </mxGeometry>
        </mxCell>
        <mxCell id="_7csx8LOWVHZnGBqOJhT-7" style="edgeStyle=orthogonalEdgeStyle;rounded=0;orthogonalLoop=1;jettySize=auto;html=1;exitX=0.5;exitY=1;exitDx=0;exitDy=0;entryX=0.5;entryY=0;entryDx=0;entryDy=0;" parent="CDYHEnSlLhHthL5JsW4_-1" source="_7csx8LOWVHZnGBqOJhT-8" target="_7csx8LOWVHZnGBqOJhT-10" edge="1">
          <mxGeometry relative="1" as="geometry" />
        </mxCell>
        <mxCell id="_7csx8LOWVHZnGBqOJhT-8" value="Create an instance of &lt;b&gt;gr:SomeItems&lt;/b&gt; and attach to it all specifications following the mapping result" style="rounded=0;whiteSpace=wrap;html=1;fontSize=12;align=center;fillColor=#f5f5f5;strokeColor=#666666;fontColor=#333333;" parent="CDYHEnSlLhHthL5JsW4_-1" vertex="1">
          <mxGeometry x="2872" y="465" width="270" height="60" as="geometry" />
        </mxCell>
        <mxCell id="U09xvzk_6WfIIkEVEGUF-1" style="edgeStyle=orthogonalEdgeStyle;rounded=0;orthogonalLoop=1;jettySize=auto;html=1;exitX=0.5;exitY=1;exitDx=0;exitDy=0;entryX=0.5;entryY=0;entryDx=0;entryDy=0;" parent="CDYHEnSlLhHthL5JsW4_-1" source="_7csx8LOWVHZnGBqOJhT-10" target="5LHAOl8vTsNuWSolqIF5-6" edge="1">
          <mxGeometry relative="1" as="geometry" />
        </mxCell>
        <mxCell id="_7csx8LOWVHZnGBqOJhT-10" value="Use the property &lt;b&gt;ECLASSType&lt;/b&gt; to link the instance of &lt;b&gt;gr:SomeItems&lt;/b&gt; to the correspondent product class in the ontology following the mapping result" style="rounded=0;whiteSpace=wrap;html=1;fontSize=12;align=center;fillColor=#f5f5f5;strokeColor=#666666;fontColor=#333333;" parent="CDYHEnSlLhHthL5JsW4_-1" vertex="1">
          <mxGeometry x="2872" y="545" width="270" height="60" as="geometry" />
        </mxCell>
        <mxCell id="_7csx8LOWVHZnGBqOJhT-11" style="edgeStyle=orthogonalEdgeStyle;rounded=0;orthogonalLoop=1;jettySize=auto;html=1;exitX=0.5;exitY=1;exitDx=0;exitDy=0;entryX=0.5;entryY=0;entryDx=0;entryDy=0;" parent="CDYHEnSlLhHthL5JsW4_-1" source="_7csx8LOWVHZnGBqOJhT-12" target="_7csx8LOWVHZnGBqOJhT-16" edge="1">
          <mxGeometry relative="1" as="geometry" />
        </mxCell>
        <mxCell id="_7csx8LOWVHZnGBqOJhT-12" value="Output updated Knowledge Graph" style="shape=parallelogram;perimeter=parallelogramPerimeter;whiteSpace=wrap;html=1;fixedSize=1;rounded=0;strokeColor=#9673a6;fillColor=#e1d5e7;" parent="CDYHEnSlLhHthL5JsW4_-1" vertex="1">
          <mxGeometry x="2862" y="1415" width="290" height="54" as="geometry" />
        </mxCell>
        <mxCell id="_7csx8LOWVHZnGBqOJhT-16" value="END" style="rounded=1;whiteSpace=wrap;html=1;fontSize=12;glass=0;strokeWidth=1;shadow=0;fillColor=#f8cecc;strokeColor=#b85450;" parent="CDYHEnSlLhHthL5JsW4_-1" vertex="1">
          <mxGeometry x="2980" y="1495" width="54" height="50" as="geometry" />
        </mxCell>
        <mxCell id="Wjkm3z5Ias2XFe5Xg-0S-0" style="edgeStyle=orthogonalEdgeStyle;rounded=0;orthogonalLoop=1;jettySize=auto;html=1;exitX=0.5;exitY=1;exitDx=0;exitDy=0;entryX=0.5;entryY=0;entryDx=0;entryDy=0;" edge="1" parent="CDYHEnSlLhHthL5JsW4_-1" source="5LHAOl8vTsNuWSolqIF5-1" target="5LHAOl8vTsNuWSolqIF5-3">
          <mxGeometry relative="1" as="geometry" />
        </mxCell>
        <mxCell id="5LHAOl8vTsNuWSolqIF5-1" value="START" style="rounded=1;whiteSpace=wrap;html=1;fontSize=12;glass=0;strokeWidth=1;shadow=0;fillColor=#d5e8d4;strokeColor=#82b366;" parent="CDYHEnSlLhHthL5JsW4_-1" vertex="1">
          <mxGeometry x="2975" y="55" width="64" height="50" as="geometry" />
        </mxCell>
        <mxCell id="5LHAOl8vTsNuWSolqIF5-2" style="edgeStyle=orthogonalEdgeStyle;rounded=0;orthogonalLoop=1;jettySize=auto;html=1;exitX=0.5;exitY=1;exitDx=0;exitDy=0;entryX=0.5;entryY=0;entryDx=0;entryDy=0;" parent="CDYHEnSlLhHthL5JsW4_-1" source="5LHAOl8vTsNuWSolqIF5-3" target="5LHAOl8vTsNuWSolqIF5-4" edge="1">
          <mxGeometry relative="1" as="geometry" />
        </mxCell>
        <mxCell id="5LHAOl8vTsNuWSolqIF5-3" value="&lt;div&gt;Input the most recent version of the KG, &lt;br&gt;&lt;/div&gt;&lt;div&gt;the result of the mapping process, and the &lt;br&gt;&lt;/div&gt;&lt;div&gt;scraped product information (name, &lt;br&gt;&lt;/div&gt;&lt;div&gt;category, specifications)&lt;/div&gt;" style="shape=parallelogram;perimeter=parallelogramPerimeter;whiteSpace=wrap;html=1;fixedSize=1;rounded=0;strokeColor=#6c8ebf;fillColor=#dae8fc;" parent="CDYHEnSlLhHthL5JsW4_-1" vertex="1">
          <mxGeometry x="2862" y="125" width="290" height="74" as="geometry" />
        </mxCell>
        <mxCell id="5LHAOl8vTsNuWSolqIF5-4" value="Consider the first product in the scraped items" style="rounded=0;whiteSpace=wrap;html=1;fontSize=12;align=center;fillColor=#f5f5f5;strokeColor=#666666;fontColor=#333333;" parent="CDYHEnSlLhHthL5JsW4_-1" vertex="1">
          <mxGeometry x="2907" y="225" width="200" height="60" as="geometry" />
        </mxCell>
        <mxCell id="U09xvzk_6WfIIkEVEGUF-18" style="edgeStyle=orthogonalEdgeStyle;rounded=0;orthogonalLoop=1;jettySize=auto;html=1;exitX=0.5;exitY=1;exitDx=0;exitDy=0;entryX=0.5;entryY=0;entryDx=0;entryDy=0;" parent="CDYHEnSlLhHthL5JsW4_-1" source="5LHAOl8vTsNuWSolqIF5-5" target="U09xvzk_6WfIIkEVEGUF-4" edge="1">
          <mxGeometry relative="1" as="geometry" />
        </mxCell>
        <mxCell id="5LHAOl8vTsNuWSolqIF5-5" value="&lt;div&gt;Create an instance of &lt;b&gt;im:Information_&lt;/b&gt;&lt;/div&gt;&lt;div&gt;&lt;b&gt;concretization&lt;/b&gt;, link it to the &lt;b&gt;gr:Offering&lt;/b&gt; instance, and attach author and time information&lt;/div&gt;" style="rounded=0;whiteSpace=wrap;html=1;fontSize=12;align=center;fillColor=#f5f5f5;strokeColor=#666666;fontColor=#333333;" parent="CDYHEnSlLhHthL5JsW4_-1" vertex="1">
          <mxGeometry x="2872" y="705" width="270" height="60" as="geometry" />
        </mxCell>
        <mxCell id="U09xvzk_6WfIIkEVEGUF-2" style="edgeStyle=orthogonalEdgeStyle;rounded=0;orthogonalLoop=1;jettySize=auto;html=1;exitX=0.5;exitY=1;exitDx=0;exitDy=0;entryX=0.5;entryY=0;entryDx=0;entryDy=0;" parent="CDYHEnSlLhHthL5JsW4_-1" source="5LHAOl8vTsNuWSolqIF5-6" edge="1" target="5LHAOl8vTsNuWSolqIF5-5">
          <mxGeometry relative="1" as="geometry">
            <mxPoint x="3007.2758620689656" y="699" as="targetPoint" />
          </mxGeometry>
        </mxCell>
        <mxCell id="5LHAOl8vTsNuWSolqIF5-6" value="Create an instance of &lt;b&gt;gr:Offering&lt;/b&gt;, link it to the &lt;b&gt;gr:SomeItems&lt;/b&gt; instance, and attach price and availability information" style="rounded=0;whiteSpace=wrap;html=1;fontSize=12;align=center;fillColor=#f5f5f5;strokeColor=#666666;fontColor=#333333;" parent="CDYHEnSlLhHthL5JsW4_-1" vertex="1">
          <mxGeometry x="2872" y="625" width="270" height="60" as="geometry" />
        </mxCell>
        <mxCell id="U09xvzk_6WfIIkEVEGUF-10" style="edgeStyle=orthogonalEdgeStyle;rounded=0;orthogonalLoop=1;jettySize=auto;html=1;exitX=0.5;exitY=1;exitDx=0;exitDy=0;entryX=0.5;entryY=0;entryDx=0;entryDy=0;" parent="CDYHEnSlLhHthL5JsW4_-1" source="U09xvzk_6WfIIkEVEGUF-3" target="U09xvzk_6WfIIkEVEGUF-8" edge="1">
          <mxGeometry relative="1" as="geometry" />
        </mxCell>
        <mxCell id="U09xvzk_6WfIIkEVEGUF-3" value="Link the web page to the &lt;b&gt;im:information_concretization&lt;/b&gt; instance" style="rounded=0;whiteSpace=wrap;html=1;fontSize=12;align=center;fillColor=#f5f5f5;strokeColor=#666666;fontColor=#333333;" parent="CDYHEnSlLhHthL5JsW4_-1" vertex="1">
          <mxGeometry x="2872" y="945" width="270" height="60" as="geometry" />
        </mxCell>
        <mxCell id="U09xvzk_6WfIIkEVEGUF-6" value="No" style="edgeStyle=orthogonalEdgeStyle;rounded=0;orthogonalLoop=1;jettySize=auto;html=1;exitX=1;exitY=0.5;exitDx=0;exitDy=0;entryX=0;entryY=0.5;entryDx=0;entryDy=0;" parent="CDYHEnSlLhHthL5JsW4_-1" source="U09xvzk_6WfIIkEVEGUF-4" target="U09xvzk_6WfIIkEVEGUF-5" edge="1">
          <mxGeometry relative="1" as="geometry" />
        </mxCell>
        <mxCell id="U09xvzk_6WfIIkEVEGUF-7" value="Yes" style="edgeStyle=orthogonalEdgeStyle;rounded=0;orthogonalLoop=1;jettySize=auto;html=1;exitX=0.5;exitY=1;exitDx=0;exitDy=0;entryX=0.5;entryY=0;entryDx=0;entryDy=0;" parent="CDYHEnSlLhHthL5JsW4_-1" source="U09xvzk_6WfIIkEVEGUF-4" target="U09xvzk_6WfIIkEVEGUF-3" edge="1">
          <mxGeometry relative="1" as="geometry" />
        </mxCell>
        <mxCell id="U09xvzk_6WfIIkEVEGUF-4" value="&lt;div&gt;Is the&lt;/div&gt;&lt;div&gt; product&#39;s web page already registered&lt;/div&gt;&lt;div&gt;in the KG? &lt;/div&gt;" style="rhombus;whiteSpace=wrap;html=1;shadow=0;fontFamily=Helvetica;fontSize=12;align=center;strokeWidth=1;spacing=6;spacingTop=-4;fillColor=#fff2cc;strokeColor=#d6b656;" parent="CDYHEnSlLhHthL5JsW4_-1" vertex="1">
          <mxGeometry x="2937" y="785" width="140" height="120" as="geometry" />
        </mxCell>
        <mxCell id="U09xvzk_6WfIIkEVEGUF-12" style="edgeStyle=orthogonalEdgeStyle;rounded=0;orthogonalLoop=1;jettySize=auto;html=1;exitX=0.5;exitY=1;exitDx=0;exitDy=0;entryX=1;entryY=0.5;entryDx=0;entryDy=0;" parent="CDYHEnSlLhHthL5JsW4_-1" source="U09xvzk_6WfIIkEVEGUF-5" target="U09xvzk_6WfIIkEVEGUF-3" edge="1">
          <mxGeometry relative="1" as="geometry" />
        </mxCell>
        <mxCell id="U09xvzk_6WfIIkEVEGUF-5" value="Create a new &lt;b&gt;im:Webpage&lt;/b&gt; instance" style="rounded=0;whiteSpace=wrap;html=1;fontSize=12;align=center;fillColor=#f5f5f5;strokeColor=#666666;fontColor=#333333;" parent="CDYHEnSlLhHthL5JsW4_-1" vertex="1">
          <mxGeometry x="3180" y="815" width="140" height="60" as="geometry" />
        </mxCell>
        <mxCell id="U09xvzk_6WfIIkEVEGUF-14" value="No" style="edgeStyle=orthogonalEdgeStyle;rounded=0;orthogonalLoop=1;jettySize=auto;html=1;exitX=1;exitY=0.5;exitDx=0;exitDy=0;entryX=0;entryY=0.5;entryDx=0;entryDy=0;" parent="CDYHEnSlLhHthL5JsW4_-1" source="U09xvzk_6WfIIkEVEGUF-8" target="U09xvzk_6WfIIkEVEGUF-13" edge="1">
          <mxGeometry relative="1" as="geometry" />
        </mxCell>
        <mxCell id="U09xvzk_6WfIIkEVEGUF-15" value="Yes" style="edgeStyle=orthogonalEdgeStyle;rounded=0;orthogonalLoop=1;jettySize=auto;html=1;exitX=0.5;exitY=1;exitDx=0;exitDy=0;entryX=0.5;entryY=0;entryDx=0;entryDy=0;" parent="CDYHEnSlLhHthL5JsW4_-1" source="U09xvzk_6WfIIkEVEGUF-8" target="U09xvzk_6WfIIkEVEGUF-11" edge="1">
          <mxGeometry relative="1" as="geometry" />
        </mxCell>
        <mxCell id="U09xvzk_6WfIIkEVEGUF-8" value="&lt;div&gt;Is the&lt;/div&gt;&lt;div&gt; organization &lt;br&gt;&lt;/div&gt;&lt;div&gt;offering the product already registered&lt;/div&gt;&lt;div&gt;in the &lt;br&gt;&lt;/div&gt;&lt;div&gt;KB? &lt;/div&gt;" style="rhombus;whiteSpace=wrap;html=1;shadow=0;fontFamily=Helvetica;fontSize=12;align=center;strokeWidth=1;spacing=6;spacingTop=-4;fillColor=#fff2cc;strokeColor=#d6b656;" parent="CDYHEnSlLhHthL5JsW4_-1" vertex="1">
          <mxGeometry x="2937" y="1029" width="140" height="120" as="geometry" />
        </mxCell>
        <mxCell id="X2YO0oSuuGhzeaSq1-sL-0" style="edgeStyle=orthogonalEdgeStyle;rounded=0;orthogonalLoop=1;jettySize=auto;html=1;exitX=0.5;exitY=1;exitDx=0;exitDy=0;entryX=0.5;entryY=0;entryDx=0;entryDy=0;" parent="CDYHEnSlLhHthL5JsW4_-1" source="U09xvzk_6WfIIkEVEGUF-11" target="X2YO0oSuuGhzeaSq1-sL-1" edge="1">
          <mxGeometry relative="1" as="geometry">
            <mxPoint x="3007" y="1289" as="targetPoint" />
          </mxGeometry>
        </mxCell>
        <mxCell id="U09xvzk_6WfIIkEVEGUF-11" value="Link the organization to the &lt;b&gt;gr:Offering&lt;/b&gt; instance" style="rounded=0;whiteSpace=wrap;html=1;fontSize=12;align=center;fillColor=#f5f5f5;strokeColor=#666666;fontColor=#333333;" parent="CDYHEnSlLhHthL5JsW4_-1" vertex="1">
          <mxGeometry x="2872" y="1189" width="270" height="60" as="geometry" />
        </mxCell>
        <mxCell id="U09xvzk_6WfIIkEVEGUF-16" style="edgeStyle=orthogonalEdgeStyle;rounded=0;orthogonalLoop=1;jettySize=auto;html=1;exitX=0.5;exitY=1;exitDx=0;exitDy=0;entryX=1;entryY=0.5;entryDx=0;entryDy=0;" parent="CDYHEnSlLhHthL5JsW4_-1" source="U09xvzk_6WfIIkEVEGUF-13" target="U09xvzk_6WfIIkEVEGUF-11" edge="1">
          <mxGeometry relative="1" as="geometry" />
        </mxCell>
        <mxCell id="U09xvzk_6WfIIkEVEGUF-13" value="Create a new &lt;b&gt;gr:BusinessEntity&lt;/b&gt; instance" style="rounded=0;whiteSpace=wrap;html=1;fontSize=12;align=center;fillColor=#f5f5f5;strokeColor=#666666;fontColor=#333333;" parent="CDYHEnSlLhHthL5JsW4_-1" vertex="1">
          <mxGeometry x="3180" y="1059" width="140" height="60" as="geometry" />
        </mxCell>
        <mxCell id="c-OCx1ZgWr-ZvH9COMZq-0" value="No" style="edgeStyle=orthogonalEdgeStyle;rounded=0;orthogonalLoop=1;jettySize=auto;html=1;exitX=0.5;exitY=1;exitDx=0;exitDy=0;entryX=0.5;entryY=0;entryDx=0;entryDy=0;" parent="CDYHEnSlLhHthL5JsW4_-1" source="X2YO0oSuuGhzeaSq1-sL-1" target="_7csx8LOWVHZnGBqOJhT-12" edge="1">
          <mxGeometry relative="1" as="geometry" />
        </mxCell>
        <mxCell id="c-OCx1ZgWr-ZvH9COMZq-1" value="Yes" style="edgeStyle=orthogonalEdgeStyle;rounded=0;orthogonalLoop=1;jettySize=auto;html=1;exitX=0;exitY=0.5;exitDx=0;exitDy=0;entryX=1;entryY=0.5;entryDx=0;entryDy=0;" parent="CDYHEnSlLhHthL5JsW4_-1" source="X2YO0oSuuGhzeaSq1-sL-1" edge="1" target="c-OCx1ZgWr-ZvH9COMZq-2">
          <mxGeometry relative="1" as="geometry">
            <mxPoint x="2787" y="1329" as="targetPoint" />
          </mxGeometry>
        </mxCell>
        <mxCell id="X2YO0oSuuGhzeaSq1-sL-1" value="&lt;div&gt;Are there left &lt;br&gt;&lt;/div&gt;&lt;div&gt;products?&lt;/div&gt;" style="rhombus;whiteSpace=wrap;html=1;shadow=0;fontFamily=Helvetica;fontSize=12;align=center;strokeWidth=1;spacing=6;spacingTop=-4;fillColor=#fff2cc;strokeColor=#d6b656;" parent="CDYHEnSlLhHthL5JsW4_-1" vertex="1">
          <mxGeometry x="2937" y="1269" width="140" height="120" as="geometry" />
        </mxCell>
        <mxCell id="c-OCx1ZgWr-ZvH9COMZq-3" style="edgeStyle=orthogonalEdgeStyle;rounded=0;orthogonalLoop=1;jettySize=auto;html=1;exitX=0.5;exitY=0;exitDx=0;exitDy=0;entryX=0;entryY=0.5;entryDx=0;entryDy=0;" parent="CDYHEnSlLhHthL5JsW4_-1" source="c-OCx1ZgWr-ZvH9COMZq-2" target="_7csx8LOWVHZnGBqOJhT-2" edge="1">
          <mxGeometry relative="1" as="geometry" />
        </mxCell>
        <mxCell id="c-OCx1ZgWr-ZvH9COMZq-2" value="Consider next product in the scraped items file" style="rounded=0;whiteSpace=wrap;html=1;fontSize=12;align=center;fillColor=#f5f5f5;strokeColor=#666666;fontColor=#333333;" parent="CDYHEnSlLhHthL5JsW4_-1" vertex="1">
          <mxGeometry x="2640" y="1299" width="140" height="60" as="geometry" />
        </mxCell>
      </root>
    </mxGraphModel>
  </diagram>
</mxfile>
